<?xml version="1.0" encoding="UTF-8" standalone="no"?>
<!-- Created with Inkscape (http://www.inkscape.org/) -->

<svg
   width="297mm"
   height="210mm"
   viewBox="0 0 297 210"
   version="1.1"
   id="svg1"
   inkscape:version="1.4.4 (dcaf3e7d9e, 2026-05-05)"
   sodipodi:docname="mnmdb_general_structure.svg"
   xml:space="preserve"
   inkscape:export-filename="../../home/falk/mnmdb_general_structure.pdf"
   inkscape:export-xdpi="150"
   inkscape:export-ydpi="150"
   xmlns:inkscape="http://www.inkscape.org/namespaces/inkscape"
   xmlns:sodipodi="http://sodipodi.sourceforge.net/DTD/sodipodi-0.dtd"
   xmlns="http://www.w3.org/2000/svg"
   xmlns:svg="http://www.w3.org/2000/svg"><sodipodi:namedview
     id="namedview1"
     pagecolor="#ffffff"
     bordercolor="#000000"
     borderopacity="0.25"
     inkscape:showpageshadow="2"
     inkscape:pageopacity="0.0"
     inkscape:pagecheckerboard="0"
     inkscape:deskcolor="#d1d1d1"
     inkscape:document-units="mm"
     inkscape:zoom="0.54362802"
     inkscape:cx="786.38331"
     inkscape:cy="766.14888"
     inkscape:window-width="1908"
     inkscape:window-height="1164"
     inkscape:window-x="5"
     inkscape:window-y="29"
     inkscape:window-maximized="1"
     inkscape:current-layer="layer1"
     showgrid="false" /><defs
     id="defs1" /><g
     inkscape:label="Layer 1"
     inkscape:groupmode="layer"
     id="layer1"><rect
       style="fill:#ffffff;fill-opacity:1;stroke-width:0.397037;paint-order:markers stroke fill"
       id="rect1"
       width="297"
       height="210"
       x="1.1712853e-14"
       y="0"
       ry="13.125" /><g
       id="g92"
       transform="translate(-62.014136,35.313627)"><g
         id="g19"
         transform="translate(76.655127,-16.304424)"
         style="fill:#606060;fill-opacity:1"><g
           id="g3"
           transform="translate(-7.7083263)"
           style="fill:#606060;fill-opacity:1"><text
             xml:space="preserve"
             style="font-style:normal;font-variant:normal;font-weight:normal;font-stretch:normal;font-size:4.9389px;font-family:'Mononoki Nerd Font';-inkscape-font-specification:'Mononoki Nerd Font';text-align:start;writing-mode:lr-tb;direction:ltr;text-anchor:start;fill:#606060;fill-opacity:1;stroke:none;stroke-width:1;paint-order:markers stroke fill"
             x="139.97105"
             y="72.553719"
             id="text1"><tspan
               sodipodi:role="line"
               style="font-style:normal;font-variant:normal;font-weight:bold;font-stretch:normal;font-family:'Mononoki Nerd Font';-inkscape-font-specification:'Mononoki Nerd Font Bold';fill:#606060;fill-opacity:1;stroke:none;stroke-width:1"
               x="139.97105"
               y="72.553719"
               id="tspan2">Visits</tspan></text><path
             style="fill:#606060;fill-opacity:1;stroke:#000000;stroke-width:0.396875;stroke-dasharray:none;stroke-opacity:1;paint-order:markers stroke fill"
             d="m 140,73.223437 h 16.148"
             id="path3" /></g><text
           xml:space="preserve"
           style="font-style:normal;font-variant:normal;font-weight:normal;font-stretch:normal;font-size:3.52777px;font-family:'Mononoki Nerd Font';-inkscape-font-specification:'Mononoki Nerd Font';text-align:start;writing-mode:lr-tb;direction:ltr;text-anchor:start;fill:#606060;fill-opacity:1;stroke:#000000;stroke-width:0.396875;stroke-dasharray:none;stroke-opacity:1;paint-order:markers stroke fill"
           x="134.7618"
           y="77.433372"
           id="text3"><tspan
             sodipodi:role="line"
             style="font-weight:bold;fill:#606060;fill-opacity:1;stroke:none;stroke-width:0.396875"
             x="134.7618"
             y="77.433372"
             id="tspan17">visit_id</tspan><tspan
             sodipodi:role="line"
             style="fill:#606060;fill-opacity:1;stroke:none;stroke-width:0.396875"
             x="134.7618"
             y="81.843086"
             id="tspan110">location_id</tspan><tspan
             sodipodi:role="line"
             style="fill:#606060;fill-opacity:1;stroke:none;stroke-width:0.396875"
             x="134.7618"
             y="86.2528"
             id="tspan15">sampleunit_id</tspan><tspan
             sodipodi:role="line"
             style="fill:#606060;fill-opacity:1;stroke:none;stroke-width:0.396875"
             x="134.7618"
             y="90.662514"
             id="tspan16">fieldcalendar_id</tspan><tspan
             sodipodi:role="line"
             style="fill:#606060;fill-opacity:1;stroke:none;stroke-width:0.396875"
             x="134.7618"
             y="95.07222"
             id="tspan19">archive_version_id</tspan><tspan
             sodipodi:role="line"
             style="fill:#606060;fill-opacity:1;stroke:none;stroke-width:0.396875"
             x="134.7618"
             y="99.481934"
             id="tspan13">grts_address</tspan><tspan
             sodipodi:role="line"
             style="fill:#606060;fill-opacity:1;stroke:none;stroke-width:0.396875"
             x="134.7618"
             y="103.89165"
             id="tspan4">stratum</tspan><tspan
             sodipodi:role="line"
             style="fill:#606060;fill-opacity:1;stroke:none;stroke-width:0.396875"
             x="134.7618"
             y="108.30136"
             id="tspan5">activity_group_id</tspan><tspan
             sodipodi:role="line"
             style="fill:#606060;fill-opacity:1;stroke:none;stroke-width:0.396875"
             x="134.7618"
             y="112.71107"
             id="tspan6">date_start</tspan><tspan
             sodipodi:role="line"
             style="fill:#606060;fill-opacity:1;stroke:none;stroke-width:0.396875"
             x="134.7618"
             y="117.12079"
             id="tspan7">teammember_id</tspan><tspan
             sodipodi:role="line"
             style="fill:#606060;fill-opacity:1;stroke:none;stroke-width:0.396875"
             x="134.7618"
             y="121.53049"
             id="tspan8">date_visit</tspan><tspan
             sodipodi:role="line"
             style="fill:#606060;fill-opacity:1;stroke:none;stroke-width:0.396875"
             x="134.7618"
             y="125.94021"
             id="tspan9">notes</tspan><tspan
             sodipodi:role="line"
             style="fill:#606060;fill-opacity:1;stroke:none;stroke-width:0.396875"
             x="134.7618"
             y="130.34993"
             id="tspan10">photo</tspan><tspan
             sodipodi:role="line"
             style="fill:#606060;fill-opacity:1;stroke:none;stroke-width:0.396875"
             x="134.7618"
             y="134.75963"
             id="tspan11">issues</tspan><tspan
             sodipodi:role="line"
             style="fill:#606060;fill-opacity:1;stroke:none;stroke-width:0.396875"
             x="134.7618"
             y="139.16934"
             id="tspan12">visit_done</tspan></text></g><g
         id="g34"
         transform="translate(175.46866,-59.542105)"><g
           id="g20"
           transform="translate(-47.97368,70.206257)"><text
             xml:space="preserve"
             style="font-style:normal;font-variant:normal;font-weight:normal;font-stretch:normal;font-size:4.9389px;font-family:'Mononoki Nerd Font';-inkscape-font-specification:'Mononoki Nerd Font';text-align:start;writing-mode:lr-tb;direction:ltr;text-anchor:start;fill:none;stroke:none;stroke-width:1;paint-order:markers stroke fill"
             x="139.97105"
             y="72.553719"
             id="text20"><tspan
               sodipodi:role="line"
               style="font-style:normal;font-variant:normal;font-weight:bold;font-stretch:normal;font-family:'Mononoki Nerd Font';-inkscape-font-specification:'Mononoki Nerd Font Bold';fill:#000000;fill-opacity:1;stroke:none;stroke-width:1"
               x="139.97105"
               y="72.553719"
               id="tspan20">InstallationVisits</tspan></text><path
             style="fill:#000000;fill-opacity:1;stroke:#000000;stroke-width:0.396875;stroke-dasharray:none;stroke-opacity:1;paint-order:markers stroke fill"
             d="M 140.33279,73.223322 H 189.7604"
             id="path20" /></g><text
           xml:space="preserve"
           style="font-style:normal;font-variant:normal;font-weight:normal;font-stretch:normal;font-size:3.52777px;font-family:'Mononoki Nerd Font';-inkscape-font-specification:'Mononoki Nerd Font';text-align:start;writing-mode:lr-tb;direction:ltr;text-anchor:start;fill:#000000;fill-opacity:1;stroke:#000000;stroke-width:0.396875;stroke-dasharray:none;stroke-opacity:1;paint-order:markers stroke fill"
           x="94.496445"
           y="147.11046"
           id="text34"><tspan
             sodipodi:role="line"
             style="font-weight:bold;stroke:none;stroke-width:0.396875"
             x="94.496445"
             y="147.11046"
             id="tspan34">++</tspan><tspan
             sodipodi:role="line"
             style="stroke:none;stroke-width:0.396875"
             x="94.496445"
             y="151.52017"
             id="tspan47">photos</tspan><tspan
             sodipodi:role="line"
             style="stroke:none;stroke-width:0.396875"
             x="94.496445"
             y="155.92989"
             id="tspan48">watina_code_*</tspan><tspan
             sodipodi:role="line"
             style="stroke:none;stroke-width:0.396875"
             x="94.496445"
             y="160.3396"
             id="tspan49">...</tspan></text></g><g
         id="g54"
         transform="translate(175.46866,-32.798663)"><g
           id="g50"
           transform="translate(-47.97368,70.206257)"><text
             xml:space="preserve"
             style="font-style:normal;font-variant:normal;font-weight:normal;font-stretch:normal;font-size:4.9389px;font-family:'Mononoki Nerd Font';-inkscape-font-specification:'Mononoki Nerd Font';text-align:start;writing-mode:lr-tb;direction:ltr;text-anchor:start;fill:none;stroke:none;stroke-width:1;paint-order:markers stroke fill"
             x="139.97105"
             y="72.553719"
             id="text50"><tspan
               sodipodi:role="line"
               style="font-style:normal;font-variant:normal;font-weight:bold;font-stretch:normal;font-family:'Mononoki Nerd Font';-inkscape-font-specification:'Mononoki Nerd Font Bold';fill:#000000;fill-opacity:1;stroke:none;stroke-width:1"
               x="139.97105"
               y="72.553719"
               id="tspan50">SamplingVisits</tspan></text><path
             style="fill:#000000;fill-opacity:1;stroke:#000000;stroke-width:0.397039;stroke-dasharray:none;stroke-opacity:1;paint-order:markers stroke fill"
             d="m 140.33279,73.223404 h 38.01613"
             id="path50"
             sodipodi:nodetypes="cc" /></g><text
           xml:space="preserve"
           style="font-style:normal;font-variant:normal;font-weight:normal;font-stretch:normal;font-size:3.52777px;font-family:'Mononoki Nerd Font';-inkscape-font-specification:'Mononoki Nerd Font';text-align:start;writing-mode:lr-tb;direction:ltr;text-anchor:start;fill:#000000;fill-opacity:1;stroke:#000000;stroke-width:0.396875;stroke-dasharray:none;stroke-opacity:1;paint-order:markers stroke fill"
           x="94.496445"
           y="147.11046"
           id="text54"><tspan
             sodipodi:role="line"
             style="font-weight:bold;stroke:none;stroke-width:0.396875"
             x="94.496445"
             y="147.11046"
             id="tspan51">++</tspan><tspan
             sodipodi:role="line"
             style="stroke:none;stroke-width:0.396875"
             x="94.496445"
             y="151.52017"
             id="tspan54">project_code</tspan><tspan
             sodipodi:role="line"
             style="stroke:none;stroke-width:0.396875"
             x="94.496445"
             y="155.92989"
             id="tspan56">recipient_code</tspan></text></g><g
         id="g182"
         transform="translate(175.46866,-9.6036624)"><g
           id="g180"
           transform="translate(-47.97368,70.206257)"><text
             xml:space="preserve"
             style="font-style:normal;font-variant:normal;font-weight:normal;font-stretch:normal;font-size:4.9389px;font-family:'Mononoki Nerd Font';-inkscape-font-specification:'Mononoki Nerd Font';text-align:start;writing-mode:lr-tb;direction:ltr;text-anchor:start;fill:none;stroke:none;stroke-width:1;paint-order:markers stroke fill"
             x="139.97105"
             y="72.553719"
             id="text179"><tspan
               sodipodi:role="line"
               style="font-style:normal;font-variant:normal;font-weight:bold;font-stretch:normal;font-family:'Mononoki Nerd Font';-inkscape-font-specification:'Mononoki Nerd Font Bold';fill:#000000;fill-opacity:1;stroke:none;stroke-width:1"
               x="139.97105"
               y="72.553719"
               id="tspan179">OtherVisits</tspan></text><path
             style="fill:#000000;fill-opacity:1;stroke:#000000;stroke-width:0.396875;stroke-dasharray:none;stroke-opacity:1;paint-order:markers stroke fill"
             d="m 140.33279,73.223404 h 29.68175"
             id="path179"
             sodipodi:nodetypes="cc" /></g></g></g><g
       id="g71"
       transform="translate(-44.887155,19.008676)"><g
         id="g57"
         transform="translate(-7.7083263)"><text
           xml:space="preserve"
           style="font-style:normal;font-variant:normal;font-weight:normal;font-stretch:normal;font-size:4.93894px;font-family:'Mononoki Nerd Font';-inkscape-font-specification:'Mononoki Nerd Font';text-align:start;writing-mode:lr-tb;direction:ltr;text-anchor:start;fill:none;stroke:none;stroke-width:1.00001;paint-order:markers stroke fill"
           x="139.96997"
           y="72.554276"
           id="text57"><tspan
             sodipodi:role="line"
             style="font-style:normal;font-variant:normal;font-weight:bold;font-stretch:normal;font-family:'Mononoki Nerd Font';-inkscape-font-specification:'Mononoki Nerd Font Bold';fill:#000000;fill-opacity:1;stroke:none;stroke-width:1.00001"
             x="139.96997"
             y="72.554276"
             id="tspan57">FieldCalendar</tspan></text><path
           style="fill:#000000;fill-opacity:1;stroke:#000000;stroke-width:0.396875;stroke-dasharray:none;stroke-opacity:1;paint-order:markers stroke fill"
           d="m 140.33171,73.223437 h 35.33008"
           id="path57" /></g><text
         xml:space="preserve"
         style="font-style:normal;font-variant:normal;font-weight:normal;font-stretch:normal;font-size:3.52777px;font-family:'Mononoki Nerd Font';-inkscape-font-specification:'Mononoki Nerd Font';text-align:start;writing-mode:lr-tb;direction:ltr;text-anchor:start;fill:#000000;fill-opacity:1;stroke:#000000;stroke-width:0.396875;stroke-dasharray:none;stroke-opacity:1;paint-order:markers stroke fill"
         x="134.7618"
         y="77.433372"
         id="text71"><tspan
           sodipodi:role="line"
           style="font-weight:bold;stroke:none;stroke-width:0.396875"
           x="134.7618"
           y="77.433372"
           id="tspan59">fieldcalendar_id</tspan><tspan
           sodipodi:role="line"
           style="stroke:none;stroke-width:0.396875"
           x="134.7618"
           y="81.843086"
           id="tspan109">sampleunit_id</tspan><tspan
           sodipodi:role="line"
           style="stroke:none;stroke-width:0.396875"
           x="134.7618"
           y="86.2528"
           id="tspan137">archive_version_id</tspan><tspan
           sodipodi:role="line"
           style="stroke:none;stroke-width:0.396875"
           x="134.7618"
           y="90.662514"
           id="tspan71">grts_address</tspan><tspan
           sodipodi:role="line"
           style="stroke:none;stroke-width:0.396875"
           x="134.7618"
           y="95.07222"
           id="tspan81">stratum</tspan><tspan
           sodipodi:role="line"
           style="stroke:none;stroke-width:0.396875"
           x="134.7618"
           y="99.481934"
           id="tspan82">activity_group_id</tspan><tspan
           sodipodi:role="line"
           style="stroke:none;stroke-width:0.396875"
           x="134.7618"
           y="103.89165"
           id="tspan83">date_start</tspan><tspan
           sodipodi:role="line"
           style="stroke:none;stroke-width:0.396875"
           x="134.7618"
           y="108.30136"
           id="tspan84">priority</tspan><tspan
           sodipodi:role="line"
           style="stroke:none;stroke-width:0.396875"
           x="134.7618"
           y="112.71107"
           id="tspan85">wait_any</tspan><tspan
           sodipodi:role="line"
           style="stroke:none;stroke-width:0.396875"
           x="134.7618"
           y="117.12079"
           id="tspan86">excluded</tspan><tspan
           sodipodi:role="line"
           style="stroke:none;stroke-width:0.396875"
           x="134.7618"
           y="121.53049"
           id="tspan87">excluded_reason</tspan><tspan
           sodipodi:role="line"
           style="stroke:none;stroke-width:0.396875"
           x="134.7618"
           y="125.94021"
           id="tspan88">teammember_assigned</tspan><tspan
           sodipodi:role="line"
           style="stroke:none;stroke-width:0.396875"
           x="134.7618"
           y="130.34993"
           id="tspan89">date_visit_planned</tspan><tspan
           sodipodi:role="line"
           style="stroke:none;stroke-width:0.396875"
           x="134.7618"
           y="134.75963"
           id="tspan90">no_visit_planned</tspan><tspan
           sodipodi:role="line"
           style="stroke:none;stroke-width:0.396875"
           x="134.7618"
           y="139.16934"
           id="tspan91">notes</tspan><tspan
           sodipodi:role="line"
           style="stroke:none;stroke-width:0.396875"
           x="134.7618"
           y="143.57906"
           id="tspan92">done_planning</tspan></text></g><g
       id="g108"
       transform="translate(-109.95401,19.008676)"><g
         id="g93"
         transform="translate(-7.7083263)"><text
           xml:space="preserve"
           style="font-style:normal;font-variant:normal;font-weight:normal;font-stretch:normal;font-size:4.93894px;font-family:'Mononoki Nerd Font';-inkscape-font-specification:'Mononoki Nerd Font';text-align:start;writing-mode:lr-tb;direction:ltr;text-anchor:start;fill:none;stroke:none;stroke-width:1.00001;paint-order:markers stroke fill"
           x="139.96997"
           y="72.554276"
           id="text93"><tspan
             sodipodi:role="line"
             style="font-style:normal;font-variant:normal;font-weight:bold;font-stretch:normal;font-family:'Mononoki Nerd Font';-inkscape-font-specification:'Mononoki Nerd Font Bold';fill:#000000;fill-opacity:1;stroke:none;stroke-width:1.00001"
             x="139.96997"
             y="72.554276"
             id="tspan93">SampleUnits</tspan></text><path
           style="fill:#000000;fill-opacity:1;stroke:#000000;stroke-width:0.396875;stroke-dasharray:none;stroke-opacity:1;paint-order:markers stroke fill"
           d="m 140.33171,73.222561 h 29.6963"
           id="path93"
           sodipodi:nodetypes="cc" /></g><text
         xml:space="preserve"
         style="font-style:normal;font-variant:normal;font-weight:normal;font-stretch:normal;font-size:3.52777px;font-family:'Mononoki Nerd Font';-inkscape-font-specification:'Mononoki Nerd Font';text-align:start;writing-mode:lr-tb;direction:ltr;text-anchor:start;fill:#000000;fill-opacity:1;stroke:#000000;stroke-width:0.396875;stroke-dasharray:none;stroke-opacity:1;paint-order:markers stroke fill"
         x="134.7618"
         y="77.433372"
         id="text108"><tspan
           sodipodi:role="line"
           style="font-weight:bold;stroke:none;stroke-width:0.396875"
           x="134.7618"
           y="77.433372"
           id="tspan108">sampleunit_id</tspan><tspan
           sodipodi:role="line"
           style="stroke:none;stroke-width:0.396875"
           x="134.7618"
           y="81.843086"
           id="tspan124">location_id</tspan><tspan
           sodipodi:role="line"
           style="stroke:none;stroke-width:0.396875"
           x="134.7618"
           y="86.2528"
           id="tspan136">archive_version_id</tspan><tspan
           sodipodi:role="line"
           style="stroke:none;stroke-width:0.396875"
           x="134.7618"
           y="90.662514"
           id="tspan125">grts_address</tspan><tspan
           sodipodi:role="line"
           style="stroke:none;stroke-width:0.396875"
           x="134.7618"
           y="95.07222"
           id="tspan126">scheme_ps_targetpanels</tspan><tspan
           sodipodi:role="line"
           style="stroke:none;stroke-width:0.396875"
           x="134.7618"
           y="99.481934"
           id="tspan127">schemes</tspan><tspan
           sodipodi:role="line"
           style="stroke:none;stroke-width:0.396875"
           x="134.7618"
           y="103.89165"
           id="tspan128">stratum</tspan><tspan
           sodipodi:role="line"
           style="stroke:none;stroke-width:0.396875"
           x="134.7618"
           y="108.30136"
           id="tspan129">domain_part</tspan><tspan
           sodipodi:role="line"
           style="stroke:none;stroke-width:0.396875"
           x="134.7618"
           y="112.71107"
           id="tspan130">is_forest</tspan><tspan
           sodipodi:role="line"
           style="stroke:none;stroke-width:0.396875"
           x="134.7618"
           y="117.12079"
           id="tspan131">in_mhq_samples</tspan><tspan
           sodipodi:role="line"
           style="stroke:none;stroke-width:0.396875"
           x="134.7618"
           y="121.53049"
           id="tspan132">has_mhq_assessment</tspan><tspan
           sodipodi:role="line"
           style="stroke:none;stroke-width:0.396875"
           x="134.7618"
           y="125.94021"
           id="tspan133">is_replacement</tspan><tspan
           sodipodi:role="line"
           style="stroke:none;stroke-width:0.396875"
           x="134.7618"
           y="130.34993"
           id="tspan135">was_replaced_by_grts</tspan></text></g><g
       id="g178"
       transform="translate(87.997298,-5.5063731)"><g
         id="g138"
         transform="translate(-100.12524,-50.544342)"><text
           xml:space="preserve"
           style="font-style:normal;font-variant:normal;font-weight:normal;font-stretch:normal;font-size:4.93892px;font-family:'Mononoki Nerd Font';-inkscape-font-specification:'Mononoki Nerd Font';text-align:start;writing-mode:lr-tb;direction:ltr;text-anchor:start;fill:none;stroke:none;stroke-width:1.00001;paint-order:markers stroke fill"
           x="139.9705"
           y="72.554001"
           id="text138"><tspan
             sodipodi:role="line"
             style="font-style:normal;font-variant:normal;font-weight:bold;font-stretch:normal;font-family:'Mononoki Nerd Font';-inkscape-font-specification:'Mononoki Nerd Font Bold';fill:#000000;fill-opacity:1;stroke:none;stroke-width:1.00001"
             x="139.9705"
             y="72.554001"
             id="tspan138">Locations</tspan></text><path
           style="fill:#000000;fill-opacity:1;stroke:#000000;stroke-width:0.396875;stroke-dasharray:none;stroke-opacity:1;paint-order:markers stroke fill"
           d="m 140.33171,73.222561 h 24.13503"
           id="path138"
           sodipodi:nodetypes="cc" /></g><text
         xml:space="preserve"
         style="font-style:normal;font-variant:normal;font-weight:normal;font-stretch:normal;font-size:3.52777px;font-family:'Mononoki Nerd Font';-inkscape-font-specification:'Mononoki Nerd Font';text-align:start;writing-mode:lr-tb;direction:ltr;text-anchor:start;fill:#000000;fill-opacity:1;stroke:#000000;stroke-width:0.396875;stroke-dasharray:none;stroke-opacity:1;paint-order:markers stroke fill"
         x="42.344879"
         y="26.88903"
         id="text151"><tspan
           sodipodi:role="line"
           style="font-weight:bold;stroke:none;stroke-width:0.396875"
           x="42.344879"
           y="26.88903"
           id="tspan151">location_id</tspan><tspan
           sodipodi:role="line"
           style="stroke:none;stroke-width:0.396875"
           x="42.344879"
           y="31.298742"
           id="tspan163">grts_address</tspan><tspan
           sodipodi:role="line"
           style="stroke:none;stroke-width:0.396875"
           x="42.344879"
           y="35.708454"
           id="tspan164">wkb_geometry</tspan></text><path
         style="fill:#000000;stroke-width:0.0696924"
         d="m 32.649641,22.569159 c -0.426978,-0.11499 -0.437194,-0.15519 -0.308876,-1.215531 0.156063,-1.289606 0.172109,-1.817173 0.07482,-2.459779 -0.05632,-0.371994 -0.05464,-0.379703 0.110355,-0.505369 0.292887,-0.223076 0.788127,-0.176394 1.120555,0.105625 0.184024,0.156119 0.380772,0.233339 0.662763,0.260122 0.172046,0.01634 0.179399,0.02336 0.179742,0.171545 3.48e-4,0.144374 0.02549,0.205605 0.04399,0.107041 0.04722,-0.251731 0.03854,-0.245414 0.356675,-0.259323 0.327686,-0.01433 0.663345,-0.04672 1.175634,-0.113472 0.745866,-0.09718 0.837641,-0.106136 1.087931,-0.106144 0.502318,-1.7e-5 0.964646,0.197366 0.989121,0.422291 0.04072,0.374197 0.01103,0.777445 -0.07862,1.067493 -0.03133,0.101386 -0.07122,0.250746 -0.08865,0.331911 -0.03529,0.164403 -0.09352,0.18551 -0.38612,0.139956 -0.181288,-0.02822 -0.156263,-0.01197 0.06677,0.04336 0.109885,0.02726 0.210722,0.05632 0.22408,0.06458 0.0241,0.01489 0.0459,0.602933 0.04619,1.245766 1.4e-4,0.256009 -0.05115,0.599284 -0.08949,0.599284 -0.01147,0 -0.142049,-0.02829 -0.290177,-0.06286 -0.148129,-0.03457 -0.325008,-0.06883 -0.393066,-0.07611 -0.145443,-0.01558 -0.154739,-0.02866 -0.19609,-0.275916 -0.02467,-0.147515 -0.02467,-0.147515 -0.03669,0.03248 -0.01524,0.22816 -0.02091,0.23488 -0.198233,0.234959 -0.179087,7e-5 -0.46965,0.02679 -0.924327,0.08498 -1.464467,0.1874 -1.454353,0.187539 -1.507106,-0.02084 -0.03259,-0.128742 -0.03259,-0.128742 -0.04181,0.01878 -0.01139,0.1822 0.03152,0.172567 -0.678602,0.152342 -0.446206,-0.01271 -0.533852,-0.01079 -0.604538,0.01321 -0.100468,0.03411 -0.188604,0.03401 -0.316218,-3.49e-4 z m 0.142638,-0.04333 c 0,-0.009 -0.01982,-0.02142 -0.04405,-0.02749 -0.117605,-0.02952 -0.205802,-0.220611 -0.226661,-0.491101 -0.01308,-0.169589 -0.01622,-0.171853 -0.103931,-0.07477 -0.228699,0.253142 -0.07848,0.534214 0.319318,0.597458 0.02536,0.004 0.04817,0.0085 0.05071,0.0098 0.0025,0.0014 0.0046,-0.0049 0.0046,-0.01393 z m 1.405427,-0.237103 c 0.0078,-0.327336 0.04673,-0.298306 0.160524,0.119857 0.02545,0.09352 0.05066,0.09608 0.498049,0.05057 0.323956,-0.03295 0.29813,0.0053 0.292209,-0.433185 -0.0027,-0.197764 0.0025,-0.51353 0.01159,-0.701702 0.01645,-0.342133 0.01645,-0.342133 -0.07392,-0.359571 -0.123135,-0.02377 -0.124757,-0.07055 -0.0027,-0.07838 0.100211,-0.0064 0.100884,-0.01326 0.0294,-0.29863 -0.08401,-0.335347 -0.172616,-0.450476 -0.356763,-0.463551 -0.27892,-0.0198 -0.440668,-0.08087 -0.748617,-0.282644 -0.242854,-0.15912 -0.365307,-0.22113 -0.375435,-0.190116 -0.01238,0.03792 -0.02765,0.676841 -0.0389,1.627792 -0.01249,1.056028 -0.02337,1.111318 -0.232632,1.182097 -0.08099,0.02739 0.05066,0.03967 0.449972,0.04195 0.382034,0.0022 0.382034,0.0022 0.387229,-0.214483 z m 0.459864,-1.369041 c -0.07939,-0.01877 -0.110073,-0.04781 -0.08111,-0.07678 0.03326,-0.03326 0.269424,0.02022 0.277577,0.06285 0.0069,0.0359 -0.07805,0.04192 -0.196468,0.01392 z m -0.95619,-0.08594 c -0.01694,-0.04413 0.05146,-0.09216 0.168594,-0.118369 0.189677,-0.04245 0.217451,0.02852 0.03031,0.07745 -0.06336,0.01657 -0.124499,0.03942 -0.135863,0.05079 -0.02895,0.02895 -0.04937,0.02575 -0.06304,-0.0099 z m 0.560547,-0.03884 c -0.106246,-0.02731 -0.141847,-0.07801 -0.06516,-0.09278 0.06518,-0.01256 0.236624,0.05244 0.236624,0.0897 0,0.04148 -0.02066,0.04185 -0.171468,0.0031 z m -1.123195,1.674541 c 0.380626,-0.05504 0.514732,-0.377872 0.236241,-0.568697 -0.08029,-0.05501 -0.07798,-0.05713 -0.09135,0.08373 -0.02439,0.256917 -0.0558,0.302879 -0.229487,0.335818 -0.150014,0.02845 -0.154258,0.02337 -0.139856,-0.167417 0.01473,-0.195079 -0.140594,-0.2369 -0.257889,-0.06944 -0.162534,0.232048 0.0991,0.441425 0.482339,0.386004 z m 2.579032,-0.111132 c 0.476679,-0.06494 0.757444,-0.09249 0.946811,-0.0929 0.189229,-4.18e-4 0.184059,0.0062 0.197123,-0.253588 0.01187,-0.23606 0.02183,-0.274362 0.06687,-0.25708 0.02648,0.01016 0.04781,0.08845 0.105622,0.387642 0.01139,0.05896 0.03039,0.109811 0.04221,0.113001 0.01183,0.0032 0.100328,0.01945 0.196674,0.03614 0.09635,0.01669 0.25243,0.04849 0.346853,0.07068 0.199469,0.04687 0.192979,0.0506 0.224256,-0.128997 0.02283,-0.131101 0.02715,-0.797225 0.0053,-0.817046 -0.08138,-0.07382 -0.495186,-0.08454 -0.95004,-0.02462 -0.598557,0.07885 -0.83502,-0.02411 -0.946243,-0.412025 -0.0036,-0.01268 -0.02761,-0.02305 -0.05329,-0.02305 -0.03438,0 -0.04668,-0.0097 -0.04668,-0.03688 0,-0.02756 0.01229,-0.03688 0.04864,-0.03688 0.189935,0 -0.112822,-0.732 -0.350307,-0.846965 -0.101087,-0.04894 -0.452804,0.003 -0.56159,0.08294 -0.0032,0.0024 0.01956,0.05454 0.05057,0.115977 0.07434,0.147271 0.140166,0.349487 0.166894,0.512711 0.01918,0.117128 0.02681,0.133338 0.06756,0.143565 0.05509,0.01383 0.05295,0.072 -0.0029,0.08006 -0.03409,0.0049 -0.0372,0.02137 -0.04171,0.221275 -0.0027,0.118782 -0.01268,0.30536 -0.02222,0.414619 -0.03335,0.38191 -0.0038,0.806301 0.05614,0.806301 0.02786,0 0.231927,-0.0247 0.453492,-0.05488 z m -0.282682,-1.412918 c -0.01654,-0.04311 0.02676,-0.06208 0.142484,-0.06239 0.110804,-2.79e-4 0.159839,0.02608 0.125458,0.0675 -0.03111,0.03748 -0.253225,0.03324 -0.267942,-0.0051 z m -2.273541,1.27161 c 0.0509,-0.05256 0.0115,-0.149223 -0.08008,-0.19649 -0.08861,-0.04573 -0.09913,-0.03382 -0.108466,0.12269 -0.008,0.133399 0.09267,0.172788 0.188544,0.0738 z m -0.41877,-0.263623 c 0.126284,-0.04771 0.350559,-0.01782 0.430904,0.05744 0.04027,0.03772 0.04027,0.03772 0.05249,-0.02745 0.03352,-0.178677 -0.04065,-0.225383 -0.35552,-0.223877 -0.103952,4.81e-4 -0.189004,-0.0057 -0.189004,-0.01383 0,-0.0081 -0.0083,-0.01473 -0.01844,-0.01473 -0.01014,0 -0.01844,0.01215 -0.01844,0.02701 0,0.01486 -0.0166,0.03589 -0.03688,0.04675 -0.03831,0.0205 -0.05015,0.12376 -0.02497,0.217775 0.01141,0.0426 0.01141,0.0426 0.05968,-0.0035 0.02654,-0.02532 0.07163,-0.05486 0.100177,-0.06565 z m 0.773567,-0.328474 c -0.0052,-0.169874 0.0037,-0.615879 0.0198,-0.991124 0.01606,-0.375244 0.03447,-0.997576 0.04091,-1.382963 0.0064,-0.385385 0.01522,-0.706408 0.01952,-0.713383 0.02422,-0.03932 -0.257141,-0.178467 -0.423388,-0.209383 -0.07087,-0.01318 -0.07087,-0.01318 -0.05775,0.109299 0.01735,0.16205 -0.0059,0.47668 -0.03451,0.4671 -0.01468,-0.0049 -0.02129,-0.08645 -0.02136,-0.263703 -1.39e-4,-0.329369 -0.0082,-0.346752 -0.153303,-0.329298 -0.312432,0.03759 -0.499734,0.190937 -0.463675,0.379626 0.124325,0.650554 0.12119,1.273845 -0.01204,2.394474 -0.109235,0.918783 -0.106527,0.850164 -0.03075,0.779378 0.03031,-0.02832 0.08575,-0.06798 0.123186,-0.08813 0.03744,-0.02016 0.0712,-0.05324 0.07503,-0.07353 0.0038,-0.02029 0.01384,-0.08667 0.02225,-0.147517 0.02188,-0.15831 0.06499,-0.152431 0.0871,0.01188 0.01649,0.122517 0.01649,0.122517 0.21384,0.129272 0.208699,0.0071 0.449429,0.09534 0.54327,0.199029 0.05823,0.06434 0.06157,0.04691 0.05188,-0.271034 z m 3.503937,-0.309568 c 0.266257,-0.03512 0.517921,-0.0342 0.679182,0.0025 0.159433,0.03626 0.141526,0.07462 0.147195,-0.315344 0.0048,-0.331813 0.0048,-0.331813 -0.279765,-0.406006 -0.352863,-0.09199 -0.367567,-0.09721 -0.367567,-0.130462 0,-0.04545 0.04242,-0.04797 0.301619,-0.01792 0.405799,0.04705 0.390173,0.05028 0.416511,-0.08629 0.01222,-0.06339 0.05032,-0.206522 0.08466,-0.318081 0.143062,-0.464782 0.14384,-1.107075 0.0014,-1.18846 -0.229448,-0.131147 -0.316372,-0.170924 -0.445868,-0.204043 -0.286336,-0.07323 -0.284602,-0.07458 -0.284602,0.221584 0,0.3855 -0.0519,0.381474 -0.05942,-0.0046 -0.0051,-0.262763 -0.0051,-0.262763 -0.143413,-0.256891 -0.255075,0.01083 -0.615652,0.05911 -0.660389,0.08842 -0.163755,0.107297 -0.274844,0.257435 -0.380608,0.514396 -0.126814,0.308106 -0.257267,0.480971 -0.486863,0.645151 -0.0988,0.07065 -0.0988,0.07065 -0.0069,0.104945 0.228833,0.08536 0.465228,0.501446 0.465228,0.818858 0,0.07549 0.0026,0.07911 0.05993,0.08464 0.07968,0.0077 0.0871,0.07641 0.0092,0.08537 -0.06144,0.0071 -0.06391,0.03703 -0.01241,0.15057 0.113357,0.249909 0.323178,0.29604 0.962784,0.21168 z m -0.741839,-0.422089 c -0.01793,-0.0216 -0.0028,-0.03904 0.08384,-0.09681 0.05813,-0.03875 0.116516,-0.07857 0.129736,-0.08849 0.0585,-0.04387 0.07066,0.02532 0.01479,0.08413 -0.09097,0.09576 -0.194708,0.141711 -0.228359,0.101164 z m 0.265781,-0.269497 c -0.0065,-0.01059 0.0027,-0.04153 0.02054,-0.06876 0.01784,-0.02723 0.04228,-0.08288 0.05431,-0.123656 0.02255,-0.07648 0.0695,-0.106655 0.08858,-0.05693 0.03442,0.08969 -0.118202,0.322539 -0.163434,0.249353 z m 0.108856,-0.339618 c -0.02441,-0.0636 0.01904,-0.258856 0.0576,-0.258856 0.03287,0 0.03632,0.01056 0.03169,0.09715 -0.0081,0.152047 -0.0582,0.242726 -0.08929,0.16171 z m 0.140757,-0.286268 c -0.05087,-0.07022 -0.08726,-0.104805 -0.100004,-0.09504 -0.01102,0.0084 -0.06477,0.05016 -0.119453,0.09271 -0.175292,0.136394 -0.292686,-0.02788 -0.134435,-0.188124 0.09567,-0.09688 0.09567,-0.09688 0.0034,-0.187744 -0.11341,-0.111703 -0.113416,-0.11351 -8.31e-4,-0.218806 0.112016,-0.104777 0.11192,-0.104776 0.197392,-0.0025 0.08583,0.102679 0.07946,0.103059 0.213149,-0.01276 0.110507,-0.09573 0.110507,-0.09573 0.190309,-0.0046 0.08197,0.0936 0.131196,0.169144 0.117572,0.180438 -0.0042,0.0035 -0.05987,0.04138 -0.123611,0.08414 -0.1159,0.07774 -0.1159,0.07774 -0.05532,0.152258 0.142619,0.175417 0.140929,0.150828 0.01619,0.235537 -0.134368,0.09125 -0.109422,0.09558 -0.204361,-0.03547 z m 0.216202,-0.0501 c 0.0027,-0.0082 -0.0324,-0.06041 -0.07805,-0.116062 -0.102872,-0.125408 -0.104477,-0.113162 0.02648,-0.202096 0.14134,-0.09598 0.1403,-0.093 0.06368,-0.182516 -0.06542,-0.07643 -0.06542,-0.07643 -0.171436,0.01577 -0.128477,0.111746 -0.119306,0.111373 -0.223193,0.0091 -0.08443,-0.08316 -0.08443,-0.08316 -0.14797,-0.0176 -0.06354,0.06556 -0.06354,0.06556 0.03422,0.159798 0.09776,0.09424 0.09776,0.09424 0.0044,0.188747 -0.102951,0.104245 -0.10641,0.112868 -0.06406,0.159667 0.02759,0.03048 0.03576,0.02712 0.141983,-0.05848 0.138003,-0.111205 0.119859,-0.112858 0.215868,0.01967 0.07788,0.107504 0.166635,0.118281 0.198047,0.02405 z m -1.829104,0.0489 c 0.101014,-0.03224 0.189803,-0.06922 0.19731,-0.08219 0.0075,-0.01296 0.08016,-0.07146 0.161445,-0.129984 0.202442,-0.14576 0.337096,-0.336381 0.46165,-0.653529 0.04669,-0.118886 0.142733,-0.266579 0.232374,-0.357342 0.08733,-0.08842 0.08791,-0.08978 0.03398,-0.07898 -0.23883,0.0478 -1.215658,0.141294 -1.476296,0.141294 -0.150938,0 -0.150938,0 -0.201503,0.207444 -0.08274,0.339436 -0.128861,0.340972 -0.151106,0.005 -0.01461,-0.220559 -0.01461,-0.220559 -0.188542,-0.243814 -0.20957,-0.02802 -0.322552,-0.06268 -0.478265,-0.146717 -0.145129,-0.07832 -0.128088,-0.132729 -0.133023,0.424699 -0.0042,0.476741 -0.0042,0.476741 0.141569,0.553175 0.08018,0.04204 0.195576,0.110045 0.256426,0.151124 0.434008,0.292985 0.719351,0.345314 1.143982,0.209789 z"
         id="path178" /></g><g
       id="g179"
       transform="translate(20.993048,-5.5063731)"><g
         id="g165"
         transform="translate(86.572757,-50.592787)"><text
           xml:space="preserve"
           style="font-style:normal;font-variant:normal;font-weight:normal;font-stretch:normal;font-size:4.93894px;font-family:'Mononoki Nerd Font';-inkscape-font-specification:'Mononoki Nerd Font';text-align:start;writing-mode:lr-tb;direction:ltr;text-anchor:start;fill:none;stroke:none;stroke-width:1.00001;paint-order:markers stroke fill"
           x="139.97006"
           y="72.55423"
           id="text165"><tspan
             sodipodi:role="line"
             style="font-style:normal;font-variant:normal;font-weight:bold;font-stretch:normal;font-family:'Mononoki Nerd Font';-inkscape-font-specification:'Mononoki Nerd Font Bold';fill:#000000;fill-opacity:1;stroke:none;stroke-width:1.00001"
             x="139.97006"
             y="72.55423"
             id="tspan165">CellMaps</tspan></text><path
           style="fill:#000000;fill-opacity:1;stroke:#000000;stroke-width:0.396875;stroke-dasharray:none;stroke-opacity:1;paint-order:markers stroke fill"
           d="m 140.33171,73.222561 h 21.36193"
           id="path165"
           sodipodi:nodetypes="cc" /></g><text
         xml:space="preserve"
         style="font-style:normal;font-variant:normal;font-weight:normal;font-stretch:normal;font-size:3.52777px;font-family:'Mononoki Nerd Font';-inkscape-font-specification:'Mononoki Nerd Font';text-align:start;writing-mode:lr-tb;direction:ltr;text-anchor:start;fill:#000000;fill-opacity:1;stroke:#000000;stroke-width:0.396875;stroke-dasharray:none;stroke-opacity:1;paint-order:markers stroke fill"
         x="229.04288"
         y="26.840586"
         id="text168"><tspan
           sodipodi:role="line"
           style="font-weight:bold;stroke:none;stroke-width:0.396875"
           x="229.04288"
           y="26.840586"
           id="tspan168">cellmap_id</tspan><tspan
           sodipodi:role="line"
           style="stroke:none;stroke-width:0.396875"
           x="229.04288"
           y="31.250298"
           id="tspan170">log_creator</tspan><tspan
           sodipodi:role="line"
           style="stroke:none;stroke-width:0.396875"
           x="229.04288"
           y="35.660011"
           id="tspan171">log_creation</tspan><tspan
           sodipodi:role="line"
           style="stroke:none;stroke-width:0.396875"
           x="229.04288"
           y="40.069725"
           id="tspan172">log_user</tspan><tspan
           sodipodi:role="line"
           style="stroke:none;stroke-width:0.396875"
           x="229.04288"
           y="44.479435"
           id="tspan173">log_update</tspan><tspan
           sodipodi:role="line"
           style="stroke:none;stroke-width:0.396875"
           x="229.04288"
           y="48.889149"
           id="tspan174">label</tspan><tspan
           sodipodi:role="line"
           style="stroke:none;stroke-width:0.396875"
           x="229.04288"
           y="53.298862"
           id="tspan175">type</tspan><tspan
           sodipodi:role="line"
           style="stroke:none;stroke-width:0.396875"
           x="229.04288"
           y="57.708572"
           id="tspan176">(location)</tspan><tspan
           sodipodi:role="line"
           style="stroke:none;stroke-width:0.396875"
           x="229.04288"
           y="62.118286"
           id="tspan177">notes</tspan><tspan
           sodipodi:role="line"
           style="stroke:none;stroke-width:0.396875"
           x="229.04288"
           y="66.528"
           id="tspan178">wkb_geometry</tspan></text><path
         style="fill:#000000;stroke-width:0.0696924"
         d="m 219.34784,22.569159 c -0.42698,-0.11499 -0.43719,-0.15519 -0.30887,-1.215531 0.15606,-1.289606 0.1721,-1.817173 0.0748,-2.459779 -0.0563,-0.371994 -0.0546,-0.379703 0.11035,-0.505369 0.29289,-0.223076 0.78813,-0.176394 1.12056,0.105625 0.18402,0.156119 0.38077,0.233339 0.66276,0.260122 0.17204,0.01634 0.1794,0.02336 0.17974,0.171545 3.5e-4,0.144374 0.0255,0.205605 0.044,0.107041 0.0472,-0.251731 0.0385,-0.245414 0.35668,-0.259323 0.32768,-0.01433 0.66334,-0.04672 1.17563,-0.113472 0.74587,-0.09718 0.83764,-0.106136 1.08793,-0.106144 0.50232,-1.7e-5 0.96465,0.197366 0.98912,0.422291 0.0407,0.374197 0.011,0.777445 -0.0786,1.067493 -0.0313,0.101386 -0.0712,0.250746 -0.0887,0.331911 -0.0353,0.164403 -0.0935,0.18551 -0.38612,0.139956 -0.18129,-0.02822 -0.15626,-0.01197 0.0668,0.04336 0.10989,0.02726 0.21072,0.05632 0.22408,0.06458 0.0241,0.01489 0.0459,0.602933 0.0462,1.245766 1.4e-4,0.256009 -0.0512,0.599284 -0.0895,0.599284 -0.0115,0 -0.14205,-0.02829 -0.29018,-0.06286 -0.14812,-0.03457 -0.325,-0.06883 -0.39306,-0.07611 -0.14544,-0.01558 -0.15474,-0.02866 -0.19609,-0.275916 -0.0247,-0.147515 -0.0247,-0.147515 -0.0367,0.03248 -0.0152,0.22816 -0.0209,0.23488 -0.19823,0.234959 -0.17909,7e-5 -0.46965,0.02679 -0.92433,0.08498 -1.46447,0.1874 -1.45435,0.187539 -1.50711,-0.02084 -0.0326,-0.128742 -0.0326,-0.128742 -0.0418,0.01878 -0.0114,0.1822 0.0315,0.172567 -0.6786,0.152342 -0.44621,-0.01271 -0.53385,-0.01079 -0.60454,0.01321 -0.10047,0.03411 -0.1886,0.03401 -0.31622,-3.49e-4 z m 0.14264,-0.04333 c 0,-0.009 -0.0198,-0.02142 -0.044,-0.02749 -0.11761,-0.02952 -0.2058,-0.220611 -0.22666,-0.491101 -0.0131,-0.169589 -0.0162,-0.171853 -0.10393,-0.07477 -0.2287,0.253142 -0.0785,0.534214 0.31931,0.597458 0.0254,0.004 0.0482,0.0085 0.0507,0.0098 0.002,0.0014 0.005,-0.0049 0.005,-0.01393 z m 1.40543,-0.237103 c 0.008,-0.327336 0.0467,-0.298306 0.16052,0.119857 0.0255,0.09352 0.0507,0.09608 0.49805,0.05057 0.32396,-0.03295 0.29813,0.0053 0.29221,-0.433185 -0.003,-0.197764 0.002,-0.51353 0.0116,-0.701702 0.0164,-0.342133 0.0164,-0.342133 -0.0739,-0.359571 -0.12314,-0.02377 -0.12476,-0.07055 -0.003,-0.07838 0.10021,-0.0064 0.10088,-0.01326 0.0294,-0.29863 -0.084,-0.335347 -0.17262,-0.450476 -0.35676,-0.463551 -0.27892,-0.0198 -0.44067,-0.08087 -0.74862,-0.282644 -0.24286,-0.15912 -0.36531,-0.22113 -0.37544,-0.190116 -0.0124,0.03792 -0.0276,0.676841 -0.0389,1.627792 -0.0125,1.056028 -0.0234,1.111318 -0.23263,1.182097 -0.081,0.02739 0.0507,0.03967 0.44997,0.04195 0.38204,0.0022 0.38204,0.0022 0.38723,-0.214483 z m 0.45986,-1.369041 c -0.0794,-0.01877 -0.11007,-0.04781 -0.0811,-0.07678 0.0333,-0.03326 0.26942,0.02022 0.27758,0.06285 0.007,0.0359 -0.0781,0.04192 -0.19647,0.01392 z m -0.95619,-0.08594 c -0.0169,-0.04413 0.0515,-0.09216 0.16859,-0.118369 0.18968,-0.04245 0.21745,0.02852 0.0303,0.07745 -0.0634,0.01657 -0.12449,0.03942 -0.13586,0.05079 -0.029,0.02895 -0.0494,0.02575 -0.063,-0.0099 z m 0.56055,-0.03884 c -0.10625,-0.02731 -0.14185,-0.07801 -0.0652,-0.09278 0.0652,-0.01256 0.23662,0.05244 0.23662,0.0897 0,0.04148 -0.0207,0.04185 -0.17147,0.0031 z m -1.1232,1.674541 c 0.38063,-0.05504 0.51473,-0.377872 0.23624,-0.568697 -0.0803,-0.05501 -0.078,-0.05713 -0.0914,0.08373 -0.0244,0.256917 -0.0558,0.302879 -0.22948,0.335818 -0.15002,0.02845 -0.15426,0.02337 -0.13986,-0.167417 0.0147,-0.195079 -0.14059,-0.2369 -0.25789,-0.06944 -0.16253,0.232048 0.0991,0.441425 0.48234,0.386004 z m 2.57903,-0.111132 c 0.47668,-0.06494 0.75745,-0.09249 0.94682,-0.0929 0.18922,-4.18e-4 0.18405,0.0062 0.19712,-0.253588 0.0119,-0.23606 0.0218,-0.274362 0.0669,-0.25708 0.0265,0.01016 0.0478,0.08845 0.10562,0.387642 0.0114,0.05896 0.0304,0.109811 0.0422,0.113001 0.0118,0.0032 0.10033,0.01945 0.19667,0.03614 0.0964,0.01669 0.25243,0.04849 0.34686,0.07068 0.19947,0.04687 0.19298,0.0506 0.22425,-0.128997 0.0228,-0.131101 0.0272,-0.797225 0.005,-0.817046 -0.0814,-0.07382 -0.49518,-0.08454 -0.95004,-0.02462 -0.59855,0.07885 -0.83502,-0.02411 -0.94624,-0.412025 -0.004,-0.01268 -0.0276,-0.02305 -0.0533,-0.02305 -0.0344,0 -0.0467,-0.0097 -0.0467,-0.03688 0,-0.02756 0.0123,-0.03688 0.0486,-0.03688 0.18993,0 -0.11282,-0.732 -0.35031,-0.846965 -0.10108,-0.04894 -0.4528,0.003 -0.56159,0.08294 -0.003,0.0024 0.0196,0.05454 0.0506,0.115977 0.0743,0.147271 0.14017,0.349487 0.1669,0.512711 0.0192,0.117128 0.0268,0.133338 0.0676,0.143565 0.0551,0.01383 0.053,0.072 -0.003,0.08006 -0.0341,0.0049 -0.0372,0.02137 -0.0417,0.221275 -0.003,0.118782 -0.0127,0.30536 -0.0222,0.414619 -0.0334,0.38191 -0.004,0.806301 0.0561,0.806301 0.0279,0 0.23192,-0.0247 0.45349,-0.05488 z m -0.28268,-1.412918 c -0.0165,-0.04311 0.0268,-0.06208 0.14249,-0.06239 0.1108,-2.79e-4 0.15983,0.02608 0.12545,0.0675 -0.0311,0.03748 -0.25322,0.03324 -0.26794,-0.0051 z m -2.27354,1.27161 c 0.0509,-0.05256 0.0115,-0.149223 -0.0801,-0.19649 -0.0886,-0.04573 -0.0991,-0.03382 -0.10847,0.12269 -0.008,0.133399 0.0927,0.172788 0.18855,0.0738 z m -0.41877,-0.263623 c 0.12629,-0.04771 0.35056,-0.01782 0.43091,0.05744 0.0403,0.03772 0.0403,0.03772 0.0525,-0.02745 0.0335,-0.178677 -0.0406,-0.225383 -0.35552,-0.223877 -0.10395,4.81e-4 -0.189,-0.0057 -0.189,-0.01383 0,-0.0081 -0.008,-0.01473 -0.0184,-0.01473 -0.0101,0 -0.0184,0.01215 -0.0184,0.02701 0,0.01486 -0.0166,0.03589 -0.0369,0.04675 -0.0383,0.0205 -0.0502,0.12376 -0.025,0.217775 0.0114,0.0426 0.0114,0.0426 0.0597,-0.0035 0.0265,-0.02532 0.0716,-0.05486 0.10018,-0.06565 z m 0.77357,-0.328474 c -0.005,-0.169874 0.004,-0.615879 0.0198,-0.991124 0.0161,-0.375244 0.0345,-0.997576 0.0409,-1.382963 0.006,-0.385385 0.0152,-0.706408 0.0195,-0.713383 0.0242,-0.03932 -0.25714,-0.178467 -0.42339,-0.209383 -0.0709,-0.01318 -0.0709,-0.01318 -0.0578,0.109299 0.0174,0.16205 -0.006,0.47668 -0.0345,0.4671 -0.0147,-0.0049 -0.0213,-0.08645 -0.0214,-0.263703 -1.4e-4,-0.329369 -0.008,-0.346752 -0.1533,-0.329298 -0.31244,0.03759 -0.49974,0.190937 -0.46368,0.379626 0.12433,0.650554 0.12119,1.273845 -0.012,2.394474 -0.10923,0.918783 -0.10653,0.850164 -0.0307,0.779378 0.0303,-0.02832 0.0857,-0.06798 0.12319,-0.08813 0.0374,-0.02016 0.0712,-0.05324 0.075,-0.07353 0.004,-0.02029 0.0138,-0.08667 0.0223,-0.147517 0.0219,-0.15831 0.065,-0.152431 0.0871,0.01188 0.0165,0.122517 0.0165,0.122517 0.21384,0.129272 0.2087,0.0071 0.44943,0.09534 0.54327,0.199029 0.0582,0.06434 0.0616,0.04691 0.0519,-0.271034 z m 3.50393,-0.309568 c 0.26626,-0.03512 0.51793,-0.0342 0.67919,0.0025 0.15943,0.03626 0.14152,0.07462 0.14719,-0.315344 0.005,-0.331813 0.005,-0.331813 -0.27976,-0.406006 -0.35287,-0.09199 -0.36757,-0.09721 -0.36757,-0.130462 0,-0.04545 0.0424,-0.04797 0.30162,-0.01792 0.4058,0.04705 0.39017,0.05028 0.41651,-0.08629 0.0122,-0.06339 0.0503,-0.206522 0.0847,-0.318081 0.14306,-0.464782 0.14384,-1.107075 0.001,-1.18846 -0.22945,-0.131147 -0.31637,-0.170924 -0.44587,-0.204043 -0.28633,-0.07323 -0.2846,-0.07458 -0.2846,0.221584 0,0.3855 -0.0519,0.381474 -0.0594,-0.0046 -0.005,-0.262763 -0.005,-0.262763 -0.14341,-0.256891 -0.25508,0.01083 -0.61566,0.05911 -0.66039,0.08842 -0.16376,0.107297 -0.27485,0.257435 -0.38061,0.514396 -0.12681,0.308106 -0.25727,0.480971 -0.48686,0.645151 -0.0988,0.07065 -0.0988,0.07065 -0.007,0.104945 0.22883,0.08536 0.46523,0.501446 0.46523,0.818858 0,0.07549 0.003,0.07911 0.0599,0.08464 0.0797,0.0077 0.0871,0.07641 0.009,0.08537 -0.0615,0.0071 -0.0639,0.03703 -0.0124,0.15057 0.11336,0.249909 0.32318,0.29604 0.96279,0.21168 z m -0.74183,-0.422089 c -0.0179,-0.0216 -0.003,-0.03904 0.0838,-0.09681 0.0581,-0.03875 0.11651,-0.07857 0.12973,-0.08849 0.0585,-0.04387 0.0707,0.02532 0.0148,0.08413 -0.091,0.09576 -0.19471,0.141711 -0.22836,0.101164 z m 0.26578,-0.269497 c -0.007,-0.01059 0.003,-0.04153 0.0205,-0.06876 0.0178,-0.02723 0.0423,-0.08288 0.0543,-0.123656 0.0225,-0.07648 0.0695,-0.106655 0.0886,-0.05693 0.0344,0.08969 -0.1182,0.322539 -0.16344,0.249353 z m 0.10885,-0.339618 c -0.0244,-0.0636 0.019,-0.258856 0.0576,-0.258856 0.0329,0 0.0363,0.01056 0.0317,0.09715 -0.008,0.152047 -0.0582,0.242726 -0.0893,0.16171 z m 0.14076,-0.286268 c -0.0509,-0.07022 -0.0873,-0.104805 -0.1,-0.09504 -0.011,0.0084 -0.0648,0.05016 -0.11946,0.09271 -0.17529,0.136394 -0.29268,-0.02788 -0.13443,-0.188124 0.0957,-0.09688 0.0957,-0.09688 0.003,-0.187744 -0.11341,-0.111703 -0.11342,-0.11351 -8.3e-4,-0.218806 0.11201,-0.104777 0.11192,-0.104776 0.19739,-0.0025 0.0858,0.102679 0.0795,0.103059 0.21315,-0.01276 0.1105,-0.09573 0.1105,-0.09573 0.19031,-0.0046 0.082,0.0936 0.13119,0.169144 0.11757,0.180438 -0.004,0.0035 -0.0599,0.04138 -0.12361,0.08414 -0.1159,0.07774 -0.1159,0.07774 -0.0553,0.152258 0.14262,0.175417 0.14093,0.150828 0.0162,0.235537 -0.13437,0.09125 -0.10942,0.09558 -0.20436,-0.03547 z m 0.2162,-0.0501 c 0.003,-0.0082 -0.0324,-0.06041 -0.0781,-0.116062 -0.10287,-0.125408 -0.10447,-0.113162 0.0265,-0.202096 0.14134,-0.09598 0.1403,-0.093 0.0637,-0.182516 -0.0654,-0.07643 -0.0654,-0.07643 -0.17143,0.01577 -0.12848,0.111746 -0.11931,0.111373 -0.2232,0.0091 -0.0844,-0.08316 -0.0844,-0.08316 -0.14797,-0.0176 -0.0635,0.06556 -0.0635,0.06556 0.0342,0.159798 0.0978,0.09424 0.0978,0.09424 0.004,0.188747 -0.10295,0.104245 -0.10641,0.112868 -0.0641,0.159667 0.0276,0.03048 0.0358,0.02712 0.14199,-0.05848 0.138,-0.111205 0.11986,-0.112858 0.21586,0.01967 0.0779,0.107504 0.16664,0.118281 0.19805,0.02405 z m -1.8291,0.0489 c 0.10101,-0.03224 0.1898,-0.06922 0.19731,-0.08219 0.008,-0.01296 0.0802,-0.07146 0.16144,-0.129984 0.20244,-0.14576 0.3371,-0.336381 0.46165,-0.653529 0.0467,-0.118886 0.14274,-0.266579 0.23238,-0.357342 0.0873,-0.08842 0.0879,-0.08978 0.034,-0.07898 -0.23883,0.0478 -1.21566,0.141294 -1.4763,0.141294 -0.15094,0 -0.15094,0 -0.2015,0.207444 -0.0827,0.339436 -0.12886,0.340972 -0.15111,0.005 -0.0146,-0.220559 -0.0146,-0.220559 -0.18854,-0.243814 -0.20957,-0.02802 -0.32255,-0.06268 -0.47827,-0.146717 -0.14512,-0.07832 -0.12808,-0.132729 -0.13302,0.424699 -0.004,0.476741 -0.004,0.476741 0.14157,0.553175 0.0802,0.04204 0.19558,0.110045 0.25643,0.151124 0.43401,0.292985 0.71935,0.345314 1.14398,0.209789 z"
         id="path178-6" /></g><g
       id="g218"
       transform="translate(-80.319155,2.4334961)"><text
         xml:space="preserve"
         style="font-style:normal;font-variant:normal;font-weight:normal;font-stretch:normal;font-size:4.23333px;font-family:'Mononoki Nerd Font';-inkscape-font-specification:'Mononoki Nerd Font';text-align:start;writing-mode:lr-tb;direction:ltr;text-anchor:start;fill:#606060;fill-opacity:1;stroke:none;stroke-width:0.396875;stroke-dasharray:none;stroke-opacity:1;paint-order:markers stroke fill"
         x="102.99886"
         y="13.578026"
         id="text182"><tspan
           sodipodi:role="line"
           id="tspan182"
           style="font-style:italic;font-size:4.23333px;fill:#000000;fill-opacity:1;stroke-width:0.396875"
           x="102.99886"
           y="13.578026">More Tables: </tspan></text><text
         xml:space="preserve"
         style="font-style:normal;font-variant:normal;font-weight:normal;font-stretch:normal;font-size:3.52777px;font-family:'Mononoki Nerd Font';-inkscape-font-specification:'Mononoki Nerd Font';text-align:start;writing-mode:lr-tb;direction:ltr;text-anchor:start;fill:#000000;fill-opacity:1;stroke:#000000;stroke-width:0.396875;stroke-dasharray:none;stroke-opacity:1;paint-order:markers stroke fill"
         x="107.31748"
         y="18.457397"
         id="text151-1"><tspan
           sodipodi:role="line"
           style="stroke:none;stroke-width:0.396875"
           x="107.31748"
           y="18.457397"
           id="tspan164-2">Versions</tspan><tspan
           sodipodi:role="line"
           style="stroke:none;stroke-width:0.396875"
           x="107.31748"
           y="22.867109"
           id="tspan184">Protocols</tspan><tspan
           sodipodi:role="line"
           style="stroke:none;stroke-width:0.396875"
           x="107.31748"
           y="27.276823"
           id="tspan185">GroupedActivities</tspan><tspan
           sodipodi:role="line"
           style="stroke:none;stroke-width:0.396875"
           x="107.31748"
           y="31.686535"
           id="tspan186">TeamMembers</tspan><tspan
           sodipodi:role="line"
           style="stroke:none;stroke-width:0.396875"
           x="107.31748"
           y="36.096249"
           id="tspan191">N2kHabStrata</tspan><tspan
           sodipodi:role="line"
           style="stroke:none;stroke-width:0.396875"
           x="107.31748"
           y="40.505959"
           id="tspan192">Coordinates</tspan><tspan
           sodipodi:role="line"
           style="stroke:none;stroke-width:0.396875"
           x="107.31748"
           y="44.915672"
           id="tspan193">LocationInfos</tspan><tspan
           sodipodi:role="line"
           style="stroke:none;stroke-width:0.396875"
           x="107.31748"
           y="49.325386"
           id="tspan204">LocationJournals</tspan><tspan
           sodipodi:role="line"
           style="stroke:none;stroke-width:0.396875"
           x="107.31748"
           y="53.7351"
           id="tspan205">FreeFieldNotes</tspan><tspan
           sodipodi:role="line"
           style="stroke:none;stroke-width:0.396875"
           x="107.31748"
           y="58.14481"
           id="tspan206">FieldFollowUps</tspan><tspan
           sodipodi:role="line"
           style="stroke:none;stroke-width:0.396875"
           x="107.31748"
           y="62.554523"
           id="tspan207">LocationEvaluations</tspan><tspan
           sodipodi:role="line"
           style="stroke:none;stroke-width:0.396875"
           x="107.31748"
           y="66.964233"
           id="tspan209">ReplacementData</tspan></text></g></g></svg>
