<?xml version="1.0" encoding="UTF-8" standalone="no"?>
<!-- Created with Inkscape (http://www.inkscape.org/) -->

<svg
   width="128"
   height="128"
   viewBox="0 0 33.866666 33.866666"
   version="1.1"
   id="svg1"
   inkscape:version="1.4.4 (dcaf3e7d9e, 2026-05-05)"
   sodipodi:docname="beasts.svg"
   xml:space="preserve"
   xmlns:inkscape="http://www.inkscape.org/namespaces/inkscape"
   xmlns:sodipodi="http://sodipodi.sourceforge.net/DTD/sodipodi-0.dtd"
   xmlns="http://www.w3.org/2000/svg"
   xmlns:svg="http://www.w3.org/2000/svg"><sodipodi:namedview
     id="namedview1"
     pagecolor="#ffffff"
     bordercolor="#000000"
     borderopacity="0.25"
     inkscape:showpageshadow="2"
     inkscape:pageopacity="0.0"
     inkscape:pagecheckerboard="0"
     inkscape:deskcolor="#d1d1d1"
     inkscape:document-units="mm"
     inkscape:zoom="0.40578353"
     inkscape:cx="982.0507"
     inkscape:cy="33.26897"
     inkscape:window-width="1908"
     inkscape:window-height="1068"
     inkscape:window-x="1925"
     inkscape:window-y="5"
     inkscape:window-maximized="1"
     inkscape:current-layer="layer1"
     showgrid="false" /><defs
     id="defs1"><inkscape:path-effect
       effect="fill_between_many"
       method="originald"
       linkedpaths="#path11,0,1|"
       id="path-effect11" /></defs><g
     inkscape:label="Layer 1"
     inkscape:groupmode="layer"
     id="layer1"><path
       style="fill:none;stroke:#000000;stroke-width:0.529167;stroke-linejoin:round;stroke-miterlimit:3;stroke-dasharray:none;stroke-opacity:1;paint-order:markers stroke fill"
       d="M 0,33.602083 H 13.229167"
       id="path4" /><path
       style="fill:none;stroke:#000000;stroke-width:0.529167;stroke-linejoin:round;stroke-miterlimit:3;stroke-dasharray:none;stroke-opacity:1;paint-order:markers stroke fill"
       d="M 0.2645835,20.6375 V 33.866667"
       id="path5" /><g
       id="g12"
       transform="matrix(0.36204644,0,0,0.36204644,-57.077097,7.2087804)"><path
         inkscape:original-d="M 0,0"
         inkscape:path-effect="#path-effect11"
         d="m 214.93468,9.3213149 c -0.50873,0.00468 -1.05272,0.093777 -1.64383,0.265617 -1.76486,0.5130591 -3.30199,2.1013831 -4.45347,4.6007531 -0.44781,0.972022 -0.84407,1.806657 -0.88057,1.854667 -0.0364,0.04801 -0.37971,-0.118002 -0.76274,-0.36897 -0.59097,-0.387221 -0.79279,-0.404966 -1.33222,-0.116272 -0.62197,0.332871 -1.44863,1.941364 -1.46503,2.850472 -0.005,0.251717 -0.29965,-0.137281 -0.65577,-0.864547 -0.73055,-1.491936 -1.27151,-1.984891 -2.17765,-1.984891 -0.47746,0 -0.74364,0.263837 -1.1343,1.124479 -0.28073,0.618464 -0.51324,1.332839 -0.51624,1.5875 -0.0106,0.842694 -0.51674,0.481302 -1.19166,-0.850594 -0.36606,-0.72238 -0.89118,-1.434274 -1.16686,-1.581816 -0.77015,-0.412172 -1.80191,0.539436 -2.07326,1.911511 l -0.22117,1.116211 h -1.30793 -1.30845 l -0.31006,-1.39578 c -0.17044,-0.767551 -0.45588,-1.571223 -0.63407,-1.785938 -0.75614,-0.91109 -1.8014,-0.143632 -2.62826,1.929598 l -0.34468,0.865064 -0.60565,-1.306897 c -1.23933,-2.674956 -2.8634,-2.487279 -3.84576,0.444417 l -0.4191,1.249536 -1.59576,0.07751 -1.59629,0.07803 -0.16795,-1.049548 c -0.18993,-1.187767 -1.30413,-2.677873 -2.00246,-2.677873 -0.62757,0 -1.20558,0.685751 -1.90221,2.25826 l -0.58187,1.313615 -0.43202,-1.289843 c -0.51111,-1.525025 -1.58129,-2.570872 -2.40916,-2.354379 -0.71187,0.18616 -1.48779,1.437867 -1.71152,2.762106 l -0.17105,1.014408 h -1.65674 c -1.40502,0 -1.81368,-0.114797 -2.68873,-0.755509 -1.39295,-1.019916 -3.62229,-3.420258 -5.59449,-6.023922 -0.8954,-1.182099 -1.80116,-2.215808 -2.0128,-2.2970181 -1.32016,-0.506586 -2.1355,2.8327911 -1.40973,5.7738081 0.92988,3.768108 2.73445,6.623265 5.61671,8.888347 1.36935,1.076129 1.70687,1.487226 1.70687,2.077909 0,1.915168 1.79336,5.026739 4.39974,7.633126 l 1.68568,1.685685 v 3.679362 c 0,3.32689 0.0507,3.73061 0.52917,4.209045 0.48497,0.484976 0.88195,0.529167 4.7532,0.529167 3.95323,0 4.24217,-0.03392 4.50721,-0.529167 0.25748,-0.481087 0.55368,-0.529166 3.26337,-0.529166 3.04297,0 3.6158,-0.169449 3.6158,-1.070219 0,-0.239383 -0.23813,-0.650767 -0.52917,-0.914156 -0.42326,-0.383037 -0.52916,-0.815242 -0.52916,-2.158008 V 37.51856 h 5.55625 5.55625 v 3.027723 c 0,4.020914 -0.25266,3.851444 5.74125,3.851444 h 4.5651 l 0.43356,-0.661458 c 0.41954,-0.640298 0.52787,-0.661459 3.39256,-0.661459 3.05287,0 3.59461,-0.167722 3.59461,-1.11156 0,-0.261938 -0.26789,-0.743752 -0.59531,-1.070735 -0.54147,-0.540741 -0.60348,-0.889343 -0.68368,-3.857129 -0.0759,-2.807713 -0.0237,-3.334052 0.37207,-3.771346 0.44147,-0.487822 0.97147,-0.50798 13.22193,-0.50798 13.50908,0 15.85324,-0.170216 18.0945,-1.314131 1.96621,-1.003529 2.74883,-2.539247 2.62258,-5.14594 -0.0908,-1.874438 -0.0834,-1.898612 0.88677,-2.869592 1.52561,-1.52686 1.90053,-3.46597 1.03766,-5.365564 -0.59273,-1.304893 -1.83247,-2.390369 -3.14864,-2.755904 -0.59645,-0.165651 -4.9191,-0.273508 -10.97556,-0.274402 l -9.99112,-0.0015 -0.62063,-1.403532 c -1.56811,-3.545797 -4.35822,-4.9949641 -7.01095,-3.6416381 -0.9774,0.4986271 -1.02052,0.4992391 -1.74769,0.022221 -0.71075,-0.4662388 -1.46154,-0.6925208 -2.30942,-0.6847138 z"
         id="path12"
         style="fill:#00720c;fill-opacity:1" /><path
         id="path11"
         style="fill:#000000"
         d="m 214.93468,9.3213149 c -0.50873,0.00468 -1.05272,0.093777 -1.64383,0.265617 -1.76486,0.5130591 -3.30199,2.1013831 -4.45347,4.6007531 -0.44781,0.972022 -0.84407,1.806657 -0.88057,1.854667 -0.0364,0.04801 -0.37971,-0.118002 -0.76274,-0.36897 -0.59097,-0.387221 -0.79279,-0.404966 -1.33222,-0.116272 -0.62197,0.332871 -1.44863,1.941364 -1.46503,2.850472 -0.005,0.251717 -0.29965,-0.137281 -0.65577,-0.864547 -0.73055,-1.491936 -1.27151,-1.984891 -2.17765,-1.984891 -0.47746,0 -0.74364,0.263837 -1.1343,1.124479 -0.28073,0.618464 -0.51324,1.332839 -0.51624,1.5875 -0.0106,0.842694 -0.51674,0.481302 -1.19166,-0.850594 -0.36606,-0.72238 -0.89118,-1.434274 -1.16686,-1.581816 -0.77015,-0.412172 -1.80191,0.539436 -2.07326,1.911511 l -0.22117,1.116211 h -1.30793 -1.30845 l -0.31006,-1.39578 c -0.17044,-0.767551 -0.45588,-1.571223 -0.63407,-1.785938 -0.75614,-0.91109 -1.8014,-0.143632 -2.62826,1.929598 l -0.34468,0.865064 -0.60565,-1.306897 c -1.23933,-2.674956 -2.8634,-2.487279 -3.84576,0.444417 l -0.4191,1.249536 -1.59576,0.07751 -1.59629,0.07803 -0.16795,-1.049548 c -0.18993,-1.187767 -1.30413,-2.677873 -2.00246,-2.677873 -0.62757,0 -1.20558,0.685751 -1.90221,2.25826 l -0.58187,1.313615 -0.43202,-1.289843 c -0.51111,-1.525025 -1.58129,-2.570872 -2.40916,-2.354379 -0.71187,0.18616 -1.48779,1.437867 -1.71152,2.762106 l -0.17105,1.014408 h -1.65674 c -1.40502,0 -1.81368,-0.114797 -2.68873,-0.755509 -1.39295,-1.019916 -3.62229,-3.420258 -5.59449,-6.023922 -0.8954,-1.182099 -1.80116,-2.215808 -2.0128,-2.2970181 -1.32016,-0.506586 -2.1355,2.8327911 -1.40973,5.7738081 0.92988,3.768108 2.73445,6.623265 5.61671,8.888347 1.36935,1.076129 1.70687,1.487226 1.70687,2.077909 0,1.915168 1.79336,5.026739 4.39974,7.633126 l 1.68568,1.685685 v 3.679362 c 0,3.32689 0.0507,3.73061 0.52917,4.209045 0.48497,0.484976 0.88195,0.529167 4.7532,0.529167 3.95323,0 4.24217,-0.03392 4.50721,-0.529167 0.25748,-0.481087 0.55368,-0.529166 3.26337,-0.529166 3.04297,0 3.6158,-0.169449 3.6158,-1.070219 0,-0.239383 -0.23813,-0.650767 -0.52917,-0.914156 -0.42326,-0.383037 -0.52916,-0.815242 -0.52916,-2.158008 V 37.51856 h 5.55625 5.55625 v 3.027723 c 0,4.020914 -0.25266,3.851444 5.74125,3.851444 h 4.5651 l 0.43356,-0.661458 c 0.41954,-0.640298 0.52787,-0.661459 3.39256,-0.661459 3.05287,0 3.59461,-0.167722 3.59461,-1.11156 0,-0.261938 -0.26789,-0.743752 -0.59531,-1.070735 -0.54147,-0.540741 -0.60348,-0.889343 -0.68368,-3.857129 -0.0759,-2.807713 -0.0237,-3.334052 0.37207,-3.771346 0.44147,-0.487822 0.97147,-0.50798 13.22193,-0.50798 13.50908,0 15.85324,-0.170216 18.0945,-1.314131 1.96621,-1.003529 2.74883,-2.539247 2.62258,-5.14594 -0.0908,-1.874438 -0.0834,-1.898612 0.88677,-2.869592 1.52561,-1.52686 1.90053,-3.46597 1.03766,-5.365564 -0.59273,-1.304893 -1.83247,-2.390369 -3.14864,-2.755904 -0.59645,-0.165651 -4.9191,-0.273508 -10.97556,-0.274402 l -9.99112,-0.0015 -0.62063,-1.403532 c -1.56811,-3.545797 -4.35822,-4.9949641 -7.01095,-3.6416381 -0.9774,0.4986271 -1.02052,0.4992391 -1.74769,0.022221 -0.71075,-0.4662387 -1.46154,-0.6925207 -2.30942,-0.6847137 z m -0.28939,1.7042891 c 1.2197,-0.0025 2.32278,0.764982 2.65824,2.133203 0.23108,0.942531 0.85989,1.445847 0.85989,0.68833 0,-1.334325 1.57445,-2.78691 3.02049,-2.78691 1.22448,0 3.59409,2.704932 3.59409,4.102592 0,0.230693 0.28637,0.705462 0.63614,1.055233 l 0.63562,0.636137 9.22011,-0.158647 c 5.07088,-0.08728 9.92441,-0.07054 10.78591,0.03772 1.84227,0.23151 2.8492,1.047858 3.29799,2.673222 0.43978,1.592756 -0.22186,2.693978 -2.21847,3.692281 l -1.5875,0.79375 -10.53269,0.07751 c -10.96345,0.08077 -13.79727,-0.119047 -16.25431,-1.145666 -0.86254,-0.360418 -1.00288,-0.359822 -1.36994,0.0072 -0.89034,0.890347 0.73332,1.790784 4.50825,2.499073 1.62655,0.305191 1.81054,0.411649 2.57452,1.495516 1.0121,1.435873 1.79933,1.53523 2.79415,0.35295 0.37674,-0.447728 0.68522,-0.923979 0.68522,-1.058334 0,-0.618905 0.99727,-0.12098 1.65107,0.824239 0.98462,1.423506 1.79937,1.420749 2.74608,-0.0098 0.3852,-0.582083 0.83325,-1.053598 0.99581,-1.047998 0.16256,0.0056 0.53433,0.389538 0.8263,0.853695 0.29196,0.464158 0.86975,0.963238 1.28416,1.108976 0.66092,0.232434 0.82978,0.176397 1.37356,-0.455786 0.34096,-0.396386 0.74319,-0.929445 0.894,-1.184941 0.24406,-0.413483 0.3791,-0.340983 1.2268,0.659908 1.17649,1.389111 1.91753,1.457358 2.87321,0.264583 0.37893,-0.472942 0.79384,-0.990366 0.92191,-1.1498 0.12808,-0.159434 1.00059,-0.361448 1.9389,-0.449068 0.93832,-0.08762 1.87371,-0.195272 2.07843,-0.239262 0.26871,-0.05774 0.39276,0.250998 0.44596,1.110526 0.15136,2.443608 -1.48306,3.913839 -4.98109,4.481381 -1.02095,0.165645 -6.89569,0.277852 -14.61099,0.279052 l -12.90361,0.0021 -1.07383,0.677478 c -1.10863,0.699847 -4.31651,2.039814 -5.59656,2.337842 -0.7126,0.16591 -0.72761,0.144867 -0.72761,-1.043347 0,-1.16744 -0.0275,-1.210207 -0.7276,-1.129647 l -0.7276,0.08372 v 5.365564 5.366081 l -3.04271,-0.07441 -3.04271,-0.0739 v -4.813143 c 0,-5.093442 -0.15766,-5.819269 -1.13171,-5.20795 -0.32512,0.204048 -0.47867,0.715579 -0.53537,1.78387 l -0.0796,1.497066 -8.91626,-0.06925 -8.91625,-0.06976 -0.13229,-1.560629 c -0.15586,-1.83858 -0.79559,-2.531703 -1.48983,-1.614371 -0.33143,0.437968 -0.38573,1.361231 -0.31523,5.357812 l 0.0853,4.828646 h -2.71198 -2.71198 V 38.973769 35.13731 l -2.05052,-2.054138 c -2.28787,-2.291707 -3.70319,-4.650676 -4.16099,-6.936011 -0.24313,-1.2137 -0.44238,-1.553316 -1.20716,-2.057755 -3.56081,-2.348668 -6.35913,-7.310923 -6.02599,-10.685136 l 0.0832,-0.845427 1.37356,1.852084 c 1.44847,1.952377 4.36198,4.829679 5.74332,5.672005 0.78553,0.479007 1.6685,0.499927 20.79666,0.497127 15.3263,-0.0022 20.12521,-0.07894 20.61735,-0.329695 0.48281,-0.246001 0.72598,-0.700154 0.9834,-1.836581 0.47685,-2.105208 2.25163,-5.514072 3.39204,-6.515364 0.67502,-0.59267 1.44893,-0.87132 2.18075,-0.872815 z m -0.0434,1.377177 c -0.3707,0.01111 -0.76109,0.169799 -1.06247,0.502811 -0.44269,0.489177 -0.44515,0.56487 -0.0351,1.190625 0.24082,0.367531 0.634,0.668177 0.87385,0.668177 0.58138,0 1.40405,-0.768078 1.40405,-1.311031 0,-0.677714 -0.56245,-1.069092 -1.18029,-1.050582 z m 6.17585,0.03876 c -0.23581,7.95e-4 -0.46143,0.06593 -0.63355,0.208773 -0.47374,0.393204 -0.51458,1.357657 -0.076,1.796273 0.44044,0.440442 0.84797,0.397757 1.53893,-0.161748 0.43365,-0.351144 0.54318,-0.634289 0.40876,-1.057816 -0.1516,-0.47765 -0.71937,-0.787231 -1.23817,-0.785482 z m -47.23071,4.60437 c 0.14482,0.0021 0.29174,0.104271 0.41238,0.329696 0.15567,0.290871 0.28319,0.774777 0.28319,1.075386 0,0.406609 -0.16937,0.546737 -0.66146,0.546737 -0.55231,0 -0.66146,-0.125989 -0.66146,-0.761711 0,-0.715596 0.30876,-1.194781 0.62735,-1.190108 z m 4.94027,0.09974 c 0.002,-1.44e-4 0.004,0 0.005,0 0.26316,0 0.7755,1.500843 0.57929,1.697054 -0.25447,0.254471 -1.38958,0.175147 -1.38958,-0.09715 0,-0.413055 0.58995,-1.581671 0.80512,-1.599902 z m 7.66465,0 c 0.0884,0 0.19189,0.08819 0.36328,0.264583 0.2121,0.218281 0.42504,0.635001 0.47284,0.926042 0.0669,0.407307 -0.0807,0.548442 -0.64078,0.612882 -0.60934,0.07011 -0.72647,-0.01591 -0.72347,-0.529167 0.002,-0.337087 0.11673,-0.791476 0.25476,-1.009757 0.11154,-0.176389 0.18495,-0.264583 0.27337,-0.264583 z m 20.49642,0.16123 c 0.28226,0.0084 0.68402,1.321026 0.46354,1.541508 -0.22374,0.223741 -1.06963,0.179351 -1.22008,-0.06408 -0.16819,-0.272134 0.41827,-1.437642 0.74311,-1.476912 0.004,-5.34e-4 0.009,-6.5e-4 0.0134,-5.17e-4 z m -16.02796,0.111104 c 0.16091,9.37e-4 0.29094,0.282395 0.29094,0.785999 0,0.529166 -0.13229,0.79375 -0.39688,0.79375 -0.4154,0 -0.50825,-0.459864 -0.23616,-1.168921 0.10773,-0.280728 0.232,-0.411469 0.3421,-0.410828 z m 11.26288,0.02842 c 0.11573,-0.007 0.23121,0.167799 0.42323,0.526583 0.23498,0.438994 0.22243,0.612647 -0.0568,0.789616 -0.76284,0.483276 -1.20126,0.01003 -0.75809,-0.818038 0.17382,-0.324788 0.28299,-0.491584 0.39171,-0.498161 z m -4.61936,0.22841 c 0.28437,0 0.56074,0.788539 0.37931,1.082105 -0.16787,0.271605 -0.48548,0.313435 -0.7059,0.09302 -0.20061,-0.200608 0.0702,-1.175122 0.32659,-1.175122 z m -19.87372,3.487126 c -0.0648,-3.71e-4 -0.131,0.0189 -0.1974,0.05994 -0.32728,0.20227 -0.42692,2.856603 -0.11886,3.164664 0.51039,0.510396 1.00822,-0.02234 1.08262,-1.158069 0.0723,-1.104739 -0.313,-2.063942 -0.76636,-2.06654 z m 8.36228,0.08578 c -0.10888,0.005 -0.22713,0.06641 -0.35088,0.190169 -0.39615,0.39613 -0.40687,2.64979 -0.0145,3.042192 0.61082,0.61082 1.02629,0.05367 1.02629,-1.377177 0,-1.169224 -0.27209,-1.873055 -0.66094,-1.855184 z m 7.93698,0.26355 c -0.42438,0 -0.54611,0.204473 -0.61391,1.033012 -0.0465,0.568212 -0.0144,1.312351 0.0713,1.653645 0.0994,0.395886 0.35003,0.620634 0.69246,0.620634 0.49038,0 0.52986,-0.142714 0.45786,-1.653646 -0.0691,-1.451 -0.1434,-1.653645 -0.60772,-1.653645 z m -24.14271,0.167948 c -0.27531,0.001 -0.33125,0.266465 -0.33125,1.223698 0,0.714021 0.0819,1.379967 0.18191,1.480013 0.43667,0.436675 0.74414,-0.101608 0.74414,-1.302763 0,-1.025112 -0.0971,-1.316019 -0.46302,-1.386479 -0.0488,-0.0094 -0.0924,-0.01462 -0.13178,-0.01447 z m 32.60938,0.09663 c -0.44556,0 -0.54233,0.20374 -0.61133,1.289327 -0.0451,0.709114 -0.0154,1.462137 0.0656,1.673283 0.081,0.211148 0.3557,0.343685 0.61081,0.294555 0.38042,-0.07327 0.46406,-0.374145 0.46406,-1.673282 0,-1.407487 -0.0589,-1.583883 -0.52917,-1.583883 z m 23.53241,3.836458 c 0.22687,0 0.41238,0.119063 0.41238,0.264584 0,0.14552 -0.11214,0.264583 -0.24908,0.264583 -0.13693,0 -0.32248,-0.119063 -0.41238,-0.264583 -0.0899,-0.145521 0.0222,-0.264584 0.24908,-0.264584 z m 5.17488,0 c 0.14552,0 0.26458,0.119063 0.26458,0.264584 0,0.14552 -0.11906,0.264583 -0.26458,0.264583 -0.14552,0 -0.26458,-0.119063 -0.26458,-0.264583 0,-0.145521 0.11906,-0.264584 0.26458,-0.264584 z m 4.9103,0 c 0.22687,0 0.33898,0.119063 0.24908,0.264584 -0.0899,0.14552 -0.27545,0.264583 -0.41238,0.264583 -0.13693,0 -0.24908,-0.119063 -0.24908,-0.264583 0,-0.145521 0.18551,-0.264584 0.41238,-0.264584 z m 4.6147,0 c 0.29105,0 0.52917,0.119063 0.52917,0.264584 0,0.14552 -0.23812,0.264583 -0.52917,0.264583 -0.29104,0 -0.52917,-0.119063 -0.52917,-0.264583 0,-0.145521 0.23813,-0.264584 0.52917,-0.264584 z m -27.58281,8.739002 c 0.0363,-0.0044 0.0661,1.368954 0.0661,3.05201 0,1.683056 0.12325,3.2904 0.27389,3.571875 0.26312,0.491643 0.15877,0.512113 -2.6541,0.512113 -2.19133,0 -2.96186,-0.08873 -3.06286,-0.351916 -0.0742,-0.193418 -0.10028,-1.394622 -0.0579,-2.669605 l 0.077,-2.318204 2.64583,-0.894003 c 1.45521,-0.49177 2.67558,-0.89787 2.71198,-0.90227 z m -32.74219,3.167248 h 2.64583 2.64584 v 2.116667 2.116667 h -2.64584 -2.64583 v -2.116667 z" /><path
         style="fill:#000000"
         d="m 171.86113,43.868412 c -0.47844,-0.478435 -0.52917,-0.881945 -0.52917,-4.208835 v -3.679669 l -1.68542,-1.685418 c -2.60638,-2.606387 -4.4,-5.717941 -4.4,-7.633109 0,-0.590683 -0.33765,-1.001685 -1.707,-2.077814 -2.88226,-2.265082 -4.68654,-5.120591 -5.61642,-8.888699 -0.72577,-2.941017 0.0895,-6.2802851 1.40966,-5.7736991 0.21164,0.08121 1.1174,1.1148321 2.0128,2.2969311 1.9722,2.603664 4.20136,5.004017 5.59431,6.023933 0.87505,0.640712 1.2837,0.755545 2.68872,0.755545 h 1.65684 l 0.17137,-1.014359 c 0.22373,-1.324239 0.99918,-2.576082 1.71105,-2.762242 0.82787,-0.216493 1.8982,0.829491 2.40931,2.354516 l 0.43227,1.289793 0.58178,-1.31325 c 0.69663,-1.572509 1.2744,-2.258625 1.90197,-2.258625 0.69833,0 1.81279,1.490241 2.00272,2.678008 l 0.16783,1.049556 1.59617,-0.07784 1.59617,-0.07785 0.41867,-1.249433 c 0.98236,-2.931696 2.60672,-3.119408 3.84605,-0.444452 l 0.60542,1.306743 0.3449,-0.864762 c 0.82686,-2.07323 1.87223,-2.840671 2.62837,-1.929581 0.17819,0.214715 0.46345,1.018387 0.63389,1.785938 l 0.30991,1.395547 h 1.30836 1.30836 l 0.22074,-1.116242 c 0.27135,-1.372075 1.30344,-2.323314 2.07359,-1.911142 0.27568,0.147542 0.80074,0.859296 1.1668,1.581676 0.67492,1.331896 1.18105,1.693089 1.19162,0.850395 0.003,-0.254661 0.2355,-0.969036 0.51623,-1.5875 0.39066,-0.860642 0.65679,-1.124479 1.13425,-1.124479 0.90614,0 1.44704,0.493055 2.17759,1.984991 0.35612,0.727266 0.65121,1.116351 0.65576,0.864634 0.0164,-0.909108 0.84331,-2.517716 1.46528,-2.850587 0.53943,-0.288694 0.74111,-0.271116 1.33208,0.116105 0.38303,0.250968 0.72623,0.417027 0.76267,0.369019 0.0365,-0.04801 0.43266,-0.882578 0.88047,-1.8546 1.15148,-2.49937 2.689,-4.087564 4.45386,-4.6006231 1.57629,-0.458241 2.81566,-0.326817 3.95285,0.4191641 0.72717,0.477018 0.77067,0.476467 1.74807,-0.02216 2.65273,-1.353326 5.44263,0.09585 7.01074,3.641647 l 0.62059,1.403246 9.99135,0.0015 c 6.05646,8.94e-4 10.37888,0.1091 10.97533,0.274751 1.31617,0.365535 2.55618,1.450643 3.14891,2.755536 0.86287,1.899594 0.48777,3.838876 -1.03784,5.365736 -0.97019,0.97098 -0.97761,0.994983 -0.88681,2.869421 0.12625,2.606693 -0.65645,4.142461 -2.62266,5.14599 -2.24126,1.143915 -4.58554,1.314174 -18.09462,1.314174 -12.25046,0 -12.7805,0.02037 -13.22197,0.508192 -0.39574,0.437294 -0.4476,0.963397 -0.37173,3.77111 0.0802,2.967786 0.14201,3.316693 0.68348,3.857434 0.32742,0.326983 0.59531,0.808827 0.59531,1.070765 0,0.943838 -0.54149,1.11125 -3.59436,1.11125 -2.86469,0 -2.97323,0.02116 -3.39277,0.661458 l -0.4334,0.661458 h -4.56524 c -5.99391,0 -5.74131,0.169453 -5.74131,-3.851461 v -3.027705 h -5.55625 -5.55625 v 1.678784 c 0,1.342766 0.10591,1.774637 0.52917,2.157674 0.29104,0.263389 0.52916,0.674749 0.52916,0.914132 0,0.90077 -0.57251,1.070243 -3.61548,1.070243 -2.70969,0 -3.00621,0.04808 -3.26369,0.529167 -0.26504,0.495243 -0.55399,0.529166 -4.50722,0.529166 -3.87125,0 -4.26822,-0.04419 -4.75319,-0.529166 z m 6.39705,-5.886833 c -0.0705,-3.996581 -0.0162,-4.919991 0.31523,-5.357959 0.69424,-0.917332 1.33394,-0.224096 1.4898,1.614484 l 0.13229,1.560516 8.91638,0.06965 8.91638,0.06965 0.0795,-1.49747 c 0.0567,-1.068291 0.21007,-1.579446 0.53519,-1.783494 0.97405,-0.611319 1.13176,0.114386 1.13176,5.207828 v 4.813005 l 3.04271,0.07421 3.04271,0.07421 v -5.365876 -5.365876 l 0.7276,-0.08372 c 0.70014,-0.08056 0.72761,-0.03792 0.72761,1.12952 0,1.188214 0.015,1.209746 0.7276,1.043836 1.28005,-0.298028 4.48821,-1.63824 5.59684,-2.338087 l 1.07337,-0.677591 12.9037,-0.002 c 7.7153,-0.0012 13.59026,-0.113392 14.61121,-0.279037 3.49803,-0.567542 5.13218,-2.037857 4.98082,-4.481465 -0.0532,-0.859528 -0.17726,-1.168385 -0.44597,-1.11065 -0.20472,0.04399 -1.13993,0.151666 -2.07825,0.239287 -0.93831,0.08762 -1.81082,0.289758 -1.9389,0.449192 -0.12807,0.159434 -0.5429,0.676833 -0.92183,1.149775 -0.95568,1.192775 -1.69683,1.124528 -2.87332,-0.264583 -0.8477,-1.000891 -0.98251,-1.073423 -1.22657,-0.65994 -0.15081,0.255496 -0.55316,0.788854 -0.89412,1.18524 -0.54378,0.632183 -0.71246,0.688156 -1.37338,0.455722 -0.41441,-0.145738 -0.99235,-0.644745 -1.28431,-1.108903 -0.29197,-0.464157 -0.66386,-0.848509 -0.82642,-0.854115 -0.16256,-0.0056 -0.61074,0.466059 -0.99594,1.048142 -0.94671,1.430567 -1.76128,1.433546 -2.7459,0.01004 -0.6538,-0.945219 -1.65113,-1.442996 -1.65113,-0.824091 0,0.134355 -0.30824,0.610605 -0.68498,1.058333 -0.99482,1.18228 -1.78235,1.082769 -2.79445,-0.353104 -0.76398,-1.083867 -0.94768,-1.190607 -2.57423,-1.495798 -3.77493,-0.708289 -5.3989,-1.608297 -4.50856,-2.498644 0.36706,-0.367056 0.50765,-0.367818 1.37019,-0.0074 2.45704,1.026619 5.29091,1.226344 16.25436,1.145576 l 10.53246,-0.07759 1.5875,-0.79375 c 1.99661,-0.998303 2.65826,-2.09951 2.21848,-3.692266 -0.44879,-1.625364 -1.45568,-2.441446 -3.29795,-2.672956 -0.8615,-0.108262 -5.71527,-0.125429 -10.78615,-0.03815 l -9.21978,0.158692 -0.63595,-0.635947 c -0.34977,-0.349771 -0.63594,-0.824696 -0.63594,-1.055389 0,-1.39766 -2.36974,-4.102528 -3.59422,-4.102528 -1.44604,0 -3.02037,1.45271 -3.02037,2.787035 0,0.757517 -0.62869,0.254166 -0.85977,-0.688365 -0.53673,-2.189153 -3.03891,-2.840942 -4.83895,-1.26049 -1.14041,1.001292 -2.91517,4.410338 -3.39202,6.515546 -0.25742,1.136427 -0.50063,1.590644 -0.98344,1.836645 -0.49214,0.250754 -5.29118,0.327506 -20.61748,0.32974 -19.12816,0.0028 -20.01087,-0.01832 -20.7964,-0.497327 -1.38134,-0.842326 -4.29483,-3.719675 -5.7433,-5.672052 l -1.37385,-1.851793 -0.0834,0.8451 c -0.33314,3.374213 2.46566,8.336668 6.02647,10.685336 0.76478,0.504439 0.96402,0.844074 1.20715,2.057774 0.4578,2.285335 1.87288,4.64427 4.16075,6.935977 l 2.05052,2.053958 v 3.836459 3.836458 l 2.71198,1.47e-4 2.71198,1.46e-4 z m 23.35195,-13.243377 c -0.081,-0.211146 -0.11043,-0.964086 -0.0653,-1.6732 0.069,-1.085587 0.16558,-1.289299 0.61114,-1.289299 0.47024,0 0.52917,0.176389 0.52917,1.583876 0,1.299137 -0.0834,1.599935 -0.46382,1.673201 -0.25511,0.04913 -0.53012,-0.08343 -0.61114,-0.294578 z m -16.22301,-0.257967 c -0.3924,-0.392402 -0.38175,-2.646065 0.0144,-3.042195 0.56574,-0.56574 1.01171,0.168062 1.01171,1.664669 0,1.430843 -0.41527,1.988346 -1.02609,1.377526 z m 7.7596,-0.282357 c -0.0857,-0.341294 -0.1177,-1.085434 -0.0712,-1.653646 0.0678,-0.828538 0.18934,-1.033113 0.61372,-1.033113 0.46432,0 0.53882,0.202646 0.60794,1.653646 0.072,1.510932 0.0324,1.653646 -0.45798,1.653646 -0.34243,0 -0.59313,-0.224647 -0.69249,-0.620533 z m -23.74952,0.185073 c -0.10005,-0.100046 -0.18191,-0.7661 -0.18191,-1.480121 0,-1.09398 0.0729,-1.284191 0.46303,-1.20905 0.36589,0.07046 0.46302,0.361302 0.46302,1.386414 0,1.201155 -0.30747,1.739432 -0.74414,1.302757 z m 7.67655,0.0036 c -0.30806,-0.308061 -0.2081,-2.962586 0.11918,-3.164856 0.53127,-0.32834 1.04633,0.744243 0.96369,2.006802 -0.0744,1.135732 -0.57248,1.66845 -1.08287,1.158054 z m 36.43048,-10.290579 c -0.41001,-0.625755 -0.40779,-0.701448 0.0349,-1.190625 0.80366,-0.888032 2.24282,-0.536486 2.24282,0.547856 0,0.542953 -0.82241,1.311007 -1.40379,1.311007 -0.23985,0 -0.63312,-0.300707 -0.87394,-0.668238 z m 6.56398,0.350738 c -0.43861,-0.438616 -0.39784,-1.403111 0.0759,-1.796315 0.55079,-0.45711 1.65099,-0.118111 1.8715,0.576652 0.13442,0.423527 0.0251,0.706574 -0.40855,1.057718 -0.69096,0.559505 -1.09845,0.602387 -1.53889,0.161945 z m -34.71333,25.188368 v -2.116666 h -2.64584 -2.64583 v 2.116666 2.116667 h 2.64583 2.64584 z m 27.79056,1.340311 c -0.15064,-0.281475 -0.27389,-1.888819 -0.27389,-3.571875 0,-1.683056 -0.0298,-3.056535 -0.0661,-3.052175 -0.0364,0.0044 -1.25677,0.410285 -2.71198,0.902055 l -2.64583,0.894129 -0.0771,2.31815 c -0.0424,1.274983 -0.0164,2.476402 0.0578,2.66982 0.101,0.263188 0.87165,0.351669 3.06298,0.351669 2.81287,0 2.91726,-0.02013 2.65414,-0.511773 z m 12.95527,-15.098644 c 0,-0.145521 -0.18562,-0.264584 -0.41249,-0.264584 -0.22687,0 -0.3389,0.119063 -0.24897,0.264584 0.0899,0.14552 0.27556,0.264583 0.41249,0.264583 0.13694,0 0.24897,-0.119063 0.24897,-0.264583 z m 5.02709,0 c 0,-0.145521 -0.11907,-0.264584 -0.26459,-0.264584 -0.14552,0 -0.26458,0.119063 -0.26458,0.264584 0,0.14552 0.11906,0.264583 0.26458,0.264583 0.14552,0 0.26459,-0.119063 0.26459,-0.264583 z m 4.89479,0 c 0.0899,-0.145521 -0.0221,-0.264584 -0.24897,-0.264584 -0.22687,0 -0.41249,0.119063 -0.41249,0.264584 0,0.14552 0.11204,0.264583 0.24897,0.264583 0.13693,0 0.32255,-0.119063 0.41249,-0.264583 z m 4.89479,0 c 0,-0.145521 -0.23812,-0.264584 -0.52917,-0.264584 -0.29104,0 -0.52916,0.119063 -0.52916,0.264584 0,0.14552 0.23812,0.264583 0.52916,0.264583 0.29105,0 0.52917,-0.119063 0.52917,-0.264583 z m -66.675,-7.425728 c 0,-0.300609 -0.12737,-0.784546 -0.28304,-1.075417 -0.38606,-0.721358 -1.03988,-0.180243 -1.03988,0.860624 0,0.635722 0.10915,0.761354 0.66146,0.761354 0.49209,0 0.66146,-0.139952 0.66146,-0.546561 z m 4.82909,0.391776 c 0.19621,-0.196211 -0.31601,-1.697299 -0.57917,-1.697299 -0.21085,0 -0.81034,1.183643 -0.81034,1.59995 0,0.272299 1.13504,0.35182 1.38951,0.09735 z m 7.91625,-0.506674 c -0.0478,-0.291041 -0.26049,-0.70776 -0.47259,-0.926041 -0.34279,-0.352778 -0.41352,-0.352778 -0.6366,0 -0.13803,0.218281 -0.25279,0.672674 -0.25502,1.009761 -0.003,0.513262 0.11422,0.599278 0.72356,0.529167 0.56004,-0.06444 0.70758,-0.20558 0.64065,-0.612887 z m 3.92341,-0.132291 c 0,-0.848175 -0.36798,-1.066258 -0.63315,-0.375236 -0.27209,0.709057 -0.17913,1.168986 0.23627,1.168986 0.26459,0 0.39688,-0.264584 0.39688,-0.79375 z m 6.73212,0.553043 c 0.18143,-0.293566 -0.0952,-1.08221 -0.37957,-1.08221 -0.25635,0 -0.52716,0.974696 -0.32655,1.175304 0.22042,0.220418 0.53825,0.178515 0.70612,-0.09309 z m 4.60613,0.0057 c 0.27928,-0.176969 0.29178,-0.350705 0.0568,-0.789699 -0.37239,-0.695825 -0.45583,-0.698711 -0.81468,-0.02818 -0.44317,0.828072 -0.005,1.301155 0.75784,0.817879 z m 4.86217,0.08596 c 0.22398,-0.223982 -0.19405,-1.575253 -0.47675,-1.541075 -0.32484,0.03927 -0.91115,1.204761 -0.74296,1.476895 0.15045,0.24343 0.99597,0.287921 1.21971,0.06418 z"
         id="path10" /></g></g></svg>
