<?xml version="1.0" encoding="UTF-8" standalone="no"?>
<!-- Created with Inkscape (http://www.inkscape.org/) -->

<svg
   width="128"
   height="128"
   viewBox="0 0 33.866666 33.866666"
   version="1.1"
   id="svg1"
   inkscape:version="1.4.4 (dcaf3e7d9e, 2026-05-05)"
   sodipodi:docname="brug.svg"
   xml:space="preserve"
   xmlns:inkscape="http://www.inkscape.org/namespaces/inkscape"
   xmlns:sodipodi="http://sodipodi.sourceforge.net/DTD/sodipodi-0.dtd"
   xmlns="http://www.w3.org/2000/svg"
   xmlns:svg="http://www.w3.org/2000/svg"><sodipodi:namedview
     id="namedview1"
     pagecolor="#ffffff"
     bordercolor="#000000"
     borderopacity="0.25"
     inkscape:showpageshadow="2"
     inkscape:pageopacity="0.0"
     inkscape:pagecheckerboard="0"
     inkscape:deskcolor="#d1d1d1"
     inkscape:document-units="mm"
     inkscape:zoom="0.81156706"
     inkscape:cx="397.37936"
     inkscape:cy="561.25984"
     inkscape:window-width="1908"
     inkscape:window-height="1164"
     inkscape:window-x="5"
     inkscape:window-y="29"
     inkscape:window-maximized="1"
     inkscape:current-layer="layer1" /><defs
     id="defs1" /><g
     inkscape:label="Layer 1"
     inkscape:groupmode="layer"
     id="layer1"><path
       style="fill:#000000;stroke-width:0.351732"
       d="M 0.12659,26.297433 C -0.006304,26.150589 -0.023602,26.06911 0.0525,25.948451 0.14345,25.804238 0.577267,25.789022 5.2257091,25.766982 l 5.0739329,-0.02406 0.156577,-0.627382 c 0.792281,-3.174498 3.968084,-5.360037 7.195623,-4.951922 0.98776,0.1249 1.614294,0.31919 2.48346,0.770133 0.893766,0.463702 1.993155,1.506072 2.496755,2.367261 0.315919,0.540247 0.726567,1.5925 0.853395,2.186773 l 0.05445,0.25513 5.083473,0.02406 c 4.657402,0.02205 5.091795,0.03725 5.182753,0.181473 0.07613,0.120708 0.05869,0.202257 -0.07478,0.349745 -0.172528,0.190639 -0.220427,0.192123 -5.436693,0.168308 l -5.262628,-0.02402 -0.109386,-0.232657 c -0.06016,-0.12796 -0.175862,-0.515685 -0.25712,-0.861607 -0.485308,-2.066052 -1.944777,-3.577211 -4.107615,-4.25309 -0.864695,-0.270215 -2.331803,-0.280169 -3.210659,-0.02177 -2.206583,0.648739 -3.799365,2.345831 -4.246839,4.524961 -0.07559,0.368113 -0.2027,0.7093 -0.288495,0.774374 -0.118435,0.08983 -1.3330656,0.116329 -5.3326599,0.116329 -5.1101961,0 -5.1816051,-0.0025 -5.3526631,-0.191575 z M 0.16152,24.446962 C -0.035709,24.287254 -0.04099,24.257266 0.0845,24.009579 0.302725,23.578865 2.5790306,21.370717 3.4193012,20.774632 7.3366445,17.99569 11.840868,16.605806 16.929307,16.605806 c 5.373315,0 10.322135,1.630737 14.096791,4.645185 0.967401,0.772569 2.513969,2.335447 2.752946,2.781975 0.11909,0.222523 0.111921,0.257007 -0.08688,0.417985 -0.123936,0.100356 -0.268354,0.145866 -0.33742,0.106332 -0.06641,-0.03802 -0.433862,-0.427862 -0.816551,-0.866321 -2.26604,-2.596278 -5.947831,-4.710259 -9.858793,-5.66064 -2.09818,-0.509864 -3.037537,-0.609422 -5.750095,-0.609422 -2.71256,0 -3.651918,0.09956 -5.750094,0.609422 C 9.143208,18.525079 7.3518774,19.237373 5.5489742,20.269094 3.9298234,21.195663 1.9041989,22.87107 1.0245143,24.011306 0.559428,24.614144 0.441499,24.673675 0.161518,24.446962 Z M 0.06156,21.588981 C -0.046024,21.352859 -0.02258,21.315804 0.59866403,20.739994 1.3588888,20.035372 2.7954412,18.940817 3.6071726,18.447716 L 4.177633,18.101179 4.201948,14.364369 4.226263,10.62756 5.3430135,10.064827 C 8.9981608,8.2229923 12.643034,7.3776453 16.929302,7.3776453 c 4.295504,0 7.921078,0.840919 11.586285,2.6873317 l 1.116751,0.562583 0.0243,3.73393 0.0243,3.733931 0.693902,0.43249 c 1.289085,0.803447 3.49182,2.637802 3.49182,2.907852 0,0.140186 -0.261439,0.400116 -0.402438,0.400116 -0.06048,0 -0.4435,-0.299989 -0.851161,-0.666645 -4.062454,-3.653789 -9.621311,-5.659815 -15.683786,-5.659815 -6.054722,0 -11.6265294,2.010701 -15.6837862,5.659815 -0.40766377,0.366656 -0.8155148,0.666645 -0.9063348,0.666645 -0.09082,0 -0.215752,-0.111105 -0.277623,-0.246898 z m 6.7949125,-8.120086 c 0.01345,-1.796208 -0.00749,-3.265067 -0.046531,-3.26413 -0.039043,9.5e-4 -0.4688299,0.199858 -0.9550817,0.442047 l -0.8840943,0.440344 -0.024449,3.274673 -0.024449,3.274672 0.955075,-0.450886 0.9550753,-0.450889 z M 28.89321,11.160632 c -0.04313,-0.11239 -1.297985,-0.778985 -1.703754,-0.905056 l -0.20939,-0.06506 v 3.26565 3.265651 l 0.953892,0.445402 0.953891,0.445406 0.02452,-3.169102 c 0.01347,-1.743006 0.0049,-3.220308 -0.01917,-3.282895 z M 9.0887901,15.929375 9.6704321,15.757346 V 12.46836 c 0,-1.808942 -0.03141,-3.2886656 -0.0698,-3.2882746 -0.1176224,0.0012 -1.1631648,0.337626 -1.582063,0.509066 l -0.3955161,0.16187 v 3.2315736 c 0,1.777366 0.024783,3.256358 0.055073,3.286649 0.030291,0.03028 0.2292114,-0.01759 0.4420468,-0.106385 0.2128368,-0.0888 0.6487142,-0.238868 0.9686153,-0.333484 z M 26.235565,13.092614 V 9.8510214 l -0.395516,-0.16187 c -0.418896,-0.17144 -1.464438,-0.507868 -1.582061,-0.509066 -0.03839,-3.87e-4 -0.0698,1.4798626 -0.0698,3.2894526 v 3.290165 l 0.674704,0.204388 c 0.371084,0.112413 0.800335,0.259262 0.953891,0.326327 0.153552,0.06706 0.310594,0.104355 0.348982,0.08286 0.03839,-0.02149 0.0698,-1.49779 0.0698,-3.280664 z m -14.610819,2.197168 0.791032,-0.200936 V 11.831657 8.5744673 l -0.300678,0.01353 c -0.165371,0.0074 -0.615564,0.08358 -1.000422,0.169207 L 10.41493,8.9128834 v 3.2973726 3.297372 l 0.209394,-0.0085 c 0.115164,-0.0046 0.565353,-0.09888 1.000422,-0.209391 z M 23.443688,12.214004 V 8.9203814 L 22.769829,8.7682043 c -0.370624,-0.0837 -0.831285,-0.17735 -1.023689,-0.208116 l -0.349826,-0.05594 v 3.2635907 c 0,2.350647 0.02979,3.282011 0.106543,3.329439 0.131196,0.08108 1.444073,0.383789 1.731442,0.399212 l 0.209389,0.01124 z M 15.16112,11.480709 V 8.1345533 l -0.395516,0.05455 c -0.217532,0.03001 -0.657254,0.08205 -0.977155,0.11565 l -0.581642,0.06109 V 11.680822 14.9958 l 0.977158,-0.08447 0.977155,-0.08447 z m 5.490692,0.223374 V 8.3658523 l -0.581639,-0.061094 c -0.319904,-0.033601 -0.759626,-0.085644 -0.977159,-0.11565 l -0.395516,-0.05455 v 3.3481267 3.348128 l 0.953892,0.09122 c 0.52464,0.05017 0.964362,0.09776 0.977158,0.105754 0.0128,0.008 0.02325,-1.487675 0.02325,-3.323703 z m -2.698815,-0.23472 c 0,-2.9176317 -0.01681,-3.3002137 -0.147204,-3.3502517 -0.191202,-0.07337 -1.561766,-0.07337 -1.752964,0 -0.130398,0.05004 -0.147207,0.43262 -0.147207,3.3502517 v 3.293764 h 1.023689 1.023686 z"
       id="path1" /><path
       style="fill:none;stroke:#000000;stroke-width:0.529167;stroke-linejoin:round;stroke-miterlimit:3;stroke-dasharray:none;stroke-opacity:1;paint-order:markers stroke fill"
       d="M 0,33.602083 H 13.229167"
       id="path4" /><path
       style="fill:none;stroke:#000000;stroke-width:0.529167;stroke-linejoin:round;stroke-miterlimit:3;stroke-dasharray:none;stroke-opacity:1;paint-order:markers stroke fill"
       d="M 0.2645835,20.6375 V 33.866667"
       id="path5" /></g></svg>
