<?xml version="1.0" encoding="UTF-8" standalone="no"?>
<!-- Created with Inkscape (http://www.inkscape.org/) -->

<svg
   width="128"
   height="128"
   viewBox="0 0 33.866666 33.866666"
   version="1.1"
   id="svg1"
   inkscape:version="1.4.4 (dcaf3e7d9e, 2026-05-05)"
   sodipodi:docname="climbing.svg"
   xml:space="preserve"
   xmlns:inkscape="http://www.inkscape.org/namespaces/inkscape"
   xmlns:sodipodi="http://sodipodi.sourceforge.net/DTD/sodipodi-0.dtd"
   xmlns="http://www.w3.org/2000/svg"
   xmlns:svg="http://www.w3.org/2000/svg"><sodipodi:namedview
     id="namedview1"
     pagecolor="#ffffff"
     bordercolor="#000000"
     borderopacity="0.25"
     inkscape:showpageshadow="2"
     inkscape:pageopacity="0.0"
     inkscape:pagecheckerboard="0"
     inkscape:deskcolor="#d1d1d1"
     inkscape:document-units="mm"
     inkscape:zoom="0.57386457"
     inkscape:cx="694.41471"
     inkscape:cy="101.94043"
     inkscape:window-width="1908"
     inkscape:window-height="1068"
     inkscape:window-x="1925"
     inkscape:window-y="5"
     inkscape:window-maximized="1"
     inkscape:current-layer="layer1"
     showgrid="false" /><defs
     id="defs1"><inkscape:path-effect
       effect="fill_between_many"
       method="originald"
       linkedpaths="#path11,0,1|"
       id="path-effect11" /></defs><g
     inkscape:label="Layer 1"
     inkscape:groupmode="layer"
     id="layer1"><path
       style="fill:none;stroke:#000000;stroke-width:0.529167;stroke-linejoin:round;stroke-miterlimit:3;stroke-dasharray:none;stroke-opacity:1;paint-order:markers stroke fill"
       d="M 0,33.602083 H 13.229167"
       id="path4" /><path
       style="fill:none;stroke:#000000;stroke-width:0.529167;stroke-linejoin:round;stroke-miterlimit:3;stroke-dasharray:none;stroke-opacity:1;paint-order:markers stroke fill"
       d="M 0.2645835,20.6375 V 33.866667"
       id="path5" /><path
       style="fill:#000000;stroke-width:0.352031"
       d="m 5.2554258,33.763083 c -0.14483,-0.105905 -0.15587,-0.225431 -0.0982,-1.062979 0.0358,-0.519011 0.0943,-0.991126 0.13019,-1.049146 0.0359,-0.05802 0.42455,-0.228512 0.86375,-0.378872 0.43921,-0.15036 1.02236,-0.372306 1.29589,-0.493213 l 0.49733,-0.219832 -0.66561,-0.337157 c -1.10601,-0.56024 -1.05751,-0.403493 -1.05751,-3.417703 v -2.582322 l -1.36372,-2.352037 c -1.31905,-2.274962 -1.3652,-2.372412 -1.40822,-2.973747 -0.0493,-0.688967 -0.0813,-0.553141 1.04104,-4.419007 0.38434,-1.32388 0.80809,-2.593533 0.94166,-2.821451 0.26274,-0.448337 0.81435,-0.89921 1.28559,-1.050824 0.25033,-0.08054 4.5292402,-0.566557 4.9879702,-0.566557 0.0848,0 0.86593,-0.510745 1.73585,-1.134989 1.6632,-1.1934817 2.04361,-1.3913997 2.5244,-1.3133767 l 0.29459,0.0478 0.2094,-0.918683 c 0.11516,-0.505276 0.31877,-1.542949 0.45247,-2.305941 0.27636,-1.577226 0.33894,-1.67712 0.88758,-1.416777 0.28434,0.134931 0.39478,0.143724 0.6689,0.05326 0.31078,-0.102567 0.46339,-0.30925 0.63171,-0.855499 0.0475,-0.154304 2.9328,-2.10909097 3.23073,-2.18886097 0.0804,-0.0215 0.20037,0.0261 0.26654,0.10584 0.25668,0.30928 0.0301,0.54867 -1.39181,1.47072997 -1.23036,0.797818 -1.41215,0.948533 -1.5452,1.281037 -0.26125,0.652954 -1.002,1.0913 -1.63141,0.965417 -0.1477,-0.02954 -0.26854,-0.01555 -0.26854,0.03109 0,0.239192 -0.41853,2.355223 -0.65192,3.296022 -0.18202,0.733706 -0.25022,1.199421 -0.21457,1.465217 0.0723,0.5391117 -0.0975,0.8855637 -0.65886,1.3445667 -0.26246,0.214582 -0.48719,0.39518 -0.4994,0.401329 -0.0122,0.0061 -0.0693,0.762616 -0.12686,1.681038 -0.0581,0.926777 -0.1509,1.726921 -0.20856,1.798089 -0.0571,0.07053 -0.31105,0.267724 -0.56422,0.438219 l -0.46031,0.309991 -0.43748,1.35034 c -0.40926,1.263268 -0.45054,1.484255 -0.64016,3.427144 -0.11147,1.142242 -0.22648,2.270115 -0.25557,2.506385 l -0.0529,0.429581 0.46411,0.0446 c 0.57909,0.05564 1.01425,0.353854 1.23463,0.846087 0.1319,0.294615 0.14601,0.428963 0.0684,0.651483 -0.0853,0.244698 -0.29093,0.373313 -1.61786,1.011894 -0.83607,0.402361 -1.63668,0.730634 -1.77912,0.729495 -0.28926,-0.0023 -0.60322,-0.220062 -0.76037,-0.527368 -0.0697,-0.136314 -0.10404,-1.114186 -0.10404,-2.963513 0,-2.58517 -0.0103,-2.756969 -0.16301,-2.711169 -0.0897,0.0269 -0.5402102,0.140307 -1.0012602,0.252027 -0.46105,0.111721 -0.86711,0.22876 -0.90236,0.260087 -0.0353,0.03133 0.0996,0.874274 0.29959,1.873214 0.41609,2.07798 0.42112,2.182645 0.22359,4.65401 l -0.14633,1.830736 0.36916,0.369154 c 0.20678,0.206779 0.41983,0.538306 0.48437,0.753717 0.21302,0.711024 -0.0958,1.444198 -0.66061,1.568248 -0.15606,0.03428 -0.62708,0.221546 -1.0467,0.416154 -0.41963,0.194609 -1.04081,0.446165 -1.3804,0.559015 l -0.61744,0.20518 -0.0642,0.736089 c -0.0792,0.908087 -0.26874,1.171684 -0.64475,0.896742 z m 3.71933,-3.829151 c 0.0785,-0.312948 -0.17127,-0.744889 -0.57518,-0.994519 l -0.34103,-0.210772 0.0533,-0.799489 c 0.0293,-0.439719 0.10537,-1.532978 0.16897,-2.429462 l 0.11563,-1.629973 -0.42631,-2.142249 c -0.27657,-1.389778 -0.39771,-2.195771 -0.34488,-2.294623 0.0554,-0.103609 0.60112,-0.28092 1.70529,-0.554044 1.3677502,-0.338321 1.6472402,-0.382267 1.7721002,-0.278643 0.12996,0.107859 0.14823,0.494168 0.14823,3.133217 0,2.161734 0.0301,3.028782 0.10673,3.07615 0.11295,0.06981 2.68751,-1.162551 2.68751,-1.28643 0,-0.03988 -0.0886,-0.161108 -0.19687,-0.26939 -0.16764,-0.16764 -0.26463,-0.187889 -0.65313,-0.136354 -0.25094,0.03329 -0.51548,0.08326 -0.58789,0.11104 -0.0754,0.02894 -0.18954,-0.04213 -0.26717,-0.166355 -0.12025,-0.192422 -0.10446,-0.525934 0.14001,-2.958206 0.2058,-2.047586 0.25042,-2.796445 0.17631,-2.959106 -0.16179,-0.355078 -0.45514,-0.404641 -1.51542,-0.256036 -3.0641202,0.429455 -3.2431602,0.434077 -3.2431602,0.08374 0,-0.291995 0.95852,-4.099173 1.05865,-4.204867 0.0581,-0.06132 0.82815,-0.237726 1.7112602,-0.392015 0.8831,-0.154289 1.68881,-0.325034 1.79045,-0.379433 0.10165,-0.0544 0.42695,-0.299555 0.72289,-0.544789 0.29594,-0.245235 1.04104,-0.836556 1.65577,-1.314046 0.61473,-0.477491 1.17009,-0.933647 1.23412,-1.01368 0.30109,-0.376309 -0.0536,-0.9274207 -0.49012,-0.7614707 -0.11626,0.0442 -0.89705,0.5724947 -1.7351,1.1739847 -0.83804,0.60149 -1.6285,1.127497 -1.75657,1.168904 -0.12806,0.04141 -1.29782,0.182979 -2.5994502,0.314602 -1.30163,0.131623 -2.49682,0.293724 -2.65598,0.360225 -0.36578,0.152831 -0.84246,0.690817 -0.97054,1.095368 -0.0932,0.294408 -0.82129,2.795351 -1.43122,4.916274 -0.43539,1.513977 -0.44372,1.483552 1.16993,4.273482 l 1.36449,2.359167 v 2.5997 2.599699 l 0.90813,0.461853 c 0.49947,0.254019 0.93876,0.463994 0.97621,0.466613 0.0375,0.0026 0.0933,-0.09551 0.12401,-0.218062 z M 10.489596,16.236849 c 1.67314,-0.227168 2.0756,-0.220142 2.39115,0.04175 0.0946,0.07847 0.15327,0.01215 0.26452,-0.298797 0.16814,-0.469932 0.39529,-1.229323 0.47153,-1.576335 0.0369,-0.168215 0.22592,-0.356664 0.60151,-0.599852 l 0.54763,-0.354585 0.0587,-0.694894 c 0.0323,-0.382191 0.0587,-0.919413 0.0587,-1.193827 v -0.498933 l -0.93649,0.746078 c -0.51508,0.410342 -1.04948,0.803463 -1.18756,0.873602 -0.13807,0.07014 -0.9249,0.243423 -1.7485,0.385074 l -1.4974502,0.257548 -0.35296,1.451636 c -0.19412,0.7984 -0.3735,1.505195 -0.39862,1.570655 -0.0565,0.147132 -0.24927,0.15931 1.7277602,-0.109116 z m 1.08757,17.180675 c -0.0375,-0.118311 0.1331,-0.657583 0.47133,-1.489438 l 0.53018,-1.30398 1.76887,-1.095233 c 0.97288,-0.602378 1.78278,-1.137146 1.79979,-1.188374 0.017,-0.05123 0.15663,-1.46948 0.31028,-3.151671 0.15364,-1.682192 0.32559,-3.114242 0.3821,-3.182333 0.0565,-0.06809 0.65587,-0.44884 1.3319,-0.846106 0.67604,-0.397266 1.28194,-0.769395 1.34646,-0.826951 0.0645,-0.05756 0.24071,-0.790889 0.39154,-1.629627 0.15512,-0.862656 0.33226,-1.583021 0.40786,-1.658622 0.15148,-0.15147 0.48286,-0.08441 0.55863,0.113039 0.0715,0.18627 -0.54138,3.48599 -0.67206,3.618456 -0.061,0.06188 -0.70614,0.468988 -1.43355,0.904679 l -1.32255,0.792168 -0.281,3.138432 c -0.15454,1.726138 -0.3229,3.180004 -0.37413,3.230814 -0.0512,0.05081 -0.88698,0.587287 -1.85723,1.192172 l -1.76408,1.099788 -0.44468,1.104127 c -0.24457,0.607269 -0.49323,1.162624 -0.55257,1.234122 -0.16254,0.195847 -0.52811,0.16189 -0.59709,-0.05546 z m 11.41326,-1.160617 c -0.20792,-0.250521 -0.0539,-0.454705 0.80661,-1.069169 0.47124,-0.336517 0.85843,-0.632805 0.8604,-0.658419 0.002,-0.02561 -0.60365,-0.732512 -1.34584,-1.570886 -0.74219,-0.838373 -1.3488,-1.571861 -1.34801,-1.629972 0.002,-0.194491 0.13325,-0.306006 1.0697,-0.913168 l 0.93141,-0.6039 0.46571,-1.745143 c 0.25613,-0.959829 0.48666,-1.779101 0.51227,-1.820605 0.0256,-0.0415 0.86389,-0.520043 1.86283,-1.063419 l 1.81625,-0.987957 0.55051,-2.02764 c 0.30278,-1.115201 0.58718,-2.100987 0.63199,-2.190636 0.16072,-0.321557 0.63605,-0.132268 0.63149,0.251482 -0.001,0.105017 -0.26751,1.154952 -0.5917,2.333189 l -0.58945,2.14225 -1.74357,0.941488 c -0.95897,0.517818 -1.79822,0.999824 -1.86501,1.071124 -0.0668,0.0713 -0.32036,0.863125 -0.56349,1.75961 -0.24313,0.896485 -0.47589,1.692842 -0.51724,1.769684 -0.0414,0.07684 -0.41155,0.34928 -0.82265,0.605418 -0.41109,0.256139 -0.74936,0.499819 -0.75169,0.541511 -0.002,0.04169 0.57207,0.725118 1.27646,1.518725 0.9586,1.08003 1.28069,1.504842 1.28069,1.689131 0,0.207243 -0.16953,0.368164 -1.07112,1.016767 -0.58912,0.423807 -1.13935,0.771731 -1.22272,0.773165 -0.0834,0.0015 -0.2021,-0.05825 -0.26383,-0.13263 z M 9.6436558,28.78292 c -0.12494,-0.139618 -0.22495,-1.106266 -0.1724,-1.666435 0.0136,-0.14523 1.9510002,-1.370952 2.1783202,-1.37816 0.2237,-0.0071 0.3972,0.239925 0.3164,0.450479 -0.0328,0.08557 -0.43639,0.395143 -0.8968,0.687934 l -0.8371,0.532348 -0.003,0.671997 c -0.002,0.567323 -0.0309,0.687016 -0.18302,0.768416 -0.2327602,0.12457 -0.2312602,0.124818 -0.4025402,-0.06658 z M 21.177116,15.852914 c -0.0805,-0.0805 -0.14637,-0.202517 -0.14637,-0.271147 0,-0.06863 0.51344,-0.603044 1.14098,-1.187586 0.62754,-0.584542 1.31378,-1.227449 1.52498,-1.428682 l 0.38399,-0.365877 -0.5869,-1.909397 c -0.32279,-1.050168 -0.5899,-1.973534 -0.59356,-2.051923 -0.004,-0.07839 0.59294,-0.7653147 1.3258,-1.5264997 1.23386,-1.281549 1.34759,-1.375879 1.53683,-1.274601 0.39304,0.210346 0.25204,0.47312 -0.91333,1.702171 -0.61473,0.648325 -1.1177,1.2258917 -1.1177,1.2834837 0,0.05759 0.25149,0.925739 0.55885,1.929218 0.30737,1.003478 0.55885,1.900947 0.55885,1.994374 0,0.181439 -3.22505,3.251842 -3.41629,3.25247 -0.0604,1.98e-4 -0.17564,-0.0655 -0.25613,-0.146004 z M 7.5252558,9.581893 c -0.46659,-0.256086 -0.80926,-0.648852 -0.97436,-1.1168037 -0.25412,-0.720235 -0.12849,-1.359835 0.38488,-1.959601 0.4177,-0.487987 0.98593,-0.701433 1.67735,-0.630072 1.7908502,0.184833 2.3715902,2.50839 0.88737,3.5504477 -0.52042,0.365383 -1.45875,0.439504 -1.97524,0.156029 z m 1.48655,-0.720547 c 0.65872,-0.3891117 0.78255,-1.2868967 0.25665,-1.8607467 -0.58398,-0.637236 -1.59896,-0.491542 -1.96614,0.282228 -0.18467,0.389174 -0.18814,0.620102 -0.0155,1.033247 0.25569,0.6119457 1.13931,0.8912547 1.72501,0.5452717 z"
       id="path13" /></g></svg>
