<?xml version="1.0" encoding="UTF-8" standalone="no"?>
<!-- Created with Inkscape (http://www.inkscape.org/) -->

<svg
   width="128"
   height="128"
   viewBox="0 0 33.866666 33.866666"
   version="1.1"
   id="svg1"
   inkscape:version="1.4.4 (dcaf3e7d9e, 2026-05-05)"
   sodipodi:docname="geen_doorgang.svg"
   xml:space="preserve"
   xmlns:inkscape="http://www.inkscape.org/namespaces/inkscape"
   xmlns:sodipodi="http://sodipodi.sourceforge.net/DTD/sodipodi-0.dtd"
   xmlns="http://www.w3.org/2000/svg"
   xmlns:svg="http://www.w3.org/2000/svg"><sodipodi:namedview
     id="namedview1"
     pagecolor="#ffffff"
     bordercolor="#000000"
     borderopacity="0.25"
     inkscape:showpageshadow="2"
     inkscape:pageopacity="0.0"
     inkscape:pagecheckerboard="0"
     inkscape:deskcolor="#d1d1d1"
     inkscape:document-units="mm"
     inkscape:zoom="0.81156706"
     inkscape:cx="397.37936"
     inkscape:cy="561.25984"
     inkscape:window-width="1908"
     inkscape:window-height="1164"
     inkscape:window-x="5"
     inkscape:window-y="29"
     inkscape:window-maximized="1"
     inkscape:current-layer="layer1" /><defs
     id="defs1" /><g
     inkscape:label="Layer 1"
     inkscape:groupmode="layer"
     id="layer1"><path
       style="fill:#000000;stroke-width:0.326711"
       d="m 14.227775,33.826441 c -0.0323,-0.03232 -0.0588,-1.763914 -0.0588,-3.84789 V 26.1895 H 11.843316 9.5176818 L 6.6394128,21.456793 C 5.0563658,18.853795 3.2663738,15.914568 2.6616548,14.92517 l -1.099491,-1.798917 1.095251,-1.800142 c 0.602389,-0.990079 2.398366,-3.9434855 3.991064,-6.5631315 L 9.5442918,-4.7689285e-7 h 7.3908032 7.39081 L 27.221715,4.7629795 c 1.592698,2.619646 3.387888,5.5717365 3.989298,6.5602175 l 1.09349,1.797237 -3.978018,6.534538 -3.978,6.534528 h -2.32273 -2.32271 l -0.0225,3.82507 -0.0225,3.82507 -2.6857,0.02278 c -1.47714,0.01253 -2.71218,-0.0036 -2.74454,-0.03604 z m 4.34971,-4.352134 V 26.1895 h -1.6424 -1.64241 v 3.284807 3.284806 h 1.64241 1.6424 z m 8.79847,-10.339937 3.655128,-6.013364 -3.650588,-5.9998755 -3.6506,-5.999868 h -6.79481 -6.794813 l -3.6509492,6.00044 -3.650946,6.0004475 3.655497,6.012983 3.6554972,6.012992 6.785714,-1.91e-4 6.78571,-1.9e-4 z M 7.7364888,18.582533 4.2981558,13.136629 4.5163598,12.7693 c 0.120014,-0.202028 1.657243,-2.642921 3.41607,-5.4242015 l 3.1978642,-5.056866 5.790561,-0.02221 5.79056,-0.02221 3.36644,5.338413 c 1.85153,2.9361235 3.394288,5.3878635 3.428338,5.4483015 0.0379,0.06745 -1.266468,2.21441 -3.374388,5.553909 l -3.43631,5.444025 H 16.935155 11.17482 Z M 25.203025,18.020711 c 1.68194,-2.662419 3.04787,-4.883647 3.03542,-4.936069 -0.0124,-0.05238 -1.40171,-2.279378 -3.08724,-4.9488145 l -3.06458,-4.853511 h -5.15148 -5.151486 l -3.0646442,4.859366 c -1.685549,2.6726415 -3.062245,4.9190585 -3.059325,4.9920325 0.0044,0.110109 1.109464,1.883709 5.8594242,9.404277 l 0.232456,0.368054 5.196705,-0.02224 5.19669,-0.02224 z m -9.24523,3.713453 c -2.27409,-0.452175 -4.238532,-2.536415 -4.854844,-5.150905 -0.100993,-0.42842 -0.130106,-1.159519 -0.131099,-3.29225 l -0.0013,-2.741529 0.265933,-0.302879 c 0.381998,-0.4350745 0.992866,-0.4984165 1.74385,-0.180823 0.14111,0.05964 0.15127,-0.05038 0.15127,-1.6394445 0,-1.387272 0.0259,-1.757889 0.13927,-1.996897 0.31441,-0.662583 1.12301,-1.081639 1.77015,-0.917378 0.3097,0.07861 0.33111,0.07037 0.42858,-0.164921 0.0565,-0.136218 0.25132,-0.382035 0.43309,-0.546263 0.7545,-0.681642 1.92065,-0.451912 2.45866,0.484359 0.16343,0.284398 0.18915,0.296584 0.47008,0.222813 0.38077,-0.09999 0.97061,0.05874 1.32436,0.356402 0.36177,0.304409 0.57858,0.824941 0.58071,1.394206 l 0.002,0.475432 0.46456,-0.02896 c 0.57304,-0.03577 1.05975,0.187894 1.41079,0.648212 l 0.24272,0.318292 v 4.0262355 c 0,3.993076 -0.002,4.031564 -0.20445,4.674539 -0.60312,1.912521 -1.67447,3.202955 -3.28056,3.951455 -1.09062,0.508265 -2.23137,0.64538 -3.41357,0.41032 z m 2.21399,-1.119468 c 1.45465,-0.378885 2.54445,-1.375436 3.19352,-2.920283 0.44896,-1.068545 0.49699,-1.57277 0.49699,-5.217534 V 9.1525305 l -0.21218,-0.212177 c -0.26759,-0.267585 -0.43182,-0.267585 -0.6994,0 l -0.21218,0.212177 v 2.5107535 2.510753 h -1.45771 c -0.80175,0 -1.66441,0.03921 -1.91702,0.08714 -0.5351,0.101486 -1.22912,0.412707 -1.58888,0.712517 l -0.25251,0.210434 0.22831,0.29932 c 0.31862,0.417736 0.55167,0.987773 0.62207,1.521609 l 0.0598,0.453819 h -0.56998 -0.56999 v -0.284225 c 0,-0.435672 -0.34052,-1.018454 -0.77798,-1.331482 -1.2551,-0.898078 -1.3189,-1.027196 -1.37996,-2.792844 -0.0286,-0.827165 -0.0875,-1.411708 -0.15384,-1.527646 -0.16155,-0.282191 -0.53732,-0.546962 -0.776257,-0.546962 h -0.212132 l 0.03831,2.571654 c 0.04148,2.784039 0.06754,2.968565 0.569349,4.040995 0.72031,1.539283 1.93758,2.650328 3.30728,3.018691 0.61314,0.164892 1.64727,0.168396 2.2643,0.0073 z m -3.22062,-6.375828 0.3384,-0.280938 0.002,-3.522518 c 0.002,-3.4083515 -0.005,-3.5281285 -0.17133,-3.6954075 -0.23197,-0.231968 -0.48159,-0.217802 -0.74147,0.04212 l -0.21496,0.214964 0.0244,3.5275925 c 0.0221,3.206595 0.0383,3.54887 0.17765,3.761382 0.0843,0.128582 0.17444,0.23379 0.20031,0.23379 0.0259,0 0.19933,-0.126422 0.38544,-0.280938 z m 2.50258,-4.7791655 c 0,-4.008938 0.006,-3.958703 -0.51866,-3.958703 -0.5266,0 -0.51865,-0.06264 -0.51865,4.093821 v 3.7726475 l 0.51865,-0.135127 0.51866,-0.135127 z m 2.22699,0.5838995 0.0227,-3.0499095 -0.21328,-0.213284 c -0.25829,-0.258295 -0.50826,-0.271947 -0.7398,-0.0404 -0.16649,0.16649 -0.17289,0.288146 -0.17289,3.2889285 v 3.116047 l 0.54027,-0.02578 0.54026,-0.02578 z"
       id="path3" /><path
       style="fill:none;stroke:#000000;stroke-width:0.529167;stroke-linejoin:round;stroke-miterlimit:3;stroke-dasharray:none;stroke-opacity:1;paint-order:markers stroke fill"
       d="M 0,33.602083 H 13.229167"
       id="path4" /><path
       style="fill:none;stroke:#000000;stroke-width:0.529167;stroke-linejoin:round;stroke-miterlimit:3;stroke-dasharray:none;stroke-opacity:1;paint-order:markers stroke fill"
       d="M 0.2645835,20.6375 V 33.866667"
       id="path5" /></g></svg>
