<?xml version="1.0" encoding="UTF-8" standalone="no"?>
<!-- Created with Inkscape (http://www.inkscape.org/) -->

<svg
   width="128"
   height="128"
   viewBox="0 0 33.866666 33.866666"
   version="1.1"
   id="svg1"
   inkscape:version="1.4.4 (dcaf3e7d9e, 2026-05-05)"
   sodipodi:docname="poort.svg"
   xml:space="preserve"
   xmlns:inkscape="http://www.inkscape.org/namespaces/inkscape"
   xmlns:sodipodi="http://sodipodi.sourceforge.net/DTD/sodipodi-0.dtd"
   xmlns="http://www.w3.org/2000/svg"
   xmlns:svg="http://www.w3.org/2000/svg"><sodipodi:namedview
     id="namedview1"
     pagecolor="#ffffff"
     bordercolor="#000000"
     borderopacity="0.25"
     inkscape:showpageshadow="2"
     inkscape:pageopacity="0.0"
     inkscape:pagecheckerboard="0"
     inkscape:deskcolor="#d1d1d1"
     inkscape:document-units="mm"
     inkscape:zoom="0.81156706"
     inkscape:cx="397.37936"
     inkscape:cy="561.25984"
     inkscape:window-width="1908"
     inkscape:window-height="1164"
     inkscape:window-x="5"
     inkscape:window-y="29"
     inkscape:window-maximized="1"
     inkscape:current-layer="layer1" /><defs
     id="defs1" /><g
     inkscape:label="Layer 1"
     inkscape:groupmode="layer"
     id="layer1"><path
       style="fill:#000000;stroke-width:0.424258"
       d="m 8.76624,31.476106 c -5.735749,-0.02045 -8.11519399,-0.06505 -8.22243799,-0.154057 -0.124558,-0.103375 -0.150922,-2.092345 -0.150922,-11.386443 V 8.6744187 l 0.249481,-0.174744 C 0.77957501,8.4035647 1.082652,8.3249307 1.315872,8.3249307 H 1.739901 V 7.6566857 6.9884407 L 1.206706,6.7226807 C 0.88432401,6.5619927 0.54036101,6.2676047 0.33675501,5.9781077 0.03758101,5.5527377 1.2899189e-8,5.4084807 1.2899189e-8,4.6855447 1.2899189e-8,3.9728457 0.03992001,3.8142027 0.32138001,3.4080387 0.71219401,2.8440977 1.586451,2.3745197 2.239011,2.3780537 c 0.885186,0.0048 1.773922,0.622027 2.132849,1.481265 0.451746,1.081447 -0.05984,2.319845 -1.200749,2.906649 -0.415357,0.213631 -0.420945,0.225417 -0.420945,0.887736 v 0.671227 h 0.42403 c 0.233215,0 0.536296,0.07864 0.67351,0.174744 0.227856,0.159598 0.249481,0.266617 0.249481,1.23477 V 10.794468 H 6.551861 9.006532 L 9.77682,10.277933 c 1.798945,-1.2063243 3.93991,-1.9322343 6.162922,-2.0895963 0.446986,-0.03165 0.44884,-0.03373 0.411845,-0.458538 -0.04339,-0.498271 0.219498,-0.976393 0.536865,-0.976393 0.368048,0 0.566691,0.311932 0.566691,0.889895 v 0.537103 l 0.891994,0.07439 c 1.906092,0.158961 4.207062,0.979655 5.822646,2.0767753 l 0.681652,0.4629 2.447636,2.59e-4 2.447632,2.58e-4 -0.03585,-1.0027563 c -0.04292,-1.201304 0.116192,-1.467298 0.877719,-1.467298 h 0.449005 v -0.707086 c 0,-0.704935 -0.0013,-0.707514 -0.389218,-0.847829 -0.563547,-0.20378 -1.146313,-0.937993 -1.304082,-1.642979 -0.394301,-1.761916 1.446607,-3.27965 3.126586,-2.57771 1.567533,0.654958 1.88929,2.810628 0.583516,3.909364 -0.192681,0.16213 -0.472717,0.325499 -0.622306,0.363046 -0.252315,0.06332 -0.27198,0.120133 -0.27198,0.785727 v 0.717467 h 0.400263 c 0.220143,0 0.497964,0.05229 0.617385,0.116201 0.21246,0.113705 0.217123,0.35933 0.217123,11.4359353 0,9.310271 -0.02664,11.341832 -0.150044,11.444253 -0.167179,0.138749 -10.559508,0.204462 -24.478601,0.154786 z M 2.974667,19.942988 V 9.4474467 H 2.188906 1.403146 V 19.942988 30.438523 h 0.78576 0.785761 z m 13.371587,8.811759 v -1.627651 l -6.124536,-0.02902 -6.124531,-0.02902 v 1.685693 1.685693 l 6.124531,-0.02902 6.124536,-0.02902 z m 13.353679,1.637349 c 0.02571,-0.02554 0.03157,-0.783232 0.01294,-1.683776 l -0.03381,-1.637349 h -6.111952 -6.111948 v 1.683776 1.683776 h 6.099008 c 3.354455,0 6.12006,-0.02087 6.145783,-0.04643 z M 32.384619,19.942988 V 9.4474467 h -0.78576 -0.785765 V 19.942988 30.438523 h 0.785765 0.78576 z M 5.529445,20.363929 5.500345,14.779404 4.79877,14.745974 4.097199,14.712544 v 5.617943 5.617946 h 0.730684 0.730683 z m 2.806292,0 -0.0291,-5.584525 H 7.464751 6.622861 l -0.0291,5.584525 -0.0291,5.584526 h 0.900111 0.900111 z m 2.721058,-0.593272 v -6.177793 l -0.25257,0.130094 c -0.138911,0.07155 -0.517761,0.327532 -0.841886,0.568846 l -0.58932,0.438747 v 5.608953 5.608951 h 0.841886 0.84189 z m 2.806291,4.156292 v -2.021503 l -0.330425,-0.456137 c -0.477422,-0.659064 -0.730034,-1.491031 -0.730034,-2.404338 0,-0.913305 0.252612,-1.745272 0.730034,-2.404336 l 0.330425,-0.456138 v -1.855265 -1.855265 l -0.308695,0.07419 c -0.169779,0.04081 -0.535999,0.156997 -0.813821,0.258204 l -0.505134,0.184022 -0.02898,6.479033 -0.02898,6.479039 h 0.842798 0.842802 z m 2.525662,0.674291 V 23.254028 L 15.827492,23.07914 c -0.308695,-0.09618 -0.624402,-0.201332 -0.701575,-0.233664 -0.10839,-0.0454 -0.140315,0.30088 -0.140315,1.522099 v 1.58088 h 0.701575 0.701571 z m 2.525665,-0.236321 c 0,-1.465414 -0.01464,-1.577244 -0.19644,-1.499215 -0.108041,0.04638 -0.423749,0.145691 -0.701575,0.2207 l -0.50513,0.136373 -0.03152,1.362837 -0.03152,1.362841 h 0.733089 0.733093 z m 2.806292,-4.862877 V 13.055634 L 21.107893,12.826352 C 20.770845,12.700245 20.366739,12.56486 20.209878,12.525489 l -0.285199,-0.07158 v 1.75181 1.75181 l 0.399426,0.555978 c 1.11331,1.549642 1.113692,3.531062 8.49e-4,5.046891 l -0.400398,0.545452 v 1.921301 1.921305 h 0.898015 0.898011 z m 2.693477,0.805761 -4.24e-4,-5.640649 -0.776516,-0.533195 c -0.427084,-0.29326 -0.80568,-0.533195 -0.841326,-0.533195 -0.03564,0 -0.06481,2.778231 -0.06481,6.173842 v 6.173849 h 0.84189 0.841886 z m 2.80686,0.02804 v -5.612568 h -0.84189 -0.841886 v 5.612589 5.612587 h 0.841886 0.84189 z m 2.495552,2.5e-5 -0.03012,-5.612614 h -0.671465 -0.671461 v 5.612589 5.612587 l 0.701575,2.6e-5 0.701571,2.5e-5 z m -11.358935,1.509088 c 1.171339,-0.584365 1.903431,-1.893805 1.741458,-3.114823 -0.102208,-0.770495 -0.299968,-1.202454 -0.80898,-1.767062 -1.216141,-1.348972 -3.477554,-1.359179 -4.652491,-0.021 -0.613397,0.698622 -0.808598,1.286635 -0.75075,2.261522 0.05452,0.918733 0.221356,1.341286 0.781488,1.979235 0.457206,0.520731 1.118948,0.852569 1.888743,0.947136 0.777127,0.09546 1.15907,0.035 1.800532,-0.285008 z m -3.68636,-1.531565 c -0.08699,-0.08699 -0.134703,-0.536315 -0.134703,-1.268445 0,-0.73213 0.04772,-1.181458 0.134703,-1.268444 0.09543,-0.09543 0.764025,-0.134702 2.293142,-0.134702 1.812551,0 2.186709,0.02826 2.334834,0.176394 0.135224,0.135224 0.176398,0.421552 0.176398,1.226752 0,0.805202 -0.04115,1.091529 -0.176398,1.226753 -0.148125,0.148126 -0.522283,0.176394 -2.334834,0.176394 -1.529117,0 -2.197714,-0.03929 -2.293142,-0.134702 z m 3.681854,-1.268445 v -0.39288 h -1.403145 -1.403146 v 0.39288 0.39288 h 1.403146 1.403145 z m -2.694041,-3.980669 0.617385,-0.212901 0.03152,-1.354959 0.03152,-1.354954 H 15.84013 c -0.878491,0 -0.854525,-0.04599 -0.854525,1.639662 0,0.826862 0.01264,1.501739 0.02804,1.499723 0.01544,-0.0021 0.305886,-0.09947 0.645445,-0.216571 z m 3.255301,-1.282071 c 0,-1.697305 0.03678,-1.635936 -0.9822,-1.639207 l -0.47707,-0.0017 v 1.333796 1.333797 l 0.645445,0.221866 c 0.354994,0.122029 0.683332,0.229006 0.729636,0.237729 0.0463,0.0087 0.08419,-0.660176 0.08419,-1.486445 z M 9.890797,13.077772 c 1.664298,-1.084846 3.645432,-1.777571 5.459625,-1.909023 l 0.982201,-0.07116 V 10.155171 9.2127527 l -0.364816,0.05562 c -0.200653,0.03059 -0.630665,0.08522 -0.955587,0.121398 -1.49874,0.166856 -3.633786,1.0274263 -5.041934,2.0322403 L 9.276661,11.916964 H 6.686924 4.097187 v 0.89801 0.898016 h 2.40955 2.409547 z m 19.819297,-0.263062 0.03661,-0.898278 -2.574026,2.68e-4 -2.574023,2.63e-4 -0.918439,-0.617441 C 21.953921,10.13898 20.286623,9.5428117 18.039853,9.2827207 l -0.593937,-0.06876 0.03267,0.9305563 0.03267,0.930552 1.00948,0.08402 c 1.843255,0.153407 4.244889,1.035055 5.669498,2.081284 l 0.617381,0.453405 2.432931,0.0096 2.432927,0.0096 z M 3.026511,5.6028257 c 0.839884,-0.734337 0.335877,-2.127169 -0.769728,-2.127169 -0.529894,0 -0.942973,0.276944 -1.149171,0.770445 -0.20445499,0.489331 -0.05355,1.045997 0.374921,1.383032 0.405006,0.318576 1.164326,0.30564 1.543978,-0.0263 z m 29.252073,0.136988 c 0.288093,-0.154184 0.555041,-0.690569 0.555041,-1.115265 0,-0.522152 -0.615841,-1.143847 -1.148018,-1.15893 -1.024232,-0.02902 -1.622857,0.920187 -1.153143,1.828512 0.09261,0.179079 0.256774,0.377089 0.36482,0.44002 0.256668,0.149495 1.106041,0.152979 1.3813,0.0056 z"
       id="path2" /><path
       style="fill:none;stroke:#000000;stroke-width:0.529167;stroke-linejoin:round;stroke-miterlimit:3;stroke-dasharray:none;stroke-opacity:1;paint-order:markers stroke fill"
       d="M 0,33.602083 H 13.229167"
       id="path4" /><path
       style="fill:none;stroke:#000000;stroke-width:0.529167;stroke-linejoin:round;stroke-miterlimit:3;stroke-dasharray:none;stroke-opacity:1;paint-order:markers stroke fill"
       d="M 0.2645835,20.6375 V 33.866667"
       id="path5" /></g></svg>
