<?xml version="1.0" encoding="UTF-8" standalone="no"?>
<!-- Created with Inkscape (http://www.inkscape.org/) -->

<svg
   width="128"
   height="128"
   viewBox="0 0 33.866666 33.866666"
   version="1.1"
   id="svg1"
   inkscape:version="1.4.4 (dcaf3e7d9e, 2026-05-05)"
   sodipodi:docname="symbols.svg"
   xml:space="preserve"
   xmlns:inkscape="http://www.inkscape.org/namespaces/inkscape"
   xmlns:sodipodi="http://sodipodi.sourceforge.net/DTD/sodipodi-0.dtd"
   xmlns="http://www.w3.org/2000/svg"
   xmlns:svg="http://www.w3.org/2000/svg"><sodipodi:namedview
     id="namedview1"
     pagecolor="#ffffff"
     bordercolor="#000000"
     borderopacity="0.25"
     inkscape:showpageshadow="2"
     inkscape:pageopacity="0.0"
     inkscape:pagecheckerboard="0"
     inkscape:deskcolor="#d1d1d1"
     inkscape:document-units="mm"
     inkscape:zoom="0.81156706"
     inkscape:cx="513.20466"
     inkscape:cy="74.547136"
     inkscape:window-width="1908"
     inkscape:window-height="1068"
     inkscape:window-x="1925"
     inkscape:window-y="5"
     inkscape:window-maximized="1"
     inkscape:current-layer="layer1"
     showgrid="false" /><defs
     id="defs1"><inkscape:path-effect
       effect="fill_between_many"
       method="originald"
       linkedpaths="#path11,0,1|"
       id="path-effect11" /></defs><g
     inkscape:label="Layer 1"
     inkscape:groupmode="layer"
     id="layer1"><path
       style="fill:#000000;stroke-width:0.351732"
       d="m -14.544102,146.5971 c -0.132894,-0.14684 -0.150192,-0.22832 -0.07409,-0.34898 0.09095,-0.14421 0.524767,-0.15943 5.1732096,-0.18147 l 5.0739329,-0.0241 0.156577,-0.62738 c 0.792281,-3.1745 3.96808396,-5.36004 7.195623,-4.95192 0.98776,0.1249 1.614294,0.31919 2.48346,0.77013 0.893766,0.4637 1.993155,1.50607 2.496755,2.36726 0.315919,0.54025 0.726567,1.5925 0.853395,2.18678 l 0.05445,0.25513 5.0834725,0.0241 c 4.657402,0.022 5.091795,0.0373 5.182753,0.18147 0.07613,0.12071 0.05869,0.20226 -0.07478,0.34974 -0.172528,0.19064 -0.220427,0.19213 -5.436693,0.16831 l -5.2626275,-0.024 -0.109386,-0.23266 c -0.06016,-0.12796 -0.175862,-0.51568 -0.25712,-0.8616 -0.485308,-2.06605 -1.944777,-3.57721 -4.107615,-4.25309 -0.864695,-0.27022 -2.331803,-0.28017 -3.21065904,-0.0218 -2.20658296,0.64874 -3.79936496,2.34583 -4.24683896,4.52496 -0.07559,0.36811 -0.2027,0.7093 -0.288495,0.77437 -0.118435,0.0898 -1.3330656,0.11633 -5.3326599,0.11633 -5.1101966,0 -5.1816056,-0.002 -5.3526636,-0.19157 z m 0.03493,-1.85047 c -0.197229,-0.15971 -0.20251,-0.18969 -0.07702,-0.43738 0.218225,-0.43071 2.494531,-2.63886 3.334802,-3.23495 3.917343,-2.77894 8.4215665,-4.16882 13.5100055,-4.16882 5.373315,0 10.3221345,1.63073 14.0967905,4.64518 0.967401,0.77257 2.513969,2.33545 2.752946,2.78198 0.11909,0.22252 0.111921,0.257 -0.08688,0.41798 -0.123936,0.10036 -0.268354,0.14587 -0.33742,0.10633 -0.06641,-0.038 -0.433862,-0.42786 -0.816551,-0.86632 -2.26604,-2.59628 -5.947831,-4.71026 -9.8587925,-5.66064 -2.09818,-0.50986 -3.037537,-0.60942 -5.750095,-0.60942 -2.71256004,0 -3.651918,0.0996 -5.750094,0.60942 -2.036003,0.49476 -3.8273336,1.20705 -5.6302368,2.23877 -1.6191507,0.92657 -3.6447757,2.60198 -4.5244597,3.74222 -0.465087,0.60283 -0.583016,0.66237 -0.862997,0.43565 z m -0.09996,-2.85798 c -0.107584,-0.23612 -0.08414,-0.27318 0.537104,-0.84899 0.760225,-0.70462 2.196778,-1.79917 3.008509,-2.29227 l 0.57046,-0.34654 0.02432,-3.73681 0.02431,-3.73681 1.116751,-0.56273 c 3.6551473,-1.84184 7.3000205,-2.68718 11.5862885,-2.68718 4.295504,0 7.9210775,0.84091 11.5862845,2.68733 l 1.116751,0.56258 0.0243,3.73393 0.0243,3.73393 0.693902,0.43249 c 1.289085,0.80345 3.49182,2.6378 3.49182,2.90785 0,0.14019 -0.261439,0.40012 -0.402438,0.40012 -0.06048,0 -0.4435,-0.29999 -0.851161,-0.66665 -4.062454,-3.65378 -9.6213105,-5.65981 -15.6837855,-5.65981 -6.054722,0 -11.6265294,2.0107 -15.6837865,5.65981 -0.407664,0.36666 -0.815515,0.66665 -0.906335,0.66665 -0.09082,0 -0.215752,-0.11111 -0.277623,-0.2469 z m 6.794913,-8.12008 c 0.01345,-1.79621 -0.00749,-3.26507 -0.046531,-3.26413 -0.039043,9.5e-4 -0.4688299,0.19985 -0.9550817,0.44204 l -0.8840943,0.44035 -0.024449,3.27467 -0.024449,3.27467 0.955075,-0.45088 0.9550753,-0.45089 z m 22.036737,-2.30827 c -0.04313,-0.11239 -1.297985,-0.77898 -1.703754,-0.90505 l -0.20939,-0.0651 v 3.26565 3.26565 l 0.953892,0.4454 0.953891,0.44541 0.02452,-3.16911 c 0.01347,-1.743 0.0049,-3.2203 -0.01917,-3.28289 z m -19.8044194,4.76875 0.581642,-0.17203 v -3.28899 c 0,-1.80894 -0.03141,-3.28866 -0.0698,-3.28827 -0.1176224,0.001 -1.1631648,0.33762 -1.582063,0.50906 l -0.3955161,0.16187 v 3.23158 c 0,1.77736 0.024783,3.25635 0.055073,3.28664 0.030291,0.0303 0.2292114,-0.0176 0.4420468,-0.10638 0.2128368,-0.0888 0.6487142,-0.23887 0.9686153,-0.33348 z m 17.1467744,-2.83677 v -3.24159 l -0.395516,-0.16187 c -0.418896,-0.17144 -1.4644375,-0.50787 -1.5820605,-0.50906 -0.03839,-3.9e-4 -0.0698,1.47986 -0.0698,3.28945 v 3.29016 l 0.6747035,0.20439 c 0.371084,0.11241 0.800335,0.25926 0.953891,0.32633 0.153552,0.0671 0.310594,0.10435 0.348982,0.0829 0.03839,-0.0215 0.0698,-1.49779 0.0698,-3.28067 z m -14.6108185,2.19717 0.791032,-0.20093 v -3.25719 -3.25719 l -0.300678,0.0135 c -0.165371,0.007 -0.615564,0.0836 -1.000422,0.1692 l -0.699748,0.15568 v 3.29738 3.29737 l 0.209394,-0.008 c 0.115164,-0.005 0.565353,-0.0989 1.000422,-0.20939 z m 11.818942,-3.07578 v -3.29362 l -0.673859,-0.15218 c -0.370624,-0.0837 -0.831285,-0.17735 -1.023689,-0.20811 l -0.349826,-0.0559 v 3.26359 c 0,2.35065 0.02979,3.28201 0.106543,3.32944 0.131196,0.0811 1.444073,0.38379 1.731442,0.39921 l 0.209389,0.0112 z m -8.28256804,-0.73329 v -3.34616 l -0.395516,0.0545 c -0.217532,0.03 -0.657254,0.0821 -0.977155,0.11565 l -0.58164196,0.0611 v 3.31498 3.31498 l 0.97715796,-0.0845 0.977155,-0.0845 z m 5.49069204,0.22337 v -3.33823 l -0.581639,-0.0611 c -0.319904,-0.0336 -0.759626,-0.0857 -0.977159,-0.11565 l -0.395516,-0.0545 v 3.34813 3.34812 l 0.953892,0.0912 c 0.52464,0.0502 0.964362,0.0978 0.977158,0.10576 0.0128,0.008 0.02325,-1.48768 0.02325,-3.32371 z m -2.698815,-0.23472 c 0,-2.91763 -0.01681,-3.30021 -0.147204,-3.35025 -0.191202,-0.0734 -1.561766,-0.0734 -1.752964,0 -0.130398,0.05 -0.147207,0.43262 -0.147207,3.35025 v 3.29377 h 1.023689 1.023686 z"
       id="path1" /><path
       style="fill:#000000;stroke-width:0.424258"
       d="M 27.067799,87.952712 C 21.33205,87.932263 18.952605,87.88766 18.845361,87.798655 18.720803,87.69528 18.694439,85.70631 18.694439,76.412212 V 65.151025 l 0.249481,-0.174744 c 0.137214,-0.09611 0.440291,-0.174744 0.673511,-0.174744 h 0.424029 v -0.668245 -0.668245 l -0.533195,-0.26576 c -0.322382,-0.160688 -0.666345,-0.455076 -0.869951,-0.744573 -0.299174,-0.42537 -0.336755,-0.569627 -0.336755,-1.292563 0,-0.712699 0.03992,-0.871342 0.32138,-1.277506 0.390814,-0.563941 1.265071,-1.033519 1.917631,-1.029985 0.885186,0.0048 1.773922,0.622027 2.132849,1.481265 0.451746,1.081447 -0.05984,2.319845 -1.200749,2.906649 -0.415357,0.213631 -0.420945,0.225417 -0.420945,0.887736 v 0.671227 h 0.42403 c 0.233215,0 0.536296,0.07864 0.67351,0.174744 0.227856,0.159598 0.249481,0.266617 0.249481,1.23477 v 1.060023 h 2.454674 2.454671 l 0.770288,-0.516535 c 1.798945,-1.206324 3.93991,-1.932234 6.162922,-2.089596 0.446986,-0.03165 0.44884,-0.03373 0.411845,-0.458538 -0.04339,-0.498271 0.219498,-0.976393 0.536865,-0.976393 0.368048,0 0.566691,0.311932 0.566691,0.889895 v 0.537103 l 0.891994,0.07439 c 1.906092,0.158961 4.207062,0.979655 5.822646,2.076775 l 0.681652,0.4629 2.447636,2.59e-4 2.447632,2.58e-4 -0.03585,-1.002756 c -0.04292,-1.201304 0.116192,-1.467298 0.877719,-1.467298 h 0.449005 v -0.707086 c 0,-0.704935 -0.0013,-0.707514 -0.389218,-0.847829 -0.563547,-0.20378 -1.146313,-0.937993 -1.304082,-1.642979 -0.394301,-1.761916 1.446607,-3.27965 3.126586,-2.57771 1.567533,0.654958 1.88929,2.810628 0.583516,3.909364 -0.192681,0.16213 -0.472717,0.325499 -0.622306,0.363046 -0.252315,0.06332 -0.27198,0.120133 -0.27198,0.785727 v 0.717467 h 0.400263 c 0.220143,0 0.497964,0.05229 0.617385,0.116201 0.21246,0.113705 0.217123,0.35933 0.217123,11.435935 0,9.310271 -0.02664,11.341832 -0.150044,11.444253 -0.167179,0.138749 -10.559508,0.204462 -24.478601,0.154786 z M 21.276226,76.419594 V 65.924053 h -0.785761 -0.78576 v 10.495541 10.495535 h 0.78576 0.785761 z m 13.371587,8.811759 v -1.627651 l -6.124536,-0.02902 -6.124531,-0.02902 v 1.685693 1.685693 l 6.124531,-0.02902 6.124536,-0.02902 z m 13.353679,1.637349 c 0.02571,-0.02554 0.03157,-0.783232 0.01294,-1.683776 l -0.03381,-1.637349 H 41.86867 35.756722 v 1.683776 1.683776 h 6.099008 c 3.354455,0 6.12006,-0.02087 6.145783,-0.04643 z M 50.686178,76.419594 V 65.924053 h -0.78576 -0.785765 v 10.495541 10.495535 h 0.785765 0.78576 z m -26.855174,0.420941 -0.0291,-5.584525 -0.701575,-0.03343 -0.701571,-0.03343 v 5.617943 5.617946 h 0.730684 0.730683 z m 2.806292,0 -0.0291,-5.584525 H 25.76631 24.92442 l -0.0291,5.584525 -0.0291,5.584526 h 0.900111 0.900111 z m 2.721058,-0.593272 V 70.06947 l -0.25257,0.130094 c -0.138911,0.07155 -0.517761,0.327532 -0.841886,0.568846 l -0.58932,0.438747 v 5.608953 5.608951 h 0.841886 0.84189 z m 2.806291,4.156292 V 78.382052 L 31.83422,77.925915 c -0.477422,-0.659064 -0.730034,-1.491031 -0.730034,-2.404338 0,-0.913305 0.252612,-1.745272 0.730034,-2.404336 l 0.330425,-0.456138 v -1.855265 -1.855265 l -0.308695,0.07419 c -0.169779,0.04081 -0.535999,0.156997 -0.813821,0.258204 l -0.505134,0.184022 -0.02898,6.479033 -0.02898,6.479039 h 0.842798 0.842802 z m 2.525662,0.674291 v -1.347212 l -0.561256,-0.174888 c -0.308695,-0.09618 -0.624402,-0.201332 -0.701575,-0.233664 -0.10839,-0.0454 -0.140315,0.30088 -0.140315,1.522099 v 1.58088 h 0.701575 0.701571 z m 2.525665,-0.236321 c 0,-1.465414 -0.01464,-1.577244 -0.19644,-1.499215 -0.108041,0.04638 -0.423749,0.145691 -0.701575,0.2207 l -0.50513,0.136373 -0.03152,1.362837 -0.03152,1.362841 h 0.733089 0.733093 z m 2.806292,-4.862877 V 69.53224 l -0.612812,-0.229282 c -0.337048,-0.126107 -0.741154,-0.261492 -0.898015,-0.300863 l -0.285199,-0.07158 v 1.75181 1.75181 l 0.399426,0.555978 c 1.11331,1.549642 1.113692,3.531062 8.49e-4,5.046891 l -0.400398,0.545452 v 1.921301 1.921305 h 0.898015 0.898011 z m 2.693477,0.805761 -4.24e-4,-5.640649 -0.776516,-0.533195 c -0.427084,-0.29326 -0.80568,-0.533195 -0.841326,-0.533195 -0.03564,0 -0.06481,2.778231 -0.06481,6.173842 v 6.173849 h 0.84189 0.841886 z m 2.80686,0.02804 v -5.612568 h -0.84189 -0.841886 v 5.612589 5.612587 h 0.841886 0.84189 z m 2.495552,2.5e-5 -0.03012,-5.612614 h -0.671465 -0.671461 v 5.612589 5.612587 l 0.701575,2.6e-5 0.701571,2.5e-5 z m -11.358935,1.509088 c 1.171339,-0.584365 1.903431,-1.893805 1.741458,-3.114823 -0.102208,-0.770495 -0.299968,-1.202454 -0.80898,-1.767062 -1.216141,-1.348972 -3.477554,-1.359179 -4.652491,-0.021 -0.613397,0.698622 -0.808598,1.286635 -0.75075,2.261522 0.05452,0.918733 0.221356,1.341286 0.781488,1.979235 0.457206,0.520731 1.118948,0.852569 1.888743,0.947136 0.777127,0.09546 1.15907,0.035 1.800532,-0.285008 z m -3.68636,-1.531565 c -0.08699,-0.08699 -0.134703,-0.536315 -0.134703,-1.268445 0,-0.73213 0.04772,-1.181458 0.134703,-1.268444 0.09543,-0.09543 0.764025,-0.134702 2.293142,-0.134702 1.812551,0 2.186709,0.02826 2.334834,0.176394 0.135224,0.135224 0.176398,0.421552 0.176398,1.226752 0,0.805202 -0.04115,1.091529 -0.176398,1.226753 -0.148125,0.148126 -0.522283,0.176394 -2.334834,0.176394 -1.529117,0 -2.197714,-0.03929 -2.293142,-0.134702 z m 3.681854,-1.268445 v -0.39288 h -1.403145 -1.403146 v 0.39288 0.39288 h 1.403146 1.403145 z m -2.694041,-3.980669 0.617385,-0.212901 0.03152,-1.354959 0.03152,-1.354954 h -0.499407 c -0.878491,0 -0.854525,-0.04599 -0.854525,1.639662 0,0.826862 0.01264,1.501739 0.02804,1.499723 0.01544,-0.0021 0.305886,-0.09947 0.645445,-0.216571 z m 3.255301,-1.282071 c 0,-1.697305 0.03678,-1.635936 -0.9822,-1.639207 l -0.47707,-0.0017 v 1.333796 1.333797 l 0.645445,0.221866 c 0.354994,0.122029 0.683332,0.229006 0.729636,0.237729 0.0463,0.0087 0.08419,-0.660176 0.08419,-1.486445 z m -9.023616,-0.704434 c 1.664298,-1.084846 3.645432,-1.777571 5.459625,-1.909023 l 0.982201,-0.07116 v -0.942418 -0.942418 l -0.364816,0.05562 c -0.200653,0.03059 -0.630665,0.08522 -0.955587,0.121398 -1.49874,0.166856 -3.633786,1.027426 -5.041934,2.03224 L 27.57822,68.39357 h -2.589737 -2.589737 v 0.89801 0.898016 h 2.40955 2.409547 z m 19.819297,-0.263062 0.03661,-0.898278 -2.574026,2.68e-4 -2.574023,2.63e-4 -0.918439,-0.617441 c -1.726295,-1.160542 -3.393593,-1.75671 -5.640363,-2.016801 l -0.593937,-0.06876 0.03267,0.930556 0.03267,0.930552 1.00948,0.08402 c 1.843255,0.153407 4.244889,1.035055 5.669498,2.081284 l 0.617381,0.453405 2.432931,0.0096 2.432927,0.0096 z M 21.32807,62.079432 c 0.839884,-0.734337 0.335877,-2.127169 -0.769728,-2.127169 -0.529894,0 -0.942973,0.276944 -1.149171,0.770445 -0.204455,0.489331 -0.05355,1.045997 0.374921,1.383032 0.405006,0.318576 1.164326,0.30564 1.543978,-0.0263 z m 29.252073,0.136988 c 0.288093,-0.154184 0.555041,-0.690569 0.555041,-1.115265 0,-0.522152 -0.615841,-1.143847 -1.148018,-1.15893 -1.024232,-0.02902 -1.622857,0.920187 -1.153143,1.828512 0.09261,0.179079 0.256774,0.377089 0.36482,0.44002 0.256668,0.149495 1.106041,0.152979 1.3813,0.0056 z"
       id="path2" /><path
       style="fill:#000000;stroke-width:0.326711"
       d="m 52.73043,142.08878 c -0.0323,-0.0323 -0.0588,-1.76392 -0.0588,-3.84789 v -3.78905 h -2.325659 -2.325634 l -2.878269,-4.73271 c -1.583047,-2.603 -3.373039,-5.54222 -3.977758,-6.53162 l -1.099491,-1.79892 1.095251,-1.80014 c 0.602389,-0.99008 2.398366,-3.94349 3.991064,-6.56313 l 2.895813,-4.76298 h 7.390803 7.39081 l 2.89581,4.76298 c 1.592698,2.61964 3.387888,5.57173 3.989298,6.56021 l 1.09349,1.79724 -3.978018,6.53454 -3.978,6.53453 H 60.52841 58.2057 l -0.0225,3.82507 -0.0225,3.82507 -2.6857,0.0228 c -1.47714,0.0125 -2.71218,-0.004 -2.74454,-0.036 z m 4.34971,-4.35214 v -3.2848 h -1.6424 -1.64241 v 3.2848 3.28481 h 1.64241 1.6424 z m 8.79847,-10.33993 3.655128,-6.01337 -3.650588,-5.99987 -3.6506,-5.99987 h -6.79481 -6.794813 l -3.650949,6.00044 -3.650946,6.00045 3.655497,6.01298 3.655497,6.01299 6.785714,-1.9e-4 6.78571,-1.9e-4 z m -19.639466,-0.55184 -3.438333,-5.4459 0.218204,-0.36733 c 0.120014,-0.20203 1.657243,-2.64292 3.41607,-5.4242 l 3.197864,-5.05687 5.790561,-0.0222 5.79056,-0.0222 3.36644,5.33841 c 1.85153,2.93613 3.394288,5.38787 3.428338,5.4483 0.0379,0.0674 -1.266468,2.21441 -3.374388,5.55391 l -3.43631,5.44403 h -5.76034 -5.760335 z m 17.466536,-0.56182 c 1.68194,-2.66242 3.04787,-4.88365 3.03542,-4.93607 -0.0124,-0.0524 -1.40171,-2.27938 -3.08724,-4.94881 l -3.06458,-4.85352 H 55.4378 50.286314 l -3.064644,4.85937 c -1.685549,2.67264 -3.062245,4.91906 -3.059325,4.99203 0.0044,0.11011 1.109464,1.88371 5.859424,9.40428 l 0.232456,0.36805 5.196705,-0.0222 5.19669,-0.0222 z m -9.24523,3.71345 c -2.27409,-0.45217 -4.238532,-2.53641 -4.854844,-5.1509 -0.100993,-0.42842 -0.130106,-1.15952 -0.131099,-3.29225 l -0.0013,-2.74153 0.265933,-0.30288 c 0.381998,-0.43508 0.992866,-0.49842 1.74385,-0.18082 0.14111,0.0596 0.15127,-0.0504 0.15127,-1.63945 0,-1.38727 0.0259,-1.75789 0.13927,-1.9969 0.31441,-0.66258 1.12301,-1.08163 1.77015,-0.91737 0.3097,0.0786 0.33111,0.0704 0.42858,-0.16492 0.0565,-0.13622 0.25132,-0.38204 0.43309,-0.54627 0.7545,-0.68164 1.92065,-0.45191 2.45866,0.48436 0.16343,0.2844 0.18915,0.29659 0.47008,0.22281 0.38077,-0.1 0.97061,0.0587 1.32436,0.35641 0.36177,0.30441 0.57858,0.82494 0.58071,1.3942 l 0.002,0.47543 0.46456,-0.029 c 0.57304,-0.0358 1.05975,0.1879 1.41079,0.64822 l 0.24272,0.31829 v 4.02623 c 0,3.99308 -0.002,4.03157 -0.20445,4.67454 -0.60312,1.91252 -1.67447,3.20296 -3.28056,3.95146 -1.09062,0.50826 -2.23137,0.64538 -3.41357,0.41032 z m 2.21399,-1.11947 c 1.45465,-0.37888 2.54445,-1.37543 3.19352,-2.92028 0.44896,-1.06854 0.49699,-1.57277 0.49699,-5.21753 v -3.32435 l -0.21218,-0.21218 c -0.26759,-0.26758 -0.43182,-0.26758 -0.6994,0 l -0.21218,0.21218 v 2.51075 2.51075 h -1.45771 c -0.80175,0 -1.66441,0.0392 -1.91702,0.0871 -0.5351,0.10149 -1.22912,0.41271 -1.58888,0.71252 l -0.25251,0.21044 0.22831,0.29932 c 0.31862,0.41773 0.55167,0.98777 0.62207,1.5216 l 0.0598,0.45382 h -0.56998 -0.56999 v -0.28422 c 0,-0.43567 -0.34052,-1.01846 -0.77798,-1.33148 -1.2551,-0.89808 -1.3189,-1.0272 -1.37996,-2.79285 -0.0286,-0.82716 -0.0875,-1.41171 -0.15384,-1.52764 -0.16155,-0.28219 -0.53732,-0.54697 -0.776257,-0.54697 h -0.212132 l 0.03831,2.57166 c 0.04148,2.78404 0.06754,2.96856 0.569349,4.04099 0.72031,1.53929 1.93758,2.65033 3.30728,3.01869 0.61314,0.1649 1.64727,0.1684 2.2643,0.007 z m -3.22062,-6.37582 0.3384,-0.28094 0.002,-3.52252 c 0.002,-3.40835 -0.005,-3.52813 -0.17133,-3.69541 -0.23197,-0.23197 -0.48159,-0.2178 -0.74147,0.0421 l -0.21496,0.21497 0.0244,3.52759 c 0.0221,3.20659 0.0383,3.54887 0.17765,3.76138 0.0843,0.12858 0.17444,0.23379 0.20031,0.23379 0.0259,0 0.19933,-0.12642 0.38544,-0.28094 z m 2.50258,-4.77917 c 0,-4.00894 0.006,-3.9587 -0.51866,-3.9587 -0.5266,0 -0.51865,-0.0626 -0.51865,4.09382 v 3.77265 l 0.51865,-0.13513 0.51866,-0.13513 z m 2.22699,0.5839 0.0227,-3.04991 -0.21328,-0.21328 c -0.25829,-0.2583 -0.50826,-0.27195 -0.7398,-0.0404 -0.16649,0.16649 -0.17289,0.28814 -0.17289,3.28892 v 3.11605 l 0.54027,-0.0258 0.54026,-0.0258 z"
       id="path3" /><path
       style="fill:none;stroke:#000000;stroke-width:0.529167;stroke-linejoin:round;stroke-miterlimit:3;stroke-dasharray:none;stroke-opacity:1;paint-order:markers stroke fill"
       d="M 0,33.602083 H 13.229167"
       id="path4" /><path
       style="fill:none;stroke:#000000;stroke-width:0.529167;stroke-linejoin:round;stroke-miterlimit:3;stroke-dasharray:none;stroke-opacity:1;paint-order:markers stroke fill"
       d="M 0.2645835,20.6375 V 33.866667"
       id="path5" /><path
       style="fill:#000000;stroke-width:0.460607"
       d="m 118.86064,151.59806 c -0.24059,-0.2406 -0.24373,-0.40624 -0.24373,-12.84932 v -12.60558 l 0.76168,-0.66596 c 0.41892,-0.36628 2.17809,-1.85052 3.90925,-3.29833 l 3.14757,-2.63238 h -10.06364 -10.06364 v 4.29924 c 0,4.81613 -0.004,4.84094 -0.79215,4.84094 -0.79601,0 -0.79215,0.0261 -0.79215,-5.33396 v -4.79225 l 0.29914,-0.29913 0.29913,-0.29914 h 11.65205 c 11.72266,0 12.00365,0.009 12.27397,0.41432 0.0492,0.0738 0.0886,5.78273 0.0875,12.68661 -0.001,9.67996 -0.036,12.59579 -0.15048,12.74161 -0.13133,0.16727 -8.37831,7.07209 -9.2746,7.76519 -0.4349,0.3363 -0.73375,0.34431 -1.04993,0.0282 z m 5.29407,-5.51084 3.70934,-3.08093 0.007,-11.31166 0.007,-11.31165 -0.33514,0.24659 c -0.18433,0.13562 -1.92553,1.57894 -3.86935,3.20736 l -3.5342,2.96077 -0.0311,11.25571 c -0.0276,9.98663 -0.0104,11.24775 0.15255,11.18522 0.10101,-0.0387 1.85286,-1.45689 3.893,-3.15141 z m -19.13174,-2.22231 -0.29914,-0.29913 v -4.80587 c 0,-4.45655 0.016,-4.82567 0.22064,-5.07834 0.13593,-0.16787 0.35534,-0.27247 0.57151,-0.27247 0.21618,0 0.43558,0.1046 0.57152,0.27247 0.20364,0.25149 0.22063,0.60459 0.22063,4.58532 v 4.31285 h 5.1185 c 4.95601,0 5.12624,0.008 5.36224,0.24374 0.31162,0.31162 0.31162,0.78521 0,1.09683 -0.23668,0.23667 -0.40623,0.24373 -5.85525,0.24373 h -5.61152 z m 6.15992,-9.20666 c -0.44246,-0.44246 -0.3156,-0.78053 0.68645,-1.82937 l 0.93019,-0.97361 h -6.84083 c -6.678353,0 -6.846634,-0.006 -7.084583,-0.24374 -0.285602,-0.28561 -0.314401,-0.70983 -0.07081,-1.04307 0.166723,-0.22807 0.420745,-0.23874 7.077953,-0.29749 l 6.90502,-0.0609 -0.92356,-0.99405 c -0.50796,-0.54673 -0.92356,-1.09665 -0.92356,-1.22204 0,-0.38728 0.35237,-0.7697 0.70923,-0.7697 0.48708,0 3.83039,3.35486 3.83039,3.84362 0,0.27155 -0.341,0.67556 -1.76017,2.08546 -1.84506,1.83302 -2.0726,1.96806 -2.53572,1.50493 z"
       id="path6" /><path
       style="fill:#000000;stroke-width:0.320943"
       d="m 119.16729,117.72918 c 0.33668,-0.66348 0.59264,-1.25718 0.56878,-1.31935 -0.087,-0.2267 -0.53789,-0.35957 -1.5221,-0.44852 -2.64512,-0.23907 -5.70363,-0.99011 -8.18114,-2.00895 -0.97213,-0.39977 -2.88771,-1.31436 -2.88487,-1.37738 0.001,-0.0279 0.24214,-0.31454 0.53531,-0.63705 l 0.53303,-0.58639 2.50044,1.0699 c 4.32007,1.84849 5.35674,2.22687 8.19158,2.98989 1.44005,0.3876 1.56138,0.5456 1.09957,1.43191 -0.73274,1.4063 -1.18661,2.08186 -1.40441,2.09036 -0.0266,9.6e-4 0.22712,-0.54095 0.56381,-1.20442 z m -1.61938,-3.08074 c -0.18681,-0.062 -0.76073,-0.24775 -1.27537,-0.41274 -1.14792,-0.36802 -7.82213,-3.14281 -8.01587,-3.33259 -0.0195,-0.0191 -0.016,-0.054 0.008,-0.0777 0.0237,-0.0237 0.65863,0.24153 1.41106,0.58932 1.62611,0.75162 4.87315,2.05597 6.76864,2.719 0.74727,0.26139 1.43509,0.50992 1.5285,0.55229 0.26161,0.11869 -0.0321,0.0927 -0.42459,-0.0376 z m -18.002232,-1.27113 c -0.73731,-0.13423 -1.76405,-0.55575 -2.41901,-0.99312 -2.39379,-1.59851 -3.37359,-5.32492 -2.23719,-8.50856 0.50491,-1.41452 1.40751,-2.81102 2.43665,-3.77 1.01765,-0.948261 1.4276,-1.042288 2.694192,-0.61794 1.14657,0.384137 1.50821,0.60265 2.20302,1.33112 1.32325,1.38738 3.76804,4.64357 3.97504,5.29433 0.052,0.16346 0.28089,1.00414 0.50865,1.86816 0.32603,1.23682 0.49986,1.7294 0.81727,2.31593 0.35104,0.64868 0.38835,0.76394 0.28864,0.89162 -0.53867,0.68974 -1.06022,1.20763 -1.21307,1.20456 -0.0968,-0.002 -0.32176,-0.13234 -0.49994,-0.28976 l -0.32396,-0.28622 0.16599,-0.32588 c 0.2754,-0.54069 0.44011,-1.21887 0.42834,-1.76365 l -0.0111,-0.51532 -0.0649,0.46704 c -0.0846,0.60829 -0.26468,1.088 -0.60187,1.60305 -0.25329,0.3869 -0.35337,0.45421 -1.38415,0.93095 -1.97129,0.91173 -3.16172,1.30153 -3.90773,1.27957 -0.14321,-0.004 -0.527872,-0.0564 -0.854802,-0.11588 z m 1.553302,-0.51786 c 2.58974,-0.52189 4.57746,-2.89536 4.40533,-5.26027 -0.0938,-1.28952 -0.40135,-1.90689 -2.13829,-4.29309 -1.35023,-1.85495 -1.8504,-2.37725 -2.65885,-2.77651 -0.61493,-0.30369 -0.68283,-0.31812 -1.497232,-0.31812 -0.78854,0 -0.88522,0.0187 -1.27767,0.24745 -0.90696,0.52858 -2.14088,2.07765 -2.61989,3.28902 -0.3646,0.92206 -0.49753,1.64251 -0.49906,2.70487 -0.002,1.06045 0.12836,1.7658 0.4981,2.70488 0.49023,1.24509 1.72608,2.72526 2.72446,3.26304 0.51775,0.2789 1.53076,0.55937 2.044102,0.56596 0.20046,0.003 0.65901,-0.0547 1.019,-0.12723 z m -1.999062,-0.42388 c -1.59474,-0.42943 -3.03536,-2.03933 -3.68523,-4.11827 -0.16764,-0.53628 -0.19798,-0.81518 -0.19823,-1.82203 -2.1e-4,-0.86378 0.0402,-1.33975 0.14779,-1.74079 0.23897,-0.8907 0.8387,-2.01086 1.4779,-2.76038 1.06709,-1.25124 1.37558,-1.43936 2.36386,-1.4415 0.58958,-0.001 0.75496,0.0344 1.251732,0.26968 0.32678,0.15479 0.7472,0.4463 0.97976,0.67933 0.82612,0.82777 2.96226,3.82324 3.39905,4.76642 0.18552,0.40059 0.22875,0.63327 0.25599,1.37793 0.0287,0.78374 0.007,0.97092 -0.17545,1.49469 -0.81604,2.34652 -3.56237,3.90208 -5.817172,3.29492 z m 7.650842,-0.58786 c 0.0588,-0.15313 -0.0764,-0.24783 -0.25558,-0.17908 -0.10739,0.0412 -0.11276,0.0752 -0.028,0.17736 0.13269,0.15988 0.22268,0.16042 0.28358,0.002 z m 0.60721,-0.89551 c 0,-0.18202 -0.24674,-0.15572 -0.28253,0.0301 -0.0219,0.11349 0.0127,0.14807 0.12621,0.12622 0.086,-0.0166 0.15632,-0.0869 0.15632,-0.15632 z m -1.15113,-8.55207 c -0.10199,-0.0227 -0.16749,-0.2951 -0.28706,-1.19396 -0.23747,-1.784937 -0.79783,-4.346167 -1.14358,-5.226857 -0.12485,-0.318042 -0.93199,-1.113619 -1.62158,-1.598362 -0.30358,-0.213395 -2.11866,-1.180785 -4.033522,-2.149757 -1.91487,-0.968973 -3.53095,-1.824335 -3.5913,-1.900806 -0.21185,-0.268424 -1.10591,-1.752796 -1.07481,-1.78446 0.0357,-0.03633 2.49433,1.272999 3.74974,1.99688 2.347112,1.353366 4.389552,2.700634 5.770062,3.806145 0.98474,0.788574 1.49027,1.631252 2.01418,3.357483 0.4094,1.348934 0.9698,4.201284 0.87432,4.450114 -0.051,0.13288 -0.46448,0.2863 -0.65645,0.24358 z M 89.177088,99.713782 c -1.14508,-0.374396 -2.11766,-1.653185 -2.5923,-3.408465 -0.26993,-0.99823 -0.27127,-2.698346 -0.003,-3.690436 0.32259,-1.192593 1.19803,-3.20213 1.92513,-4.41906 0.2484,-0.415747 0.27409,-0.516767 0.23398,-0.919794 l -0.0451,-0.452755 0.45728,-0.466356 c 0.65375,-0.666731 0.69294,-0.679549 1.03417,-0.338329 0.16726,0.167266 0.62956,0.437385 1.10671,0.646646 0.67757,0.297158 0.89725,0.443422 1.26882,0.844758 1.00139,1.08162 2.2036,3.11139 2.82037,4.761808 0.37556,1.004967 0.29685,0.514504 -0.10221,-0.636873 -0.34347,-0.990999 -0.72698,-1.8455 -1.15949,-2.583471 -0.40681,-0.694107 -0.2729,-0.595641 0.28244,0.20768 0.49753,0.719695 1.3122,2.382326 1.64261,3.352328 0.2929,0.859874 0.48453,1.835885 0.48453,2.467774 0,0.516616 0.005,0.528395 0.54083,1.17118 0.51033,0.612683 1.58789,2.08673 1.76275,2.411326 0.0655,0.121663 0.0449,0.148298 -0.114,0.146915 -0.14792,-0.0013 -0.37116,-0.238442 -0.9392,-0.997764 -0.40984,-0.547844 -0.91938,-1.18714 -1.13231,-1.420659 l -0.38714,-0.424582 0.4733,0.679331 c 0.54769,0.786083 1.40948,2.195633 1.40853,2.303785 -6.5e-4,0.07353 -0.67833,0.494907 -0.71011,0.441541 -0.27521,-0.462162 -0.88128,-1.313399 -1.15354,-1.620186 -0.4248,-0.478677 -0.63612,-0.508855 -0.98574,-0.140781 -0.58813,0.619182 -2.33059,1.802988 -2.46135,1.672223 -0.0211,-0.02112 0.16225,-0.176959 0.40746,-0.34634 0.2452,-0.169378 0.73242,-0.602291 1.0827,-0.96203 l 0.63687,-0.65407 -0.57135,0.50209 c -0.71954,0.632319 -1.8274,1.306368 -2.7257,1.658372 -0.81061,0.31764 -1.88624,0.410316 -2.48606,0.214194 z m 2.04431,-0.293984 c 0.7195,-0.2429 1.38567,-0.688166 2.11971,-1.416791 1.32536,-1.315597 1.98031,-2.93172 1.89457,-4.674939 -0.0329,-0.668014 -0.0831,-0.871983 -0.38118,-1.547479 -0.42273,-0.957935 -1.51679,-2.806086 -1.98626,-3.355265 -0.4573,-0.534954 -1.10631,-0.906992 -1.58405,-0.908038 -0.53324,-0.0013 -0.96204,0.259136 -1.86355,1.131267 -0.91052,0.880845 -1.57148,1.81581 -2.01317,2.847761 -1.05036,2.454015 -0.93119,4.800286 0.34131,6.71962 0.85656,1.291956 2.0185,1.694772 3.47262,1.203864 z m -2.0355,-0.385504 c -0.8049,-0.377202 -1.52568,-1.395763 -1.87544,-2.650256 -0.20751,-0.744309 -0.25492,-2.482419 -0.0872,-3.198314 0.43234,-1.845639 1.6594,-3.753855 3.15672,-4.909025 0.38841,-0.299655 0.53651,-0.363934 0.8385,-0.363934 0.50244,0 1.06594,0.346455 1.50123,0.922997 0.53131,0.703716 1.74005,2.869467 1.95741,3.507178 0.47761,1.401247 -0.008,3.54258 -1.10382,4.868855 -1.35118,1.63511 -3.17268,2.391753 -4.38738,1.822499 z m 0.18377,-11.99055 c 0.0708,-0.184436 -0.1089,-0.357881 -0.23751,-0.229275 -0.10869,0.108697 -0.0414,0.362357 0.0962,0.362357 0.0496,0 0.11322,-0.05989 0.14131,-0.133082 z m 0.62293,-0.631164 c 0,-0.09341 -0.0551,-0.169833 -0.12236,-0.169833 -0.15001,0 -0.24592,0.139742 -0.17484,0.254748 0.0923,0.149419 0.2972,0.09089 0.2972,-0.08492 z m 9.51062,4.442374 c -0.60433,-0.373174 -2.33224,-1.322751 -4.7314,-2.600153 -0.59695,-0.317837 -1.18089,-0.65578 -1.29765,-0.750982 -0.25857,-0.210821 2.66783,1.277787 3.90614,1.986992 1.60039,0.916565 2.964092,1.779463 2.781012,1.759702 -0.0117,-0.0013 -0.307822,-0.179263 -0.658102,-0.395559 z"
       id="path7" /><g
       id="g9"
       transform="matrix(0.3076923,0,0,0.3076923,-55.418068,10.265742)"><path
         style="fill:#000000"
         d="m 218.64181,72.462349 c -0.78163,-0.781629 -0.79806,-0.850689 -0.67649,-2.844271 0.0685,-1.123755 0.34888,-3.293347 0.623,-4.821316 0.63546,-3.542115 0.63871,-12.561049 0.01,-26.456726 -0.79996,-17.667927 -0.47258,-23.06198 2.09983,-34.5977061 1.05719,-4.74083799 1.08727,-5.496514 0.7819,-19.6434869 -0.23598,-10.932698 -0.18452,-11.398735 1.43788,-13.021138 l 1.00178,-1.001779 h 3.5827 c 3.43411,0 3.61526,0.02739 4.36763,0.660473 1.42403,1.198237 1.63483,2.219847 1.79257,8.687158 l 0.14307,5.865911 1.17356,0.08064 1.17356,0.08064 10e-4,-5.636892 c 8.6e-4,-3.296032 0.1228,-6.073915 0.29363,-6.689261 0.16266,-0.585889 0.73461,-1.494816 1.29032,-2.050521 l 0.99815,-0.998153 h 3.49601 c 4.05815,0 4.71416,0.270475 5.61938,2.316885 0.49766,1.125034 0.5167,1.745111 0.44758,14.576463 l -0.0722,13.40144488 0.82699,3.30729102 c 2.46994,9.8777391 2.95141,16.5848411 2.30767,32.1468761 -0.5365,12.969654 -0.45005,24.020517 0.19975,25.532293 0.67815,1.577745 1.54415,2.145321 4.09614,2.684598 2.90588,0.61406 4.18355,1.443772 5.14709,3.342481 0.95666,1.88516 1.2673,4.630011 0.6066,5.360067 -0.43364,0.479174 -0.83661,0.519104 -5.23863,0.519104 h -4.76885 l -0.84822,-0.926041 c -0.46653,-0.509323 -1.05423,-0.926042 -1.30602,-0.926042 -0.25179,0 -0.8395,0.416719 -1.30602,0.926042 l -0.84822,0.926041 h -3.06972 -3.06971 l -0.81411,-0.814102 c -0.94819,-0.948197 -0.9922,-1.44308 -0.3881,-4.364209 0.48031,-2.322517 0.42329,-3.136223 -0.53631,-7.653981 -0.42141,-1.983967 -0.7852,-4.911923 -0.96977,-7.805208 -0.2368,-3.711949 -0.49709,-5.495996 -1.31251,-8.995834 -0.55943,-2.401094 -1.22502,-5.464233 -1.47908,-6.806976 -0.25407,-1.342744 -0.49427,-2.40903 -0.53377,-2.369525 -0.0395,0.0395 -0.49718,2.090613 -1.01705,4.558018 -0.51987,2.467405 -1.47033,6.510254 -2.11214,8.984108 -0.64181,2.473854 -1.30938,5.500737 -1.48348,6.726407 -0.35694,2.512941 -0.1889,6.833084 0.4279,11.000677 0.74353,5.023876 0.74338,5.020614 0.27506,6.00754 -0.24288,0.511829 -0.73912,1.066158 -1.10276,1.231842 -0.41842,0.190644 -2.46115,0.301243 -5.56385,0.301243 h -4.90269 z m 10.45952,-2.666369 c -0.084,-2.588755 -1.55692,-4.006001 -4.32015,-4.156966 -1.46816,-0.08021 -1.86029,-0.002 -2.62743,0.523921 -1.40389,0.962485 -1.9495,1.884464 -2.08546,3.524037 l -0.12212,1.472572 4.59736,-0.07254 4.59735,-0.07254 z m 17.61013,0.579653 c 1.16489,-1.088175 2.60808,-1.286237 4.10214,-0.562975 0.64155,0.310568 1.23289,0.737792 1.31409,0.949387 0.11949,0.311396 0.85857,0.384718 3.87793,0.384718 3.42466,0 3.71989,-0.03794 3.60328,-0.463021 -0.0699,-0.254662 -0.20088,-0.87974 -0.29115,-1.389063 -0.31317,-1.766948 -1.7021,-2.83388 -4.13721,-3.178082 -3.08979,-0.436739 -5.20752,-2.126709 -5.82277,-4.646626 -0.1395,-0.571359 -0.32842,-3.568912 -0.41982,-6.66123 l -0.16618,-5.622396 h -4.33745 -4.33746 l 0.16653,2.711979 c 0.18837,3.067632 0.96409,8.337165 1.56943,10.661194 0.5118,1.964958 0.51191,3.546216 3.9e-4,5.977887 -0.2225,1.057734 -0.3453,2.077549 -0.27289,2.266255 0.0925,0.241146 0.75481,0.343103 2.22865,0.343103 1.95111,0 2.15442,-0.05365 2.92249,-0.77113 z m -24.75514,-6.504912 c 1.22509,-0.511877 4.15272,-0.509987 5.3816,0.0035 0.52699,0.220191 0.98314,0.369019 1.01367,0.330729 0.0305,-0.03829 -0.0566,-1.022119 -0.19369,-2.186286 -0.42,-3.5677 0.0462,-9.351754 0.99475,-12.340207 0.14762,-0.4651 -0.0661,-0.492094 -3.89654,-0.492244 l -4.05273,-1.59e-4 v 6.01943 c 0,3.310687 -0.0903,6.70404 -0.20075,7.540784 -0.11041,0.836745 -0.15471,1.521355 -0.0985,1.521355 0.0563,0 0.52972,-0.178594 1.05214,-0.396875 z m 8.69807,-19.976043 c 1.00326,-4.149032 1.90627,-8.673472 2.61395,-13.096875 0.32594,-2.037292 0.70604,-3.852995 0.84466,-4.034896 0.29575,-0.388074 1.40982,-0.442583 1.63394,-0.07995 0.0852,0.137931 0.44428,2.013166 0.79786,4.167187 0.74889,4.562314 1.9982,10.632932 2.84786,13.838279 l 0.59614,2.248959 4.21315,0.0731 c 2.31724,0.0402 4.30214,-0.01933 4.4109,-0.132292 0.10877,-0.112964 0.39967,-5.187758 0.64645,-11.27732 0.59475,-14.676095 0.20091,-20.818935 -1.93646,-30.2030711 l -0.72315,-3.175 -11.70597,-0.0689 c -6.43828,-0.03789 -11.70596,-0.0073 -11.70596,0.06809 0,0.07534 -0.34981,1.713692 -0.77736,3.640773 -1.14474,5.1597401 -1.86854,10.8398391 -2.04792,16.0714931 -0.14132,4.121603 0.14996,14.866722 0.60803,22.42969 l 0.16464,2.718232 4.39175,-0.0724 4.39176,-0.0724 z m 3.53247,-21.847024 c -0.35834,-0.358344 -0.41577,-1.447748 -0.41577,-7.886931 0,-8.0653001 0.0705,-8.5039031 1.33774,-8.3250281 l 0.64664,0.09127 0.0701,7.9055831 c 0.0707,7.971874 0.004,8.630876 -0.87738,8.630876 -0.19007,0 -0.53268,-0.187099 -0.76136,-0.415774 z m 11.88736,-27.4276851 v -5.3533759 l -2.91042,-0.754108 c -5.34567,-1.385098 -12.67298,-1.254897 -17.83421,0.3169 l -1.48037,0.450832 -0.0139,5.3468129 -0.0139,5.34681398 11.12641,-2.49e-4 11.12642,-2.49e-4 z m -16.09549,-0.907931 c -0.36554,-0.365537 -0.15673,-1.403015 0.33538,-1.666386 0.29159,-0.156053 2.33247,-0.273892 4.7436,-0.273892 3.49434,0 4.30429,0.07246 4.64761,0.415774 0.49715,0.497156 0.52948,0.952186 0.0983,1.383393 -0.34269,0.342687 -9.49188,0.474093 -9.82486,0.141111 z m -4.21129,-7.1360609 0.8599,-0.165121 v -6.411992 c 0,-6.127952 -0.0248,-6.443512 -0.5597,-7.123533 -0.75028,-0.953834 -1.55819,-0.81282 -2.15187,0.375595 -0.40239,0.8055 -0.46266,1.765243 -0.46302,7.373032 l -4.1e-4,6.446991 0.7276,-0.164925 c 0.40019,-0.09071 1.11456,-0.23923 1.5875,-0.330047 z m 20.43907,-6.168851 c 0,-7.084617 -0.11851,-7.836799 -1.28063,-8.128472 -0.86203,-0.216356 -1.54421,0.60059 -1.7604,2.108154 -0.0878,0.612192 -0.12409,3.548246 -0.0806,6.524564 l 0.079,5.411488 1.19062,0.317224 c 0.65485,0.174474 1.33946,0.328914 1.52136,0.3432 0.25644,0.02014 0.33073,-1.456986 0.33073,-6.576158 z m -14.87415,-0.541616 c 0.0411,-3.128698 0.0112,-5.948107 -0.0665,-6.265353 -0.23024,-0.939503 -0.89697,-1.407564 -2.005,-1.407564 -0.99941,0 -1.02452,0.022 -0.77485,0.678682 0.14192,0.373276 0.25804,3.389526 0.25804,6.702778 0,3.313253 0.0578,6.081934 0.12853,6.152626 0.0707,0.07069 0.63624,0.06077 1.25677,-0.02205 l 1.12824,-0.150579 z m 9.97538,-7.094542 c 0.19775,-0.585332 0.15585,-0.608597 -0.95292,-0.529167 -1.02586,0.07349 -1.2135,0.190009 -1.62514,1.009125 -0.40816,0.812217 -0.45694,1.625249 -0.39687,6.614584 l 0.0685,5.688541 1.19062,0.132292 1.19063,0.132292 0.15917,-6.217709 c 0.0875,-3.419739 0.25225,-6.493221 0.36602,-6.829958 z"
         id="path9" /><path
         style="fill:#009fff;fill-opacity:1"
         d="m 195.89996,60.503481 c -2.5943,-0.515505 -6.38422,-2.434072 -8.19985,-4.15101 -1.61154,-1.523931 -1.78182,-2.027387 -0.96278,-2.846434 0.79124,-0.791237 1.27867,-0.66392 3.31071,0.864754 3.33006,2.505153 6.04864,3.440657 9.89424,3.404751 3.52764,-0.03294 6.71727,-1.224895 9.576,-3.578529 0.8151,-0.671079 1.70891,-1.220143 1.98626,-1.220143 0.27734,0 1.15826,0.543685 1.95759,1.208188 5.78043,4.805401 13.70708,4.846619 19.61896,0.102018 0.89791,-0.720613 1.83165,-1.310206 2.075,-1.310206 0.24334,0 1.1694,0.583423 2.0579,1.296496 5.9209,4.751835 13.85675,4.716146 19.63604,-0.08831 0.79934,-0.664503 1.67057,-1.208188 1.93608,-1.208188 0.26551,0 1.15272,0.545762 1.97158,1.212804 5.88851,4.796747 13.7282,4.83754 19.65196,0.102257 0.90482,-0.723283 1.84532,-1.315061 2.09,-1.315061 0.6238,0 1.2531,0.549969 1.4728,1.287136 0.15699,0.526727 -0.0538,0.852908 -1.33293,2.062491 -2.83342,2.679395 -7.85172,4.587873 -12.06371,4.587873 -3.42483,0 -7.55979,-1.324652 -10.31597,-3.304772 -0.71087,-0.510709 -1.33598,-0.928561 -1.38913,-0.928561 -0.0532,0 -0.87854,0.524316 -1.83418,1.165146 -6.0371,4.048314 -13.82534,4.056352 -20.06381,0.02071 l -1.81663,-1.175178 -1.81664,1.175178 c -2.22947,1.442232 -4.0692,2.186935 -6.60716,2.674501 -4.83888,0.929593 -9.97259,-0.158467 -13.83286,-2.931792 -0.71087,-0.510709 -1.35147,-0.928561 -1.42355,-0.928561 -0.0721,0 -0.71269,0.417852 -1.42356,0.928561 -3.89957,2.801559 -9.18153,3.881619 -14.15236,2.893883 z m -0.90352,-24.729462 c -1.06004,-0.27773 -2.74271,-0.933422 -3.73925,-1.457094 -1.74808,-0.918586 -4.42422,-2.972465 -4.86672,-3.735093 -0.31078,-0.535607 0.0272,-1.36915 0.74606,-1.84019 0.74476,-0.487981 1.25691,-0.279028 2.9506,1.203816 2.27125,1.988501 6.3218,3.437349 9.63861,3.447652 1.8245,0.0057 5.03589,-0.793209 6.81721,-1.695873 0.73454,-0.372218 2.0127,-1.228329 2.84036,-1.902469 0.82766,-0.674141 1.76932,-1.22571 2.09257,-1.22571 0.32325,0 1.2649,0.551569 2.09256,1.22571 0.82766,0.67414 2.10583,1.530251 2.84036,1.902469 1.78133,0.902664 4.99271,1.70154 6.81721,1.695873 3.32689,-0.01033 7.33788,-1.432542 9.58151,-3.397388 2.22317,-1.946926 2.47396,-1.946926 4.69713,0 2.24363,1.964846 6.25462,3.387054 9.58151,3.397388 1.81699,0.0056 5.03387,-0.792192 6.79749,-1.685885 0.72369,-0.366725 2.06594,-1.268796 2.98278,-2.004603 1.93589,-1.553661 2.11283,-1.547077 4.10546,0.152763 2.45129,2.091107 6.34849,3.517804 9.63835,3.52843 3.26061,0.01053 7.343,-1.449377 9.61479,-3.438357 1.69369,-1.482844 2.20584,-1.691797 2.9506,-1.203816 1.27904,0.838058 1.15334,1.462503 -0.62335,3.096598 -6.03801,5.553426 -16.0791,6.030129 -22.65279,1.075447 l -1.05346,-0.794009 -1.24048,0.910592 c -2.94874,2.164573 -6.55443,3.27998 -10.58141,3.273315 -4.15213,-0.0069 -7.84827,-1.156937 -10.69033,-3.326327 l -1.17772,-0.898976 -1.17773,0.898976 c -5.88455,4.491781 -15.43296,4.463468 -21.43928,-0.06357 l -1.05346,-0.794009 -1.1955,0.870995 c -1.71972,1.252924 -3.64555,2.166345 -5.86308,2.780853 -2.56413,0.710558 -6.72385,0.711658 -9.4306,0.0025 z"
         id="path8"
         sodipodi:nodetypes="ssssssssssssssssssssssscsssssssssscscsssssssscsssssssscssscsscssss" /></g><g
       id="g12"
       transform="matrix(0.36204644,0,0,0.36204644,65.767348,62.852197)"><path
         inkscape:original-d="M 0,0"
         inkscape:path-effect="#path-effect11"
         d="m 214.93468,9.3213149 c -0.50873,0.00468 -1.05272,0.093777 -1.64383,0.265617 -1.76486,0.5130591 -3.30199,2.1013831 -4.45347,4.6007531 -0.44781,0.972022 -0.84407,1.806657 -0.88057,1.854667 -0.0364,0.04801 -0.37971,-0.118002 -0.76274,-0.36897 -0.59097,-0.387221 -0.79279,-0.404966 -1.33222,-0.116272 -0.62197,0.332871 -1.44863,1.941364 -1.46503,2.850472 -0.005,0.251717 -0.29965,-0.137281 -0.65577,-0.864547 -0.73055,-1.491936 -1.27151,-1.984891 -2.17765,-1.984891 -0.47746,0 -0.74364,0.263837 -1.1343,1.124479 -0.28073,0.618464 -0.51324,1.332839 -0.51624,1.5875 -0.0106,0.842694 -0.51674,0.481302 -1.19166,-0.850594 -0.36606,-0.72238 -0.89118,-1.434274 -1.16686,-1.581816 -0.77015,-0.412172 -1.80191,0.539436 -2.07326,1.911511 l -0.22117,1.116211 h -1.30793 -1.30845 l -0.31006,-1.39578 c -0.17044,-0.767551 -0.45588,-1.571223 -0.63407,-1.785938 -0.75614,-0.91109 -1.8014,-0.143632 -2.62826,1.929598 l -0.34468,0.865064 -0.60565,-1.306897 c -1.23933,-2.674956 -2.8634,-2.487279 -3.84576,0.444417 l -0.4191,1.249536 -1.59576,0.07751 -1.59629,0.07803 -0.16795,-1.049548 c -0.18993,-1.187767 -1.30413,-2.677873 -2.00246,-2.677873 -0.62757,0 -1.20558,0.685751 -1.90221,2.25826 l -0.58187,1.313615 -0.43202,-1.289843 c -0.51111,-1.525025 -1.58129,-2.570872 -2.40916,-2.354379 -0.71187,0.18616 -1.48779,1.437867 -1.71152,2.762106 l -0.17105,1.014408 h -1.65674 c -1.40502,0 -1.81368,-0.114797 -2.68873,-0.755509 -1.39295,-1.019916 -3.62229,-3.420258 -5.59449,-6.023922 -0.8954,-1.182099 -1.80116,-2.215808 -2.0128,-2.2970181 -1.32016,-0.506586 -2.1355,2.8327911 -1.40973,5.7738081 0.92988,3.768108 2.73445,6.623265 5.61671,8.888347 1.36935,1.076129 1.70687,1.487226 1.70687,2.077909 0,1.915168 1.79336,5.026739 4.39974,7.633126 l 1.68568,1.685685 v 3.679362 c 0,3.32689 0.0507,3.73061 0.52917,4.209045 0.48497,0.484976 0.88195,0.529167 4.7532,0.529167 3.95323,0 4.24217,-0.03392 4.50721,-0.529167 0.25748,-0.481087 0.55368,-0.529166 3.26337,-0.529166 3.04297,0 3.6158,-0.169449 3.6158,-1.070219 0,-0.239383 -0.23813,-0.650767 -0.52917,-0.914156 -0.42326,-0.383037 -0.52916,-0.815242 -0.52916,-2.158008 V 37.51856 h 5.55625 5.55625 v 3.027723 c 0,4.020914 -0.25266,3.851444 5.74125,3.851444 h 4.5651 l 0.43356,-0.661458 c 0.41954,-0.640298 0.52787,-0.661459 3.39256,-0.661459 3.05287,0 3.59461,-0.167722 3.59461,-1.11156 0,-0.261938 -0.26789,-0.743752 -0.59531,-1.070735 -0.54147,-0.540741 -0.60348,-0.889343 -0.68368,-3.857129 -0.0759,-2.807713 -0.0237,-3.334052 0.37207,-3.771346 0.44147,-0.487822 0.97147,-0.50798 13.22193,-0.50798 13.50908,0 15.85324,-0.170216 18.0945,-1.314131 1.96621,-1.003529 2.74883,-2.539247 2.62258,-5.14594 -0.0908,-1.874438 -0.0834,-1.898612 0.88677,-2.869592 1.52561,-1.52686 1.90053,-3.46597 1.03766,-5.365564 -0.59273,-1.304893 -1.83247,-2.390369 -3.14864,-2.755904 -0.59645,-0.165651 -4.9191,-0.273508 -10.97556,-0.274402 l -9.99112,-0.0015 -0.62063,-1.403532 c -1.56811,-3.545797 -4.35822,-4.9949641 -7.01095,-3.6416381 -0.9774,0.4986271 -1.02052,0.4992391 -1.74769,0.022221 -0.71075,-0.4662385 -1.46154,-0.6925205 -2.30942,-0.6847135 z"
         id="path12"
         style="fill:#00720c;fill-opacity:1" /><path
         id="path11"
         style="fill:#000000"
         d="m 214.93468,9.3213149 c -0.50873,0.00468 -1.05272,0.093777 -1.64383,0.265617 -1.76486,0.5130591 -3.30199,2.1013831 -4.45347,4.6007531 -0.44781,0.972022 -0.84407,1.806657 -0.88057,1.854667 -0.0364,0.04801 -0.37971,-0.118002 -0.76274,-0.36897 -0.59097,-0.387221 -0.79279,-0.404966 -1.33222,-0.116272 -0.62197,0.332871 -1.44863,1.941364 -1.46503,2.850472 -0.005,0.251717 -0.29965,-0.137281 -0.65577,-0.864547 -0.73055,-1.491936 -1.27151,-1.984891 -2.17765,-1.984891 -0.47746,0 -0.74364,0.263837 -1.1343,1.124479 -0.28073,0.618464 -0.51324,1.332839 -0.51624,1.5875 -0.0106,0.842694 -0.51674,0.481302 -1.19166,-0.850594 -0.36606,-0.72238 -0.89118,-1.434274 -1.16686,-1.581816 -0.77015,-0.412172 -1.80191,0.539436 -2.07326,1.911511 l -0.22117,1.116211 h -1.30793 -1.30845 l -0.31006,-1.39578 c -0.17044,-0.767551 -0.45588,-1.571223 -0.63407,-1.785938 -0.75614,-0.91109 -1.8014,-0.143632 -2.62826,1.929598 l -0.34468,0.865064 -0.60565,-1.306897 c -1.23933,-2.674956 -2.8634,-2.487279 -3.84576,0.444417 l -0.4191,1.249536 -1.59576,0.07751 -1.59629,0.07803 -0.16795,-1.049548 c -0.18993,-1.187767 -1.30413,-2.677873 -2.00246,-2.677873 -0.62757,0 -1.20558,0.685751 -1.90221,2.25826 l -0.58187,1.313615 -0.43202,-1.289843 c -0.51111,-1.525025 -1.58129,-2.570872 -2.40916,-2.354379 -0.71187,0.18616 -1.48779,1.437867 -1.71152,2.762106 l -0.17105,1.014408 h -1.65674 c -1.40502,0 -1.81368,-0.114797 -2.68873,-0.755509 -1.39295,-1.019916 -3.62229,-3.420258 -5.59449,-6.023922 -0.8954,-1.182099 -1.80116,-2.215808 -2.0128,-2.2970181 -1.32016,-0.506586 -2.1355,2.8327911 -1.40973,5.7738081 0.92988,3.768108 2.73445,6.623265 5.61671,8.888347 1.36935,1.076129 1.70687,1.487226 1.70687,2.077909 0,1.915168 1.79336,5.026739 4.39974,7.633126 l 1.68568,1.685685 v 3.679362 c 0,3.32689 0.0507,3.73061 0.52917,4.209045 0.48497,0.484976 0.88195,0.529167 4.7532,0.529167 3.95323,0 4.24217,-0.03392 4.50721,-0.529167 0.25748,-0.481087 0.55368,-0.529166 3.26337,-0.529166 3.04297,0 3.6158,-0.169449 3.6158,-1.070219 0,-0.239383 -0.23813,-0.650767 -0.52917,-0.914156 -0.42326,-0.383037 -0.52916,-0.815242 -0.52916,-2.158008 V 37.51856 h 5.55625 5.55625 v 3.027723 c 0,4.020914 -0.25266,3.851444 5.74125,3.851444 h 4.5651 l 0.43356,-0.661458 c 0.41954,-0.640298 0.52787,-0.661459 3.39256,-0.661459 3.05287,0 3.59461,-0.167722 3.59461,-1.11156 0,-0.261938 -0.26789,-0.743752 -0.59531,-1.070735 -0.54147,-0.540741 -0.60348,-0.889343 -0.68368,-3.857129 -0.0759,-2.807713 -0.0237,-3.334052 0.37207,-3.771346 0.44147,-0.487822 0.97147,-0.50798 13.22193,-0.50798 13.50908,0 15.85324,-0.170216 18.0945,-1.314131 1.96621,-1.003529 2.74883,-2.539247 2.62258,-5.14594 -0.0908,-1.874438 -0.0834,-1.898612 0.88677,-2.869592 1.52561,-1.52686 1.90053,-3.46597 1.03766,-5.365564 -0.59273,-1.304893 -1.83247,-2.390369 -3.14864,-2.755904 -0.59645,-0.165651 -4.9191,-0.273508 -10.97556,-0.274402 l -9.99112,-0.0015 -0.62063,-1.403532 c -1.56811,-3.545797 -4.35822,-4.9949641 -7.01095,-3.6416381 -0.9774,0.4986271 -1.02052,0.4992391 -1.74769,0.022221 -0.71075,-0.4662384 -1.46154,-0.6925204 -2.30942,-0.6847134 z m -0.28939,1.7042891 c 1.2197,-0.0025 2.32278,0.764982 2.65824,2.133203 0.23108,0.942531 0.85989,1.445847 0.85989,0.68833 0,-1.334325 1.57445,-2.78691 3.02049,-2.78691 1.22448,0 3.59409,2.704932 3.59409,4.102592 0,0.230693 0.28637,0.705462 0.63614,1.055233 l 0.63562,0.636137 9.22011,-0.158647 c 5.07088,-0.08728 9.92441,-0.07054 10.78591,0.03772 1.84227,0.23151 2.8492,1.047858 3.29799,2.673222 0.43978,1.592756 -0.22186,2.693978 -2.21847,3.692281 l -1.5875,0.79375 -10.53269,0.07751 c -10.96345,0.08077 -13.79727,-0.119047 -16.25431,-1.145666 -0.86254,-0.360418 -1.00288,-0.359822 -1.36994,0.0072 -0.89034,0.890347 0.73332,1.790784 4.50825,2.499073 1.62655,0.305191 1.81054,0.411649 2.57452,1.495516 1.0121,1.435873 1.79933,1.53523 2.79415,0.35295 0.37674,-0.447728 0.68522,-0.923979 0.68522,-1.058334 0,-0.618905 0.99727,-0.12098 1.65107,0.824239 0.98462,1.423506 1.79937,1.420749 2.74608,-0.0098 0.3852,-0.582083 0.83325,-1.053598 0.99581,-1.047998 0.16256,0.0056 0.53433,0.389538 0.8263,0.853695 0.29196,0.464158 0.86975,0.963238 1.28416,1.108976 0.66092,0.232434 0.82978,0.176397 1.37356,-0.455786 0.34096,-0.396386 0.74319,-0.929445 0.894,-1.184941 0.24406,-0.413483 0.3791,-0.340983 1.2268,0.659908 1.17649,1.389111 1.91753,1.457358 2.87321,0.264583 0.37893,-0.472942 0.79384,-0.990366 0.92191,-1.1498 0.12808,-0.159434 1.00059,-0.361448 1.9389,-0.449068 0.93832,-0.08762 1.87371,-0.195272 2.07843,-0.239262 0.26871,-0.05774 0.39276,0.250998 0.44596,1.110526 0.15136,2.443608 -1.48306,3.913839 -4.98109,4.481381 -1.02095,0.165645 -6.89569,0.277852 -14.61099,0.279052 l -12.90361,0.0021 -1.07383,0.677478 c -1.10863,0.699847 -4.31651,2.039814 -5.59656,2.337842 -0.7126,0.16591 -0.72761,0.144867 -0.72761,-1.043347 0,-1.16744 -0.0275,-1.210207 -0.7276,-1.129647 l -0.7276,0.08372 v 5.365564 5.366081 l -3.04271,-0.07441 -3.04271,-0.0739 v -4.813143 c 0,-5.093442 -0.15766,-5.819269 -1.13171,-5.20795 -0.32512,0.204048 -0.47867,0.715579 -0.53537,1.78387 l -0.0796,1.497066 -8.91626,-0.06925 -8.91625,-0.06976 -0.13229,-1.560629 c -0.15586,-1.83858 -0.79559,-2.531703 -1.48983,-1.614371 -0.33143,0.437968 -0.38573,1.361231 -0.31523,5.357812 l 0.0853,4.828646 h -2.71198 -2.71198 V 38.973769 35.13731 l -2.05052,-2.054138 c -2.28787,-2.291707 -3.70319,-4.650676 -4.16099,-6.936011 -0.24313,-1.2137 -0.44238,-1.553316 -1.20716,-2.057755 -3.56081,-2.348668 -6.35913,-7.310923 -6.02599,-10.685136 l 0.0832,-0.845427 1.37356,1.852084 c 1.44847,1.952377 4.36198,4.829679 5.74332,5.672005 0.78553,0.479007 1.6685,0.499927 20.79666,0.497127 15.3263,-0.0022 20.12521,-0.07894 20.61735,-0.329695 0.48281,-0.246001 0.72598,-0.700154 0.9834,-1.836581 0.47685,-2.105208 2.25163,-5.514072 3.39204,-6.515364 0.67502,-0.59267 1.44893,-0.87132 2.18075,-0.872815 z m -0.0434,1.377177 c -0.3707,0.01111 -0.76109,0.169799 -1.06247,0.502811 -0.44269,0.489177 -0.44515,0.56487 -0.0351,1.190625 0.24082,0.367531 0.634,0.668177 0.87385,0.668177 0.58138,0 1.40405,-0.768078 1.40405,-1.311031 0,-0.677714 -0.56245,-1.069092 -1.18029,-1.050582 z m 6.17585,0.03876 c -0.23581,7.95e-4 -0.46143,0.06593 -0.63355,0.208773 -0.47374,0.393204 -0.51458,1.357657 -0.076,1.796273 0.44044,0.440442 0.84797,0.397757 1.53893,-0.161748 0.43365,-0.351144 0.54318,-0.634289 0.40876,-1.057816 -0.1516,-0.47765 -0.71937,-0.787231 -1.23817,-0.785482 z m -47.23071,4.60437 c 0.14482,0.0021 0.29174,0.104271 0.41238,0.329696 0.15567,0.290871 0.28319,0.774777 0.28319,1.075386 0,0.406609 -0.16937,0.546737 -0.66146,0.546737 -0.55231,0 -0.66146,-0.125989 -0.66146,-0.761711 0,-0.715596 0.30876,-1.194781 0.62735,-1.190108 z m 4.94027,0.09974 c 0.002,-1.44e-4 0.004,0 0.005,0 0.26316,0 0.7755,1.500843 0.57929,1.697054 -0.25447,0.254471 -1.38958,0.175147 -1.38958,-0.09715 0,-0.413055 0.58995,-1.581671 0.80512,-1.599902 z m 7.66465,0 c 0.0884,0 0.19189,0.08819 0.36328,0.264583 0.2121,0.218281 0.42504,0.635001 0.47284,0.926042 0.0669,0.407307 -0.0807,0.548442 -0.64078,0.612882 -0.60934,0.07011 -0.72647,-0.01591 -0.72347,-0.529167 0.002,-0.337087 0.11673,-0.791476 0.25476,-1.009757 0.11154,-0.176389 0.18495,-0.264583 0.27337,-0.264583 z m 20.49642,0.16123 c 0.28226,0.0084 0.68402,1.321026 0.46354,1.541508 -0.22374,0.223741 -1.06963,0.179351 -1.22008,-0.06408 -0.16819,-0.272134 0.41827,-1.437642 0.74311,-1.476912 0.004,-5.34e-4 0.009,-6.5e-4 0.0134,-5.17e-4 z m -16.02796,0.111104 c 0.16091,9.37e-4 0.29094,0.282395 0.29094,0.785999 0,0.529166 -0.13229,0.79375 -0.39688,0.79375 -0.4154,0 -0.50825,-0.459864 -0.23616,-1.168921 0.10773,-0.280728 0.232,-0.411469 0.3421,-0.410828 z m 11.26288,0.02842 c 0.11573,-0.007 0.23121,0.167799 0.42323,0.526583 0.23498,0.438994 0.22243,0.612647 -0.0568,0.789616 -0.76284,0.483276 -1.20126,0.01003 -0.75809,-0.818038 0.17382,-0.324788 0.28299,-0.491584 0.39171,-0.498161 z m -4.61936,0.22841 c 0.28437,0 0.56074,0.788539 0.37931,1.082105 -0.16787,0.271605 -0.48548,0.313435 -0.7059,0.09302 -0.20061,-0.200608 0.0702,-1.175122 0.32659,-1.175122 z m -19.87372,3.487126 c -0.0648,-3.71e-4 -0.131,0.0189 -0.1974,0.05994 -0.32728,0.20227 -0.42692,2.856603 -0.11886,3.164664 0.51039,0.510396 1.00822,-0.02234 1.08262,-1.158069 0.0723,-1.104739 -0.313,-2.063942 -0.76636,-2.06654 z m 8.36228,0.08578 c -0.10888,0.005 -0.22713,0.06641 -0.35088,0.190169 -0.39615,0.39613 -0.40687,2.64979 -0.0145,3.042192 0.61082,0.61082 1.02629,0.05367 1.02629,-1.377177 0,-1.169224 -0.27209,-1.873055 -0.66094,-1.855184 z m 7.93698,0.26355 c -0.42438,0 -0.54611,0.204473 -0.61391,1.033012 -0.0465,0.568212 -0.0144,1.312351 0.0713,1.653645 0.0994,0.395886 0.35003,0.620634 0.69246,0.620634 0.49038,0 0.52986,-0.142714 0.45786,-1.653646 -0.0691,-1.451 -0.1434,-1.653645 -0.60772,-1.653645 z m -24.14271,0.167948 c -0.27531,0.001 -0.33125,0.266465 -0.33125,1.223698 0,0.714021 0.0819,1.379967 0.18191,1.480013 0.43667,0.436675 0.74414,-0.101608 0.74414,-1.302763 0,-1.025112 -0.0971,-1.316019 -0.46302,-1.386479 -0.0488,-0.0094 -0.0924,-0.01462 -0.13178,-0.01447 z m 32.60938,0.09663 c -0.44556,0 -0.54233,0.20374 -0.61133,1.289327 -0.0451,0.709114 -0.0154,1.462137 0.0656,1.673283 0.081,0.211148 0.3557,0.343685 0.61081,0.294555 0.38042,-0.07327 0.46406,-0.374145 0.46406,-1.673282 0,-1.407487 -0.0589,-1.583883 -0.52917,-1.583883 z m 23.53241,3.836458 c 0.22687,0 0.41238,0.119063 0.41238,0.264584 0,0.14552 -0.11214,0.264583 -0.24908,0.264583 -0.13693,0 -0.32248,-0.119063 -0.41238,-0.264583 -0.0899,-0.145521 0.0222,-0.264584 0.24908,-0.264584 z m 5.17488,0 c 0.14552,0 0.26458,0.119063 0.26458,0.264584 0,0.14552 -0.11906,0.264583 -0.26458,0.264583 -0.14552,0 -0.26458,-0.119063 -0.26458,-0.264583 0,-0.145521 0.11906,-0.264584 0.26458,-0.264584 z m 4.9103,0 c 0.22687,0 0.33898,0.119063 0.24908,0.264584 -0.0899,0.14552 -0.27545,0.264583 -0.41238,0.264583 -0.13693,0 -0.24908,-0.119063 -0.24908,-0.264583 0,-0.145521 0.18551,-0.264584 0.41238,-0.264584 z m 4.6147,0 c 0.29105,0 0.52917,0.119063 0.52917,0.264584 0,0.14552 -0.23812,0.264583 -0.52917,0.264583 -0.29104,0 -0.52917,-0.119063 -0.52917,-0.264583 0,-0.145521 0.23813,-0.264584 0.52917,-0.264584 z m -27.58281,8.739002 c 0.0363,-0.0044 0.0661,1.368954 0.0661,3.05201 0,1.683056 0.12325,3.2904 0.27389,3.571875 0.26312,0.491643 0.15877,0.512113 -2.6541,0.512113 -2.19133,0 -2.96186,-0.08873 -3.06286,-0.351916 -0.0742,-0.193418 -0.10028,-1.394622 -0.0579,-2.669605 l 0.077,-2.318204 2.64583,-0.894003 c 1.45521,-0.49177 2.67558,-0.89787 2.71198,-0.90227 z m -32.74219,3.167248 h 2.64583 2.64584 v 2.116667 2.116667 h -2.64584 -2.64583 v -2.116667 z" /><path
         style="fill:#000000"
         d="m 171.86113,43.868412 c -0.47844,-0.478435 -0.52917,-0.881945 -0.52917,-4.208835 v -3.679669 l -1.68542,-1.685418 c -2.60638,-2.606387 -4.4,-5.717941 -4.4,-7.633109 0,-0.590683 -0.33765,-1.001685 -1.707,-2.077814 -2.88226,-2.265082 -4.68654,-5.120591 -5.61642,-8.888699 -0.72577,-2.941017 0.0895,-6.2802851 1.40966,-5.7736991 0.21164,0.08121 1.1174,1.1148321 2.0128,2.2969311 1.9722,2.603664 4.20136,5.004017 5.59431,6.023933 0.87505,0.640712 1.2837,0.755545 2.68872,0.755545 h 1.65684 l 0.17137,-1.014359 c 0.22373,-1.324239 0.99918,-2.576082 1.71105,-2.762242 0.82787,-0.216493 1.8982,0.829491 2.40931,2.354516 l 0.43227,1.289793 0.58178,-1.31325 c 0.69663,-1.572509 1.2744,-2.258625 1.90197,-2.258625 0.69833,0 1.81279,1.490241 2.00272,2.678008 l 0.16783,1.049556 1.59617,-0.07784 1.59617,-0.07785 0.41867,-1.249433 c 0.98236,-2.931696 2.60672,-3.119408 3.84605,-0.444452 l 0.60542,1.306743 0.3449,-0.864762 c 0.82686,-2.07323 1.87223,-2.840671 2.62837,-1.929581 0.17819,0.214715 0.46345,1.018387 0.63389,1.785938 l 0.30991,1.395547 h 1.30836 1.30836 l 0.22074,-1.116242 c 0.27135,-1.372075 1.30344,-2.323314 2.07359,-1.911142 0.27568,0.147542 0.80074,0.859296 1.1668,1.581676 0.67492,1.331896 1.18105,1.693089 1.19162,0.850395 0.003,-0.254661 0.2355,-0.969036 0.51623,-1.5875 0.39066,-0.860642 0.65679,-1.124479 1.13425,-1.124479 0.90614,0 1.44704,0.493055 2.17759,1.984991 0.35612,0.727266 0.65121,1.116351 0.65576,0.864634 0.0164,-0.909108 0.84331,-2.517716 1.46528,-2.850587 0.53943,-0.288694 0.74111,-0.271116 1.33208,0.116105 0.38303,0.250968 0.72623,0.417027 0.76267,0.369019 0.0365,-0.04801 0.43266,-0.882578 0.88047,-1.8546 1.15148,-2.49937 2.689,-4.087564 4.45386,-4.6006231 1.57629,-0.458241 2.81566,-0.326817 3.95285,0.4191641 0.72717,0.477018 0.77067,0.476467 1.74807,-0.02216 2.65273,-1.353326 5.44263,0.09585 7.01074,3.641647 l 0.62059,1.403246 9.99135,0.0015 c 6.05646,8.94e-4 10.37888,0.1091 10.97533,0.274751 1.31617,0.365535 2.55618,1.450643 3.14891,2.755536 0.86287,1.899594 0.48777,3.838876 -1.03784,5.365736 -0.97019,0.97098 -0.97761,0.994983 -0.88681,2.869421 0.12625,2.606693 -0.65645,4.142461 -2.62266,5.14599 -2.24126,1.143915 -4.58554,1.314174 -18.09462,1.314174 -12.25046,0 -12.7805,0.02037 -13.22197,0.508192 -0.39574,0.437294 -0.4476,0.963397 -0.37173,3.77111 0.0802,2.967786 0.14201,3.316693 0.68348,3.857434 0.32742,0.326983 0.59531,0.808827 0.59531,1.070765 0,0.943838 -0.54149,1.11125 -3.59436,1.11125 -2.86469,0 -2.97323,0.02116 -3.39277,0.661458 l -0.4334,0.661458 h -4.56524 c -5.99391,0 -5.74131,0.169453 -5.74131,-3.851461 v -3.027705 h -5.55625 -5.55625 v 1.678784 c 0,1.342766 0.10591,1.774637 0.52917,2.157674 0.29104,0.263389 0.52916,0.674749 0.52916,0.914132 0,0.90077 -0.57251,1.070243 -3.61548,1.070243 -2.70969,0 -3.00621,0.04808 -3.26369,0.529167 -0.26504,0.495243 -0.55399,0.529166 -4.50722,0.529166 -3.87125,0 -4.26822,-0.04419 -4.75319,-0.529166 z m 6.39705,-5.886833 c -0.0705,-3.996581 -0.0162,-4.919991 0.31523,-5.357959 0.69424,-0.917332 1.33394,-0.224096 1.4898,1.614484 l 0.13229,1.560516 8.91638,0.06965 8.91638,0.06965 0.0795,-1.49747 c 0.0567,-1.068291 0.21007,-1.579446 0.53519,-1.783494 0.97405,-0.611319 1.13176,0.114386 1.13176,5.207828 v 4.813005 l 3.04271,0.07421 3.04271,0.07421 v -5.365876 -5.365876 l 0.7276,-0.08372 c 0.70014,-0.08056 0.72761,-0.03792 0.72761,1.12952 0,1.188214 0.015,1.209746 0.7276,1.043836 1.28005,-0.298028 4.48821,-1.63824 5.59684,-2.338087 l 1.07337,-0.677591 12.9037,-0.002 c 7.7153,-0.0012 13.59026,-0.113392 14.61121,-0.279037 3.49803,-0.567542 5.13218,-2.037857 4.98082,-4.481465 -0.0532,-0.859528 -0.17726,-1.168385 -0.44597,-1.11065 -0.20472,0.04399 -1.13993,0.151666 -2.07825,0.239287 -0.93831,0.08762 -1.81082,0.289758 -1.9389,0.449192 -0.12807,0.159434 -0.5429,0.676833 -0.92183,1.149775 -0.95568,1.192775 -1.69683,1.124528 -2.87332,-0.264583 -0.8477,-1.000891 -0.98251,-1.073423 -1.22657,-0.65994 -0.15081,0.255496 -0.55316,0.788854 -0.89412,1.18524 -0.54378,0.632183 -0.71246,0.688156 -1.37338,0.455722 -0.41441,-0.145738 -0.99235,-0.644745 -1.28431,-1.108903 -0.29197,-0.464157 -0.66386,-0.848509 -0.82642,-0.854115 -0.16256,-0.0056 -0.61074,0.466059 -0.99594,1.048142 -0.94671,1.430567 -1.76128,1.433546 -2.7459,0.01004 -0.6538,-0.945219 -1.65113,-1.442996 -1.65113,-0.824091 0,0.134355 -0.30824,0.610605 -0.68498,1.058333 -0.99482,1.18228 -1.78235,1.082769 -2.79445,-0.353104 -0.76398,-1.083867 -0.94768,-1.190607 -2.57423,-1.495798 -3.77493,-0.708289 -5.3989,-1.608297 -4.50856,-2.498644 0.36706,-0.367056 0.50765,-0.367818 1.37019,-0.0074 2.45704,1.026619 5.29091,1.226344 16.25436,1.145576 l 10.53246,-0.07759 1.5875,-0.79375 c 1.99661,-0.998303 2.65826,-2.09951 2.21848,-3.692266 -0.44879,-1.625364 -1.45568,-2.441446 -3.29795,-2.672956 -0.8615,-0.108262 -5.71527,-0.125429 -10.78615,-0.03815 l -9.21978,0.158692 -0.63595,-0.635947 c -0.34977,-0.349771 -0.63594,-0.824696 -0.63594,-1.055389 0,-1.39766 -2.36974,-4.102528 -3.59422,-4.102528 -1.44604,0 -3.02037,1.45271 -3.02037,2.787035 0,0.757517 -0.62869,0.254166 -0.85977,-0.688365 -0.53673,-2.189153 -3.03891,-2.840942 -4.83895,-1.26049 -1.14041,1.001292 -2.91517,4.410338 -3.39202,6.515546 -0.25742,1.136427 -0.50063,1.590644 -0.98344,1.836645 -0.49214,0.250754 -5.29118,0.327506 -20.61748,0.32974 -19.12816,0.0028 -20.01087,-0.01832 -20.7964,-0.497327 -1.38134,-0.842326 -4.29483,-3.719675 -5.7433,-5.672052 l -1.37385,-1.851793 -0.0834,0.8451 c -0.33314,3.374213 2.46566,8.336668 6.02647,10.685336 0.76478,0.504439 0.96402,0.844074 1.20715,2.057774 0.4578,2.285335 1.87288,4.64427 4.16075,6.935977 l 2.05052,2.053958 v 3.836459 3.836458 l 2.71198,1.47e-4 2.71198,1.46e-4 z m 23.35195,-13.243377 c -0.081,-0.211146 -0.11043,-0.964086 -0.0653,-1.6732 0.069,-1.085587 0.16558,-1.289299 0.61114,-1.289299 0.47024,0 0.52917,0.176389 0.52917,1.583876 0,1.299137 -0.0834,1.599935 -0.46382,1.673201 -0.25511,0.04913 -0.53012,-0.08343 -0.61114,-0.294578 z m -16.22301,-0.257967 c -0.3924,-0.392402 -0.38175,-2.646065 0.0144,-3.042195 0.56574,-0.56574 1.01171,0.168062 1.01171,1.664669 0,1.430843 -0.41527,1.988346 -1.02609,1.377526 z m 7.7596,-0.282357 c -0.0857,-0.341294 -0.1177,-1.085434 -0.0712,-1.653646 0.0678,-0.828538 0.18934,-1.033113 0.61372,-1.033113 0.46432,0 0.53882,0.202646 0.60794,1.653646 0.072,1.510932 0.0324,1.653646 -0.45798,1.653646 -0.34243,0 -0.59313,-0.224647 -0.69249,-0.620533 z m -23.74952,0.185073 c -0.10005,-0.100046 -0.18191,-0.7661 -0.18191,-1.480121 0,-1.09398 0.0729,-1.284191 0.46303,-1.20905 0.36589,0.07046 0.46302,0.361302 0.46302,1.386414 0,1.201155 -0.30747,1.739432 -0.74414,1.302757 z m 7.67655,0.0036 c -0.30806,-0.308061 -0.2081,-2.962586 0.11918,-3.164856 0.53127,-0.32834 1.04633,0.744243 0.96369,2.006802 -0.0744,1.135732 -0.57248,1.66845 -1.08287,1.158054 z m 36.43048,-10.290579 c -0.41001,-0.625755 -0.40779,-0.701448 0.0349,-1.190625 0.80366,-0.888032 2.24282,-0.536486 2.24282,0.547856 0,0.542953 -0.82241,1.311007 -1.40379,1.311007 -0.23985,0 -0.63312,-0.300707 -0.87394,-0.668238 z m 6.56398,0.350738 c -0.43861,-0.438616 -0.39784,-1.403111 0.0759,-1.796315 0.55079,-0.45711 1.65099,-0.118111 1.8715,0.576652 0.13442,0.423527 0.0251,0.706574 -0.40855,1.057718 -0.69096,0.559505 -1.09845,0.602387 -1.53889,0.161945 z m -34.71333,25.188368 v -2.116666 h -2.64584 -2.64583 v 2.116666 2.116667 h 2.64583 2.64584 z m 27.79056,1.340311 c -0.15064,-0.281475 -0.27389,-1.888819 -0.27389,-3.571875 0,-1.683056 -0.0298,-3.056535 -0.0661,-3.052175 -0.0364,0.0044 -1.25677,0.410285 -2.71198,0.902055 l -2.64583,0.894129 -0.0771,2.31815 c -0.0424,1.274983 -0.0164,2.476402 0.0578,2.66982 0.101,0.263188 0.87165,0.351669 3.06298,0.351669 2.81287,0 2.91726,-0.02013 2.65414,-0.511773 z m 12.95527,-15.098644 c 0,-0.145521 -0.18562,-0.264584 -0.41249,-0.264584 -0.22687,0 -0.3389,0.119063 -0.24897,0.264584 0.0899,0.14552 0.27556,0.264583 0.41249,0.264583 0.13694,0 0.24897,-0.119063 0.24897,-0.264583 z m 5.02709,0 c 0,-0.145521 -0.11907,-0.264584 -0.26459,-0.264584 -0.14552,0 -0.26458,0.119063 -0.26458,0.264584 0,0.14552 0.11906,0.264583 0.26458,0.264583 0.14552,0 0.26459,-0.119063 0.26459,-0.264583 z m 4.89479,0 c 0.0899,-0.145521 -0.0221,-0.264584 -0.24897,-0.264584 -0.22687,0 -0.41249,0.119063 -0.41249,0.264584 0,0.14552 0.11204,0.264583 0.24897,0.264583 0.13693,0 0.32255,-0.119063 0.41249,-0.264583 z m 4.89479,0 c 0,-0.145521 -0.23812,-0.264584 -0.52917,-0.264584 -0.29104,0 -0.52916,0.119063 -0.52916,0.264584 0,0.14552 0.23812,0.264583 0.52916,0.264583 0.29105,0 0.52917,-0.119063 0.52917,-0.264583 z m -66.675,-7.425728 c 0,-0.300609 -0.12737,-0.784546 -0.28304,-1.075417 -0.38606,-0.721358 -1.03988,-0.180243 -1.03988,0.860624 0,0.635722 0.10915,0.761354 0.66146,0.761354 0.49209,0 0.66146,-0.139952 0.66146,-0.546561 z m 4.82909,0.391776 c 0.19621,-0.196211 -0.31601,-1.697299 -0.57917,-1.697299 -0.21085,0 -0.81034,1.183643 -0.81034,1.59995 0,0.272299 1.13504,0.35182 1.38951,0.09735 z m 7.91625,-0.506674 c -0.0478,-0.291041 -0.26049,-0.70776 -0.47259,-0.926041 -0.34279,-0.352778 -0.41352,-0.352778 -0.6366,0 -0.13803,0.218281 -0.25279,0.672674 -0.25502,1.009761 -0.003,0.513262 0.11422,0.599278 0.72356,0.529167 0.56004,-0.06444 0.70758,-0.20558 0.64065,-0.612887 z m 3.92341,-0.132291 c 0,-0.848175 -0.36798,-1.066258 -0.63315,-0.375236 -0.27209,0.709057 -0.17913,1.168986 0.23627,1.168986 0.26459,0 0.39688,-0.264584 0.39688,-0.79375 z m 6.73212,0.553043 c 0.18143,-0.293566 -0.0952,-1.08221 -0.37957,-1.08221 -0.25635,0 -0.52716,0.974696 -0.32655,1.175304 0.22042,0.220418 0.53825,0.178515 0.70612,-0.09309 z m 4.60613,0.0057 c 0.27928,-0.176969 0.29178,-0.350705 0.0568,-0.789699 -0.37239,-0.695825 -0.45583,-0.698711 -0.81468,-0.02818 -0.44317,0.828072 -0.005,1.301155 0.75784,0.817879 z m 4.86217,0.08596 c 0.22398,-0.223982 -0.19405,-1.575253 -0.47675,-1.541075 -0.32484,0.03927 -0.91115,1.204761 -0.74296,1.476895 0.15045,0.24343 0.99597,0.287921 1.21971,0.06418 z"
         id="path10" /></g><path
       style="fill:#000000;stroke-width:0.352031"
       d="m 174.77081,86.316743 c -0.14483,-0.105905 -0.15587,-0.225431 -0.0982,-1.062979 0.0358,-0.519011 0.0943,-0.991126 0.13019,-1.049146 0.0359,-0.05802 0.42455,-0.228512 0.86375,-0.378872 0.43921,-0.15036 1.02236,-0.372306 1.29589,-0.493213 l 0.49733,-0.219832 -0.66561,-0.337157 c -1.10601,-0.56024 -1.05751,-0.403493 -1.05751,-3.417703 v -2.582322 l -1.36372,-2.352037 c -1.31905,-2.274962 -1.3652,-2.372412 -1.40822,-2.973747 -0.0493,-0.688967 -0.0813,-0.553141 1.04104,-4.419007 0.38434,-1.32388 0.80809,-2.593533 0.94166,-2.821451 0.26274,-0.448337 0.81435,-0.89921 1.28559,-1.050824 0.25033,-0.08054 4.52924,-0.566557 4.98797,-0.566557 0.0848,0 0.86593,-0.510745 1.73585,-1.134989 1.6632,-1.193482 2.04361,-1.3914 2.5244,-1.313377 l 0.29459,0.0478 0.2094,-0.918683 c 0.11516,-0.505276 0.31877,-1.542949 0.45247,-2.305941 0.27636,-1.577226 0.33894,-1.67712 0.88758,-1.416777 0.28434,0.134931 0.39478,0.143724 0.6689,0.05326 0.31078,-0.102567 0.46339,-0.30925 0.63171,-0.855499 0.0475,-0.154304 2.9328,-2.109091 3.23073,-2.188861 0.0804,-0.0215 0.20037,0.0261 0.26654,0.10584 0.25668,0.30928 0.0301,0.54867 -1.39181,1.47073 -1.23036,0.797818 -1.41215,0.948533 -1.5452,1.281037 -0.26125,0.652954 -1.002,1.0913 -1.63141,0.965417 -0.1477,-0.02954 -0.26854,-0.01555 -0.26854,0.03109 0,0.239192 -0.41853,2.355223 -0.65192,3.296022 -0.18202,0.733706 -0.25022,1.199421 -0.21457,1.465217 0.0723,0.539112 -0.0975,0.885564 -0.65886,1.344567 -0.26246,0.214582 -0.48719,0.39518 -0.4994,0.401329 -0.0122,0.0061 -0.0693,0.762616 -0.12686,1.681038 -0.0581,0.926777 -0.1509,1.726921 -0.20856,1.798089 -0.0571,0.07053 -0.31105,0.267724 -0.56422,0.438219 l -0.46031,0.309991 -0.43748,1.35034 c -0.40926,1.263268 -0.45054,1.484255 -0.64016,3.427144 -0.11147,1.142242 -0.22648,2.270115 -0.25557,2.506385 l -0.0529,0.429581 0.46411,0.0446 c 0.57909,0.05564 1.01425,0.353854 1.23463,0.846087 0.1319,0.294615 0.14601,0.428963 0.0684,0.651483 -0.0853,0.244698 -0.29093,0.373313 -1.61786,1.011894 -0.83607,0.402361 -1.63668,0.730634 -1.77912,0.729495 -0.28926,-0.0023 -0.60322,-0.220062 -0.76037,-0.527368 -0.0697,-0.136314 -0.10404,-1.114186 -0.10404,-2.963513 0,-2.58517 -0.0103,-2.756969 -0.16301,-2.711169 -0.0897,0.0269 -0.54021,0.140307 -1.00126,0.252027 -0.46105,0.111721 -0.86711,0.22876 -0.90236,0.260087 -0.0353,0.03133 0.0996,0.874274 0.29959,1.873214 0.41609,2.07798 0.42112,2.182645 0.22359,4.65401 l -0.14633,1.830736 0.36916,0.369154 c 0.20678,0.206779 0.41983,0.538306 0.48437,0.753717 0.21302,0.711024 -0.0958,1.444198 -0.66061,1.568248 -0.15606,0.03428 -0.62708,0.221546 -1.0467,0.416154 -0.41963,0.194609 -1.04081,0.446165 -1.3804,0.559015 l -0.61744,0.20518 -0.0642,0.736089 c -0.0792,0.908087 -0.26874,1.171684 -0.64475,0.896742 z m 3.71933,-3.829151 c 0.0785,-0.312948 -0.17127,-0.744889 -0.57518,-0.994519 l -0.34103,-0.210772 0.0533,-0.799489 c 0.0293,-0.439719 0.10537,-1.532978 0.16897,-2.429462 l 0.11563,-1.629973 -0.42631,-2.142249 c -0.27657,-1.389778 -0.39771,-2.195771 -0.34488,-2.294623 0.0554,-0.103609 0.60112,-0.28092 1.70529,-0.554044 1.36775,-0.338321 1.64724,-0.382267 1.7721,-0.278643 0.12996,0.107859 0.14823,0.494168 0.14823,3.133217 0,2.161734 0.0301,3.028782 0.10673,3.07615 0.11295,0.06981 2.68751,-1.162551 2.68751,-1.28643 0,-0.03988 -0.0886,-0.161108 -0.19687,-0.26939 -0.16764,-0.16764 -0.26463,-0.187889 -0.65313,-0.136354 -0.25094,0.03329 -0.51548,0.08326 -0.58789,0.11104 -0.0754,0.02894 -0.18954,-0.04213 -0.26717,-0.166355 -0.12025,-0.192422 -0.10446,-0.525934 0.14001,-2.958206 0.2058,-2.047586 0.25042,-2.796445 0.17631,-2.959106 -0.16179,-0.355078 -0.45514,-0.404641 -1.51542,-0.256036 -3.06412,0.429455 -3.24316,0.434077 -3.24316,0.08374 0,-0.291995 0.95852,-4.099173 1.05865,-4.204867 0.0581,-0.06132 0.82815,-0.237726 1.71126,-0.392015 0.8831,-0.154289 1.68881,-0.325034 1.79045,-0.379433 0.10165,-0.0544 0.42695,-0.299555 0.72289,-0.544789 0.29594,-0.245235 1.04104,-0.836556 1.65577,-1.314046 0.61473,-0.477491 1.17009,-0.933647 1.23412,-1.01368 0.30109,-0.376309 -0.0536,-0.927421 -0.49012,-0.761471 -0.11626,0.0442 -0.89705,0.572495 -1.7351,1.173985 -0.83804,0.60149 -1.6285,1.127497 -1.75657,1.168904 -0.12806,0.04141 -1.29782,0.182979 -2.59945,0.314602 -1.30163,0.131623 -2.49682,0.293724 -2.65598,0.360225 -0.36578,0.152831 -0.84246,0.690817 -0.97054,1.095368 -0.0932,0.294408 -0.82129,2.795351 -1.43122,4.916274 -0.43539,1.513977 -0.44372,1.483552 1.16993,4.273482 l 1.36449,2.359167 v 2.5997 2.599699 l 0.90813,0.461853 c 0.49947,0.254019 0.93876,0.463994 0.97621,0.466613 0.0375,0.0026 0.0933,-0.09551 0.12401,-0.218062 z m 1.51484,-13.697083 c 1.67314,-0.227168 2.0756,-0.220142 2.39115,0.04175 0.0946,0.07847 0.15327,0.01215 0.26452,-0.298797 0.16814,-0.469932 0.39529,-1.229323 0.47153,-1.576335 0.0369,-0.168215 0.22592,-0.356664 0.60151,-0.599852 l 0.54763,-0.354585 0.0587,-0.694894 c 0.0323,-0.382191 0.0587,-0.919413 0.0587,-1.193827 v -0.498933 l -0.93649,0.746078 c -0.51508,0.410342 -1.04948,0.803463 -1.18756,0.873602 -0.13807,0.07014 -0.9249,0.243423 -1.7485,0.385074 l -1.49745,0.257548 -0.35296,1.451636 c -0.19412,0.7984 -0.3735,1.505195 -0.39862,1.570655 -0.0565,0.147132 -0.24927,0.15931 1.72776,-0.109116 z m 1.08757,17.180675 c -0.0375,-0.118311 0.1331,-0.657583 0.47133,-1.489438 l 0.53018,-1.30398 1.76887,-1.095233 c 0.97288,-0.602378 1.78278,-1.137146 1.79979,-1.188374 0.017,-0.05123 0.15663,-1.46948 0.31028,-3.151671 0.15364,-1.682192 0.32559,-3.114242 0.3821,-3.182333 0.0565,-0.06809 0.65587,-0.44884 1.3319,-0.846106 0.67604,-0.397266 1.28194,-0.769395 1.34646,-0.826951 0.0645,-0.05756 0.24071,-0.790889 0.39154,-1.629627 0.15512,-0.862656 0.33226,-1.583021 0.40786,-1.658622 0.15148,-0.15147 0.48286,-0.08441 0.55863,0.113039 0.0715,0.18627 -0.54138,3.48599 -0.67206,3.618456 -0.061,0.06188 -0.70614,0.468988 -1.43355,0.904679 l -1.32255,0.792168 -0.281,3.138432 c -0.15454,1.726138 -0.3229,3.180004 -0.37413,3.230814 -0.0512,0.05081 -0.88698,0.587287 -1.85723,1.192172 l -1.76408,1.099788 -0.44468,1.104127 c -0.24457,0.607269 -0.49323,1.162624 -0.55257,1.234122 -0.16254,0.195847 -0.52811,0.16189 -0.59709,-0.05546 z m 11.41326,-1.160617 c -0.20792,-0.250521 -0.0539,-0.454705 0.80661,-1.069169 0.47124,-0.336517 0.85843,-0.632805 0.8604,-0.658419 0.002,-0.02561 -0.60365,-0.732512 -1.34584,-1.570886 -0.74219,-0.838373 -1.3488,-1.571861 -1.34801,-1.629972 0.002,-0.194491 0.13325,-0.306006 1.0697,-0.913168 l 0.93141,-0.6039 0.46571,-1.745143 c 0.25613,-0.959829 0.48666,-1.779101 0.51227,-1.820605 0.0256,-0.0415 0.86389,-0.520043 1.86283,-1.063419 l 1.81625,-0.987957 0.55051,-2.02764 c 0.30278,-1.115201 0.58718,-2.100987 0.63199,-2.190636 0.16072,-0.321557 0.63605,-0.132268 0.63149,0.251482 -0.001,0.105017 -0.26751,1.154952 -0.5917,2.333189 l -0.58945,2.14225 -1.74357,0.941488 c -0.95897,0.517818 -1.79822,0.999824 -1.86501,1.071124 -0.0668,0.0713 -0.32036,0.863125 -0.56349,1.75961 -0.24313,0.896485 -0.47589,1.692842 -0.51724,1.769684 -0.0414,0.07684 -0.41155,0.34928 -0.82265,0.605418 -0.41109,0.256139 -0.74936,0.499819 -0.75169,0.541511 -0.002,0.04169 0.57207,0.725118 1.27646,1.518725 0.9586,1.08003 1.28069,1.504842 1.28069,1.689131 0,0.207243 -0.16953,0.368164 -1.07112,1.016767 -0.58912,0.423807 -1.13935,0.771731 -1.22272,0.773165 -0.0834,0.0015 -0.2021,-0.05825 -0.26383,-0.13263 z M 179.15904,81.33658 c -0.12494,-0.139618 -0.22495,-1.106266 -0.1724,-1.666435 0.0136,-0.14523 1.951,-1.370952 2.17832,-1.37816 0.2237,-0.0071 0.3972,0.239925 0.3164,0.450479 -0.0328,0.08557 -0.43639,0.395143 -0.8968,0.687934 l -0.8371,0.532348 -0.003,0.671997 c -0.002,0.567323 -0.0309,0.687016 -0.18302,0.768416 -0.23276,0.12457 -0.23126,0.124818 -0.40254,-0.06658 z M 190.6925,68.406574 c -0.0805,-0.0805 -0.14637,-0.202517 -0.14637,-0.271147 0,-0.06863 0.51344,-0.603044 1.14098,-1.187586 0.62754,-0.584542 1.31378,-1.227449 1.52498,-1.428682 l 0.38399,-0.365877 -0.5869,-1.909397 c -0.32279,-1.050168 -0.5899,-1.973534 -0.59356,-2.051923 -0.004,-0.07839 0.59294,-0.765315 1.3258,-1.5265 1.23386,-1.281549 1.34759,-1.375879 1.53683,-1.274601 0.39304,0.210346 0.25204,0.47312 -0.91333,1.702171 -0.61473,0.648325 -1.1177,1.225892 -1.1177,1.283484 0,0.05759 0.25149,0.925739 0.55885,1.929218 0.30737,1.003478 0.55885,1.900947 0.55885,1.994374 0,0.181439 -3.22505,3.251842 -3.41629,3.25247 -0.0604,1.98e-4 -0.17564,-0.0655 -0.25613,-0.146004 z m -13.65186,-6.271021 c -0.46659,-0.256086 -0.80926,-0.648852 -0.97436,-1.116804 -0.25412,-0.720235 -0.12849,-1.359835 0.38488,-1.959601 0.4177,-0.487987 0.98593,-0.701433 1.67735,-0.630072 1.79085,0.184833 2.37159,2.50839 0.88737,3.550448 -0.52042,0.365383 -1.45875,0.439504 -1.97524,0.156029 z m 1.48655,-0.720547 c 0.65872,-0.389112 0.78255,-1.286897 0.25665,-1.860747 -0.58398,-0.637236 -1.59896,-0.491542 -1.96614,0.282228 -0.18467,0.389174 -0.18814,0.620102 -0.0155,1.033247 0.25569,0.611946 1.13931,0.891255 1.72501,0.545272 z"
       id="path13" /></g></svg>
