<?xml version="1.0" encoding="UTF-8" standalone="no"?>
<!-- Created with Inkscape (http://www.inkscape.org/) -->

<svg
   width="128"
   height="128"
   viewBox="0 0 33.866666 33.866666"
   version="1.1"
   id="svg1"
   inkscape:version="1.4.4 (dcaf3e7d9e, 2026-05-05)"
   sodipodi:docname="waadpak.svg"
   xml:space="preserve"
   xmlns:inkscape="http://www.inkscape.org/namespaces/inkscape"
   xmlns:sodipodi="http://sodipodi.sourceforge.net/DTD/sodipodi-0.dtd"
   xmlns="http://www.w3.org/2000/svg"
   xmlns:svg="http://www.w3.org/2000/svg"><sodipodi:namedview
     id="namedview1"
     pagecolor="#ffffff"
     bordercolor="#000000"
     borderopacity="0.25"
     inkscape:showpageshadow="2"
     inkscape:pageopacity="0.0"
     inkscape:pagecheckerboard="0"
     inkscape:deskcolor="#d1d1d1"
     inkscape:document-units="mm"
     inkscape:zoom="0.57386457"
     inkscape:cx="494.019"
     inkscape:cy="108.91071"
     inkscape:window-width="1908"
     inkscape:window-height="1068"
     inkscape:window-x="1925"
     inkscape:window-y="5"
     inkscape:window-maximized="1"
     inkscape:current-layer="layer1"
     showgrid="false" /><defs
     id="defs1"><inkscape:path-effect
       effect="fill_between_many"
       method="originald"
       linkedpaths="#path11,0,1|"
       id="path-effect11" /></defs><g
     inkscape:label="Layer 1"
     inkscape:groupmode="layer"
     id="layer1"><path
       style="fill:none;stroke:#000000;stroke-width:0.529167;stroke-linejoin:round;stroke-miterlimit:3;stroke-dasharray:none;stroke-opacity:1;paint-order:markers stroke fill"
       d="M 0,33.602083 H 13.229167"
       id="path4" /><path
       style="fill:none;stroke:#000000;stroke-width:0.529167;stroke-linejoin:round;stroke-miterlimit:3;stroke-dasharray:none;stroke-opacity:1;paint-order:markers stroke fill"
       d="M 0.2645835,20.6375 V 33.866667"
       id="path5" /><g
       id="g9"
       transform="matrix(0.3076923,0,0,0.3076923,-55.418068,10.265742)"><path
         style="fill:#000000"
         d="m 218.64181,72.462349 c -0.78163,-0.781629 -0.79806,-0.850689 -0.67649,-2.844271 0.0685,-1.123755 0.34888,-3.293347 0.623,-4.821316 0.63546,-3.542115 0.63871,-12.561049 0.01,-26.456726 -0.79996,-17.667927 -0.47258,-23.06198 2.09983,-34.5977061 1.05719,-4.74083799 1.08727,-5.496514 0.7819,-19.6434869 -0.23598,-10.932698 -0.18452,-11.398735 1.43788,-13.021138 l 1.00178,-1.001779 h 3.5827 c 3.43411,0 3.61526,0.02739 4.36763,0.660473 1.42403,1.198237 1.63483,2.219847 1.79257,8.687158 l 0.14307,5.865911 1.17356,0.08064 1.17356,0.08064 10e-4,-5.636892 c 8.6e-4,-3.296032 0.1228,-6.073915 0.29363,-6.689261 0.16266,-0.585889 0.73461,-1.494816 1.29032,-2.050521 l 0.99815,-0.998153 h 3.49601 c 4.05815,0 4.71416,0.270475 5.61938,2.316885 0.49766,1.125034 0.5167,1.745111 0.44758,14.576463 l -0.0722,13.40144488 0.82699,3.30729102 c 2.46994,9.8777391 2.95141,16.5848411 2.30767,32.1468761 -0.5365,12.969654 -0.45005,24.020517 0.19975,25.532293 0.67815,1.577745 1.54415,2.145321 4.09614,2.684598 2.90588,0.61406 4.18355,1.443772 5.14709,3.342481 0.95666,1.88516 1.2673,4.630011 0.6066,5.360067 -0.43364,0.479174 -0.83661,0.519104 -5.23863,0.519104 h -4.76885 l -0.84822,-0.926041 c -0.46653,-0.509323 -1.05423,-0.926042 -1.30602,-0.926042 -0.25179,0 -0.8395,0.416719 -1.30602,0.926042 l -0.84822,0.926041 h -3.06972 -3.06971 l -0.81411,-0.814102 c -0.94819,-0.948197 -0.9922,-1.44308 -0.3881,-4.364209 0.48031,-2.322517 0.42329,-3.136223 -0.53631,-7.653981 -0.42141,-1.983967 -0.7852,-4.911923 -0.96977,-7.805208 -0.2368,-3.711949 -0.49709,-5.495996 -1.31251,-8.995834 -0.55943,-2.401094 -1.22502,-5.464233 -1.47908,-6.806976 -0.25407,-1.342744 -0.49427,-2.40903 -0.53377,-2.369525 -0.0395,0.0395 -0.49718,2.090613 -1.01705,4.558018 -0.51987,2.467405 -1.47033,6.510254 -2.11214,8.984108 -0.64181,2.473854 -1.30938,5.500737 -1.48348,6.726407 -0.35694,2.512941 -0.1889,6.833084 0.4279,11.000677 0.74353,5.023876 0.74338,5.020614 0.27506,6.00754 -0.24288,0.511829 -0.73912,1.066158 -1.10276,1.231842 -0.41842,0.190644 -2.46115,0.301243 -5.56385,0.301243 h -4.90269 z m 10.45952,-2.666369 c -0.084,-2.588755 -1.55692,-4.006001 -4.32015,-4.156966 -1.46816,-0.08021 -1.86029,-0.002 -2.62743,0.523921 -1.40389,0.962485 -1.9495,1.884464 -2.08546,3.524037 l -0.12212,1.472572 4.59736,-0.07254 4.59735,-0.07254 z m 17.61013,0.579653 c 1.16489,-1.088175 2.60808,-1.286237 4.10214,-0.562975 0.64155,0.310568 1.23289,0.737792 1.31409,0.949387 0.11949,0.311396 0.85857,0.384718 3.87793,0.384718 3.42466,0 3.71989,-0.03794 3.60328,-0.463021 -0.0699,-0.254662 -0.20088,-0.87974 -0.29115,-1.389063 -0.31317,-1.766948 -1.7021,-2.83388 -4.13721,-3.178082 -3.08979,-0.436739 -5.20752,-2.126709 -5.82277,-4.646626 -0.1395,-0.571359 -0.32842,-3.568912 -0.41982,-6.66123 l -0.16618,-5.622396 h -4.33745 -4.33746 l 0.16653,2.711979 c 0.18837,3.067632 0.96409,8.337165 1.56943,10.661194 0.5118,1.964958 0.51191,3.546216 3.9e-4,5.977887 -0.2225,1.057734 -0.3453,2.077549 -0.27289,2.266255 0.0925,0.241146 0.75481,0.343103 2.22865,0.343103 1.95111,0 2.15442,-0.05365 2.92249,-0.77113 z m -24.75514,-6.504912 c 1.22509,-0.511877 4.15272,-0.509987 5.3816,0.0035 0.52699,0.220191 0.98314,0.369019 1.01367,0.330729 0.0305,-0.03829 -0.0566,-1.022119 -0.19369,-2.186286 -0.42,-3.5677 0.0462,-9.351754 0.99475,-12.340207 0.14762,-0.4651 -0.0661,-0.492094 -3.89654,-0.492244 l -4.05273,-1.59e-4 v 6.01943 c 0,3.310687 -0.0903,6.70404 -0.20075,7.540784 -0.11041,0.836745 -0.15471,1.521355 -0.0985,1.521355 0.0563,0 0.52972,-0.178594 1.05214,-0.396875 z m 8.69807,-19.976043 c 1.00326,-4.149032 1.90627,-8.673472 2.61395,-13.096875 0.32594,-2.037292 0.70604,-3.852995 0.84466,-4.034896 0.29575,-0.388074 1.40982,-0.442583 1.63394,-0.07995 0.0852,0.137931 0.44428,2.013166 0.79786,4.167187 0.74889,4.562314 1.9982,10.632932 2.84786,13.838279 l 0.59614,2.248959 4.21315,0.0731 c 2.31724,0.0402 4.30214,-0.01933 4.4109,-0.132292 0.10877,-0.112964 0.39967,-5.187758 0.64645,-11.27732 0.59475,-14.676095 0.20091,-20.818935 -1.93646,-30.2030711 l -0.72315,-3.175 -11.70597,-0.0689 c -6.43828,-0.03789 -11.70596,-0.0073 -11.70596,0.06809 0,0.07534 -0.34981,1.713692 -0.77736,3.640773 -1.14474,5.1597401 -1.86854,10.8398391 -2.04792,16.0714931 -0.14132,4.121603 0.14996,14.866722 0.60803,22.42969 l 0.16464,2.718232 4.39175,-0.0724 4.39176,-0.0724 z m 3.53247,-21.847024 c -0.35834,-0.358344 -0.41577,-1.447748 -0.41577,-7.886931 0,-8.0653001 0.0705,-8.5039031 1.33774,-8.3250281 l 0.64664,0.09127 0.0701,7.9055831 c 0.0707,7.971874 0.004,8.630876 -0.87738,8.630876 -0.19007,0 -0.53268,-0.187099 -0.76136,-0.415774 z m 11.88736,-27.4276851 v -5.3533759 l -2.91042,-0.754108 c -5.34567,-1.385098 -12.67298,-1.254897 -17.83421,0.3169 l -1.48037,0.450832 -0.0139,5.3468129 -0.0139,5.34681398 11.12641,-2.49e-4 11.12642,-2.49e-4 z m -16.09549,-0.907931 c -0.36554,-0.365537 -0.15673,-1.403015 0.33538,-1.666386 0.29159,-0.156053 2.33247,-0.273892 4.7436,-0.273892 3.49434,0 4.30429,0.07246 4.64761,0.415774 0.49715,0.497156 0.52948,0.952186 0.0983,1.383393 -0.34269,0.342687 -9.49188,0.474093 -9.82486,0.141111 z m -4.21129,-7.1360609 0.8599,-0.165121 v -6.411992 c 0,-6.127952 -0.0248,-6.443512 -0.5597,-7.123533 -0.75028,-0.953834 -1.55819,-0.81282 -2.15187,0.375595 -0.40239,0.8055 -0.46266,1.765243 -0.46302,7.373032 l -4.1e-4,6.446991 0.7276,-0.164925 c 0.40019,-0.09071 1.11456,-0.23923 1.5875,-0.330047 z m 20.43907,-6.168851 c 0,-7.084617 -0.11851,-7.836799 -1.28063,-8.128472 -0.86203,-0.216356 -1.54421,0.60059 -1.7604,2.108154 -0.0878,0.612192 -0.12409,3.548246 -0.0806,6.524564 l 0.079,5.411488 1.19062,0.317224 c 0.65485,0.174474 1.33946,0.328914 1.52136,0.3432 0.25644,0.02014 0.33073,-1.456986 0.33073,-6.576158 z m -14.87415,-0.541616 c 0.0411,-3.128698 0.0112,-5.948107 -0.0665,-6.265353 -0.23024,-0.939503 -0.89697,-1.407564 -2.005,-1.407564 -0.99941,0 -1.02452,0.022 -0.77485,0.678682 0.14192,0.373276 0.25804,3.389526 0.25804,6.702778 0,3.313253 0.0578,6.081934 0.12853,6.152626 0.0707,0.07069 0.63624,0.06077 1.25677,-0.02205 l 1.12824,-0.150579 z m 9.97538,-7.094542 c 0.19775,-0.585332 0.15585,-0.608597 -0.95292,-0.529167 -1.02586,0.07349 -1.2135,0.190009 -1.62514,1.009125 -0.40816,0.812217 -0.45694,1.625249 -0.39687,6.614584 l 0.0685,5.688541 1.19062,0.132292 1.19063,0.132292 0.15917,-6.217709 c 0.0875,-3.419739 0.25225,-6.493221 0.36602,-6.829958 z"
         id="path9" /><path
         style="fill:#009fff;fill-opacity:1"
         d="m 195.89996,60.503481 c -2.5943,-0.515505 -6.38422,-2.434072 -8.19985,-4.15101 -1.61154,-1.523931 -1.78182,-2.027387 -0.96278,-2.846434 0.79124,-0.791237 1.27867,-0.66392 3.31071,0.864754 3.33006,2.505153 6.04864,3.440657 9.89424,3.404751 3.52764,-0.03294 6.71727,-1.224895 9.576,-3.578529 0.8151,-0.671079 1.70891,-1.220143 1.98626,-1.220143 0.27734,0 1.15826,0.543685 1.95759,1.208188 5.78043,4.805401 13.70708,4.846619 19.61896,0.102018 0.89791,-0.720613 1.83165,-1.310206 2.075,-1.310206 0.24334,0 1.1694,0.583423 2.0579,1.296496 5.9209,4.751835 13.85675,4.716146 19.63604,-0.08831 0.79934,-0.664503 1.67057,-1.208188 1.93608,-1.208188 0.26551,0 1.15272,0.545762 1.97158,1.212804 5.88851,4.796747 13.7282,4.83754 19.65196,0.102257 0.90482,-0.723283 1.84532,-1.315061 2.09,-1.315061 0.6238,0 1.2531,0.549969 1.4728,1.287136 0.15699,0.526727 -0.0538,0.852908 -1.33293,2.062491 -2.83342,2.679395 -7.85172,4.587873 -12.06371,4.587873 -3.42483,0 -7.55979,-1.324652 -10.31597,-3.304772 -0.71087,-0.510709 -1.33598,-0.928561 -1.38913,-0.928561 -0.0532,0 -0.87854,0.524316 -1.83418,1.165146 -6.0371,4.048314 -13.82534,4.056352 -20.06381,0.02071 l -1.81663,-1.175178 -1.81664,1.175178 c -2.22947,1.442232 -4.0692,2.186935 -6.60716,2.674501 -4.83888,0.929593 -9.97259,-0.158467 -13.83286,-2.931792 -0.71087,-0.510709 -1.35147,-0.928561 -1.42355,-0.928561 -0.0721,0 -0.71269,0.417852 -1.42356,0.928561 -3.89957,2.801559 -9.18153,3.881619 -14.15236,2.893883 z m -0.90352,-24.729462 c -1.06004,-0.27773 -2.74271,-0.933422 -3.73925,-1.457094 -1.74808,-0.918586 -4.42422,-2.972465 -4.86672,-3.735093 -0.31078,-0.535607 0.0272,-1.36915 0.74606,-1.84019 0.74476,-0.487981 1.25691,-0.279028 2.9506,1.203816 2.27125,1.988501 6.3218,3.437349 9.63861,3.447652 1.8245,0.0057 5.03589,-0.793209 6.81721,-1.695873 0.73454,-0.372218 2.0127,-1.228329 2.84036,-1.902469 0.82766,-0.674141 1.76932,-1.22571 2.09257,-1.22571 0.32325,0 1.2649,0.551569 2.09256,1.22571 0.82766,0.67414 2.10583,1.530251 2.84036,1.902469 1.78133,0.902664 4.99271,1.70154 6.81721,1.695873 3.32689,-0.01033 7.33788,-1.432542 9.58151,-3.397388 2.22317,-1.946926 2.47396,-1.946926 4.69713,0 2.24363,1.964846 6.25462,3.387054 9.58151,3.397388 1.81699,0.0056 5.03387,-0.792192 6.79749,-1.685885 0.72369,-0.366725 2.06594,-1.268796 2.98278,-2.004603 1.93589,-1.553661 2.11283,-1.547077 4.10546,0.152763 2.45129,2.091107 6.34849,3.517804 9.63835,3.52843 3.26061,0.01053 7.343,-1.449377 9.61479,-3.438357 1.69369,-1.482844 2.20584,-1.691797 2.9506,-1.203816 1.27904,0.838058 1.15334,1.462503 -0.62335,3.096598 -6.03801,5.553426 -16.0791,6.030129 -22.65279,1.075447 l -1.05346,-0.794009 -1.24048,0.910592 c -2.94874,2.164573 -6.55443,3.27998 -10.58141,3.273315 -4.15213,-0.0069 -7.84827,-1.156937 -10.69033,-3.326327 l -1.17772,-0.898976 -1.17773,0.898976 c -5.88455,4.491781 -15.43296,4.463468 -21.43928,-0.06357 l -1.05346,-0.794009 -1.1955,0.870995 c -1.71972,1.252924 -3.64555,2.166345 -5.86308,2.780853 -2.56413,0.710558 -6.72385,0.711658 -9.4306,0.0025 z"
         id="path8"
         sodipodi:nodetypes="ssssssssssssssssssssssscsssssssssscscsssssssscsssssssscssscsscssss" /></g></g></svg>
