<?xml version="1.0" encoding="UTF-8" standalone="no"?>
<!-- Created with Inkscape (http://www.inkscape.org/) -->

<svg
   width="128"
   height="128"
   viewBox="0 0 33.866666 33.866666"
   version="1.1"
   id="svg1"
   inkscape:version="1.4.4 (dcaf3e7d9e, 2026-05-05)"
   sodipodi:docname="zonnebril.svg"
   xml:space="preserve"
   xmlns:inkscape="http://www.inkscape.org/namespaces/inkscape"
   xmlns:sodipodi="http://sodipodi.sourceforge.net/DTD/sodipodi-0.dtd"
   xmlns="http://www.w3.org/2000/svg"
   xmlns:svg="http://www.w3.org/2000/svg"><sodipodi:namedview
     id="namedview1"
     pagecolor="#ffffff"
     bordercolor="#000000"
     borderopacity="0.25"
     inkscape:showpageshadow="2"
     inkscape:pageopacity="0.0"
     inkscape:pagecheckerboard="0"
     inkscape:deskcolor="#d1d1d1"
     inkscape:document-units="mm"
     inkscape:zoom="0.81156706"
     inkscape:cx="397.37936"
     inkscape:cy="561.25984"
     inkscape:window-width="1908"
     inkscape:window-height="1164"
     inkscape:window-x="5"
     inkscape:window-y="29"
     inkscape:window-maximized="1"
     inkscape:current-layer="layer1" /><defs
     id="defs1" /><g
     inkscape:label="Layer 1"
     inkscape:groupmode="layer"
     id="layer1"><path
       style="fill:none;stroke:#000000;stroke-width:0.529167;stroke-linejoin:round;stroke-miterlimit:3;stroke-dasharray:none;stroke-opacity:1;paint-order:markers stroke fill"
       d="M 0,33.602083 H 13.229167"
       id="path4" /><path
       style="fill:none;stroke:#000000;stroke-width:0.529167;stroke-linejoin:round;stroke-miterlimit:3;stroke-dasharray:none;stroke-opacity:1;paint-order:markers stroke fill"
       d="M 0.2645835,20.6375 V 33.866667"
       id="path5" /><path
       style="fill:#000000;stroke-width:0.320943"
       d="m 32.78582,32.29666 c 0.33668,-0.663473 0.59264,-1.257176 0.56878,-1.319343 -0.087,-0.226701 -0.53789,-0.359569 -1.5221,-0.448521 -2.64512,-0.239071 -5.70363,-0.99011 -8.18114,-2.00895 -0.97213,-0.399774 -2.88771,-1.314365 -2.88487,-1.377383 10e-4,-0.02786 0.24214,-0.314537 0.53531,-0.637053 l 0.53303,-0.586389 2.50044,1.069903 c 4.32007,1.848488 5.35674,2.226871 8.19158,2.989891 1.44005,0.387603 1.56138,0.545603 1.09957,1.43191 -0.73274,1.4063 -1.18661,2.081856 -1.40441,2.090361 -0.0266,9.63e-4 0.22712,-0.540953 0.56381,-1.204426 z M 31.16644,29.21592 C 30.97963,29.1539 30.40571,28.968174 29.89107,28.803187 28.74315,28.435168 22.06894,25.66037 21.8752,25.47059 c -0.0195,-0.01906 -0.016,-0.05401 0.008,-0.07767 0.0237,-0.02365 0.65863,0.241538 1.41106,0.589328 1.62611,0.751617 4.87315,2.055966 6.76864,2.718999 0.74727,0.261386 1.43509,0.509918 1.5285,0.552292 0.26161,0.118682 -0.0321,0.09265 -0.42459,-0.03762 z M 13.16421,27.944796 C 12.4269,27.810568 11.40016,27.389041 10.7452,26.951675 8.3514102,25.353167 7.3716102,21.626756 8.5080102,18.443118 c 0.50491,-1.414525 1.40751,-2.811028 2.4366498,-3.770006 1.01765,-0.948259 1.4276,-1.042286 2.69419,-0.617938 1.14657,0.384137 1.50821,0.602648 2.20302,1.331122 1.32325,1.387382 3.76804,4.643572 3.97504,5.294329 0.052,0.163463 0.28089,1.004135 0.50865,1.868156 0.32603,1.236819 0.49986,1.729406 0.81727,2.315932 0.35104,0.648681 0.38835,0.763938 0.28864,0.891622 -0.53867,0.689743 -1.06022,1.207626 -1.21307,1.204555 -0.0968,-0.0019 -0.32176,-0.132332 -0.49994,-0.289754 L 19.3945,26.384915 19.56049,26.05903 c 0.2754,-0.540684 0.44011,-1.218869 0.42834,-1.763647 l -0.0111,-0.515316 -0.0649,0.467039 c -0.0846,0.608284 -0.26468,1.087995 -0.60187,1.603047 -0.25329,0.386901 -0.35337,0.454215 -1.38415,0.930954 -1.97129,0.911723 -3.16172,1.301524 -3.90773,1.279565 -0.14321,-0.0042 -0.52787,-0.05636 -0.8548,-0.115876 z m 1.5533,-0.517858 c 2.58974,-0.521889 4.57746,-2.895367 4.40533,-5.260278 -0.0938,-1.289512 -0.40135,-1.906881 -2.13829,-4.293087 -1.35023,-1.854945 -1.8504,-2.377245 -2.65885,-2.776511 -0.61493,-0.303686 -0.68283,-0.318113 -1.49723,-0.318113 -0.78854,0 -0.88522,0.01871 -1.27767,0.247447 -0.90696,0.528575 -2.1408798,2.077648 -2.6198898,3.289022 -0.3646,0.922057 -0.49753,1.642511 -0.49906,2.704871 -0.002,1.060441 0.12836,1.765794 0.4981,2.704874 0.49023,1.245096 1.7260798,2.725257 2.7244598,3.263045 0.51775,0.278897 1.53076,0.559369 2.0441,0.565955 0.20046,0.0026 0.65901,-0.05468 1.019,-0.127225 z m -1.99906,-0.423886 c -1.59474,-0.429428 -3.0353598,-2.039324 -3.6852298,-4.118263 -0.16764,-0.536286 -0.19798,-0.815189 -0.19823,-1.822039 -2.1e-4,-0.863774 0.0402,-1.339745 0.14779,-1.740783 0.23897,-0.890704 0.8387,-2.010866 1.4778998,-2.760378 1.06709,-1.251244 1.37558,-1.439369 2.36386,-1.441506 0.58958,-0.0013 0.75496,0.03435 1.25173,0.269679 0.32678,0.154797 0.7472,0.446304 0.97976,0.679331 0.82612,0.827776 2.96226,3.823241 3.39905,4.766423 0.18552,0.400591 0.22875,0.633272 0.25599,1.377924 0.0287,0.783747 0.007,0.970921 -0.17545,1.494697 -0.81604,2.346518 -3.56237,3.902075 -5.81717,3.294915 z m 7.65084,-0.587862 c 0.0588,-0.153128 -0.0764,-0.247829 -0.25558,-0.179073 -0.10739,0.04121 -0.11276,0.07522 -0.028,0.177359 0.13269,0.159878 0.22268,0.16042 0.28358,0.0016 z m 0.60721,-0.895502 c 0,-0.18202 -0.24674,-0.155728 -0.28253,0.0301 -0.0219,0.113483 0.0127,0.148068 0.12621,0.126215 0.086,-0.01656 0.15632,-0.0869 0.15632,-0.156315 z M 19.82537,16.967611 C 19.72338,16.944921 19.65788,16.672517 19.53831,15.773658 19.30084,13.988717 18.74048,11.427487 18.39473,10.546797 18.26988,10.228755 17.46274,9.4331782 16.77315,8.9484352 16.46957,8.7350402 14.65449,7.7676502 12.73963,6.7986782 10.82476,5.8297052 9.2086802,4.9743432 9.1483302,4.8978722 c -0.21185,-0.268424 -1.10591,-1.752796 -1.07481,-1.78446 0.0357,-0.03633 2.4943298,1.272999 3.7497398,1.99688 2.34711,1.353366 4.38955,2.700634 5.77006,3.806145 0.98474,0.788574 1.49027,1.6312518 2.01418,3.3574828 0.4094,1.348934 0.9698,4.201285 0.87432,4.450114 -0.051,0.132881 -0.46448,0.286304 -0.65645,0.243577 z M 2.7956202,14.281266 c -1.14508,-0.374396 -2.11766004,-1.653185 -2.59230004,-3.408465 -0.26993,-0.9982298 -0.27127,-2.6983458 -0.003,-3.6904358 0.32259,-1.192593 1.19803004,-3.20213 1.92513004,-4.41906 0.2484,-0.415747 0.27409,-0.516767 0.23398,-0.919794 l -0.0451,-0.452755 0.45728,-0.46635604 c 0.65375,-0.666731 0.69294,-0.679549 1.03417,-0.338329 0.16726,0.167266 0.62956,0.43738504 1.10671,0.64664604 0.67757,0.297158 0.89725,0.443422 1.26882,0.844758 1.00139,1.08162 2.2036,3.11139 2.82037,4.761808 0.37556,1.004967 0.29685,0.514504 -0.10221,-0.636873 -0.34347,-0.990999 -0.72698,-1.8455 -1.15949,-2.583471 -0.40681,-0.694107 -0.2729,-0.595641 0.28244,0.20768 0.49753,0.719695 1.3122,2.382326 1.64261,3.352328 0.2929,0.859874 0.4845298,1.835885 0.4845298,2.467774 0,0.5166158 0.005,0.5283948 0.54083,1.1711798 0.51033,0.612683 1.58789,2.08673 1.76275,2.411326 0.0655,0.121663 0.0449,0.148298 -0.114,0.146915 -0.14792,-0.0013 -0.37116,-0.238442 -0.9392,-0.997764 -0.40984,-0.547844 -0.91938,-1.18714 -1.13231,-1.420659 L 9.8804902,10.533137 10.35379,11.212468 c 0.54769,0.786083 1.40948,2.195633 1.40853,2.303785 -6.5e-4,0.07353 -0.67833,0.494907 -0.71011,0.441541 -0.27521,-0.462162 -0.88128,-1.313399 -1.1535398,-1.620186 -0.4248,-0.478677 -0.63612,-0.508855 -0.98574,-0.140781 -0.58813,0.619182 -2.33059,1.802988 -2.46135,1.672223 -0.0211,-0.02112 0.16225,-0.176959 0.40746,-0.34634 0.2452,-0.169378 0.73242,-0.602291 1.0827,-0.96203 l 0.63687,-0.65407 -0.57135,0.50209 c -0.71954,0.632319 -1.8274,1.306368 -2.7257,1.658372 -0.81061,0.31764 -1.88624,0.410316 -2.48606,0.214194 z m 2.04431,-0.293984 c 0.7195,-0.2429 1.38567,-0.688166 2.11971,-1.416791 1.32536,-1.315597 1.98031,-2.9317198 1.89457,-4.6749388 -0.0329,-0.668014 -0.0831,-0.871983 -0.38118,-1.547479 -0.42273,-0.957935 -1.51679,-2.806086 -1.98626,-3.355265 -0.4573,-0.534954 -1.10631,-0.906992 -1.58405,-0.908038 -0.53324,-0.0013 -0.96204,0.259136 -1.86355,1.131267 -0.91052,0.880845 -1.57148,1.81581 -2.01317,2.847761 -1.05036004,2.454015 -0.93119004,4.8002858 0.34131,6.7196198 0.85656,1.291956 2.0185,1.694772 3.47262,1.203864 z m -2.0355,-0.385504 c -0.8049,-0.377202 -1.52568,-1.395763 -1.87544004,-2.650256 -0.20751,-0.744309 -0.25492,-2.4824188 -0.0872,-3.1983138 0.43234004,-1.845639 1.65940004,-3.753855 3.15672004,-4.909025 0.38841,-0.299655 0.53651,-0.363934 0.8385,-0.363934 0.50244,0 1.06594,0.346455 1.50123,0.922997 0.53131,0.703716 1.74005,2.869467 1.95741,3.507178 0.47761,1.401247 -0.008,3.5425798 -1.10382,4.8688548 -1.35118,1.63511 -3.17268,2.391753 -4.38738,1.822499 z m 0.18377,-11.9905498 c 0.0708,-0.184436 -0.1089,-0.357881 -0.23751,-0.229275 -0.10869,0.108697 -0.0414,0.362357 0.0962,0.362357 0.0496,0 0.11322,-0.05989 0.14131,-0.133082 z m 0.62293,-0.63116404 c 0,-0.09341 -0.0551,-0.169833 -0.12236,-0.169833 -0.15001,0 -0.24592,0.139742 -0.17484,0.25474804 0.0923,0.149419 0.2972,0.09089 0.2972,-0.08492 z M 13.12175,5.4224382 c -0.60433,-0.373174 -2.33224,-1.322751 -4.7313998,-2.600153 -0.59695,-0.317837 -1.18089,-0.65578 -1.29765,-0.750982 -0.25857,-0.210821 2.66783,1.277787 3.9061398,1.986992 1.60039,0.916565 2.96409,1.779463 2.78101,1.759702 -0.0117,-0.0013 -0.30782,-0.179263 -0.6581,-0.395559 z"
       id="path7" /></g></svg>
